Klei.ufo
<glyph name="exclam" format="1">
  <advance width="236"/>
  <unicode hex="0021"/>
  <outline>
    <contour>
      <point x="67" y="40" type="curve" smooth="yes"/>
      <point x="67" y="68"/>
      <point x="89.5068" y="91"/>
      <point x="118.507" y="91" type="curve" smooth="yes"/>
      <point x="146.507" y="91"/>
      <point x="169.507" y="68"/>
      <point x="169.507" y="40" type="curve" smooth="yes"/>
      <point x="169.507" y="12"/>
      <point x="146.507" y="-11.0996"/>
      <point x="118.507" y="-11.0996" type="curve" smooth="yes"/>
      <point x="89.5068" y="-11.0996"/>
      <point x="67" y="12"/>
    </contour>
    <contour>
      <point x="160.507" y="701" type="curve"/>
      <point x="140.507" y="234" type="line" smooth="yes"/>
      <point x="139.744" y="219.234"/>
      <point x="131" y="210"/>
      <point x="119" y="209.71" type="curve" smooth="yes"/>
      <point x="106" y="210"/>
      <point x="97.3691" y="218.895"/>
      <point x="96.5068" y="234" type="curve" smooth="yes"/>
      <point x="73.5068" y="701" type="line"/>
      <point x="73.5068" y="729.705"/>
      <point x="95.1928" y="743.995"/>
      <point x="116.911" y="743.995" type="curve" smooth="yes"/>
      <point x="138.693" y="743.995"/>
      <point x="160.507" y="729.621"/>
    </contour>
  </outline>
</glyph>
<glyph name="numbersign" format="1">
  <advance width="695"/>
  <unicode hex="0023"/>
  <outline>
    <contour>
      <point x="316" y="730.333" type="curve" smooth="yes"/>
      <point x="343" y="730.333" type="line" smooth="yes"/>
      <point x="348" y="730.333"/>
      <point x="353" y="729"/>
      <point x="353" y="723" type="curve" smooth="yes"/>
      <point x="353" y="723"/>
      <point x="353" y="721"/>
      <point x="353" y="720" type="curve" smooth="yes"/>
      <point x="309" y="538" type="line"/>
      <point x="450" y="538" type="line"/>
      <point x="494" y="720" type="line" smooth="yes"/>
      <point x="495" y="726"/>
      <point x="500" y="730.333"/>
      <point x="506" y="730.333" type="curve" smooth="yes"/>
      <point x="533" y="730.333" type="line" smooth="yes"/>
      <point x="538" y="730.333"/>
      <point x="543" y="729"/>
      <point x="543" y="723" type="curve" smooth="yes"/>
      <point x="543" y="723"/>
      <point x="543" y="721"/>
      <point x="543" y="720" type="curve" smooth="yes"/>
      <point x="499" y="538" type="line"/>
      <point x="642" y="538" type="line" smooth="yes"/>
      <point x="647" y="538"/>
      <point x="652" y="536"/>
      <point x="652" y="531" type="curve" smooth="yes"/>
      <point x="652" y="530"/>
      <point x="651" y="529"/>
      <point x="651" y="528" type="curve" smooth="yes"/>
      <point x="640" y="495.083" type="line" smooth="yes"/>
      <point x="638" y="489.083"/>
      <point x="633" y="483"/>
      <point x="627" y="483" type="curve" smooth="yes"/>
      <point x="486" y="483" type="line"/>
      <point x="437" y="279" type="line"/>
      <point x="591" y="279" type="line" smooth="yes"/>
      <point x="596" y="279"/>
      <point x="601" y="277"/>
      <point x="601" y="272" type="curve" smooth="yes"/>
      <point x="601" y="271"/>
      <point x="600" y="270"/>
      <point x="600" y="269" type="curve" smooth="yes"/>
      <point x="589" y="234" type="line" smooth="yes"/>
      <point x="587" y="228"/>
      <point x="582" y="224"/>
      <point x="576" y="224" type="curve" smooth="yes"/>
      <point x="424" y="224" type="line"/>
      <point x="375" y="20" type="line" smooth="yes"/>
      <point x="375" y="14"/>
      <point x="371" y="10"/>
      <point x="365" y="10" type="curve" smooth="yes"/>
      <point x="336" y="10" type="line" smooth="yes"/>
      <point x="330" y="10"/>
      <point x="326" y="14"/>
      <point x="326" y="20" type="curve" smooth="yes"/>
      <point x="375" y="224" type="line"/>
      <point x="234" y="224" type="line"/>
      <point x="185" y="20" type="line" smooth="yes"/>
      <point x="185" y="14"/>
      <point x="181" y="10"/>
      <point x="175" y="10" type="curve" smooth="yes"/>
      <point x="146" y="10" type="line" smooth="yes"/>
      <point x="140" y="10"/>
      <point x="136" y="14"/>
      <point x="136" y="20" type="curve" smooth="yes"/>
      <point x="185" y="224" type="line"/>
      <point x="57" y="224" type="line" smooth="yes"/>
      <point x="52" y="224"/>
      <point x="47" y="227"/>
      <point x="47" y="232" type="curve" smooth="yes"/>
      <point x="47" y="233"/>
      <point x="47" y="235"/>
      <point x="48" y="236" type="curve" smooth="yes"/>
      <point x="58" y="269" type="line" smooth="yes"/>
      <point x="60" y="275"/>
      <point x="65" y="279"/>
      <point x="71" y="279" type="curve" smooth="yes"/>
      <point x="198" y="279" type="line"/>
      <point x="247" y="483" type="line"/>
      <point x="108" y="483" type="line" smooth="yes"/>
      <point x="103" y="483"/>
      <point x="98" y="486"/>
      <point x="98" y="491" type="curve" smooth="yes"/>
      <point x="98" y="492"/>
      <point x="98" y="494.083"/>
      <point x="99" y="495.083" type="curve" smooth="yes"/>
      <point x="109" y="528" type="line" smooth="yes"/>
      <point x="111" y="534"/>
      <point x="116" y="538"/>
      <point x="122" y="538" type="curve" smooth="yes"/>
      <point x="260" y="538" type="line"/>
      <point x="304" y="720" type="line" smooth="yes"/>
      <point x="305" y="726"/>
      <point x="310" y="730.333"/>
    </contour>
    <contour>
      <point x="296" y="483" type="line"/>
      <point x="247" y="279" type="line"/>
      <point x="388" y="279" type="line"/>
      <point x="437" y="483" type="line"/>
    </contour>
  </outline>
</glyph>
<glyph name="dollar" format="1">
  <advance width="555"/>
  <unicode hex="0024"/>
  <outline>
    <contour>
      <point x="286.507" y="64.8279" type="curve"/>
      <point x="357.917" y="66.9041"/>
      <point x="405.642" y="110.82"/>
      <point x="405.642" y="173" type="curve" smooth="yes"/>
      <point x="405.642" y="229.919"/>
      <point x="365.117" y="253.623"/>
      <point x="308.715" y="286.202" type="curve"/>
      <point x="299.984" y="201.644"/>
      <point x="292.166" y="122.789"/>
    </contour>
    <contour>
      <point x="343.694" y="603.581" type="curve"/>
      <point x="400.853" y="597.263"/>
      <point x="448.94" y="577.52"/>
      <point x="448.94" y="565" type="curve" smooth="yes"/>
      <point x="448.94" y="553.706"/>
      <point x="433.179" y="505.604"/>
      <point x="426" y="505.604" type="curve" smooth="yes"/>
      <point x="416.163" y="505.604"/>
      <point x="395.717" y="553.742"/>
      <point x="339.944" y="572.191" type="curve"/>
      <point x="332.316" y="507.466"/>
      <point x="324.349" y="434.896"/>
      <point x="316.754" y="363.124" type="curve"/>
      <point x="398.022" y="313.789"/>
      <point x="461.283" y="279.545"/>
      <point x="461.283" y="210" type="curve" smooth="yes"/>
      <point x="461.283" y="142.246"/>
      <point x="431.976" y="98.1802"/>
      <point x="391.894" y="65.5947" type="curve" smooth="yes"/>
      <point x="363.23" y="42.2916"/>
      <point x="320.207" y="28.2546"/>
      <point x="282.872" y="27.4212" type="curve"/>
      <point x="279.322" y="-9.28501"/>
      <point x="277.255" y="-31.2031"/>
      <point x="277.255" y="-31.2031" type="curve" smooth="yes"/>
      <point x="270.955" y="-42.1259"/>
      <point x="259.145" y="-46.9423"/>
      <point x="248" y="-46.9423" type="curve" smooth="yes"/>
      <point x="239.362" y="-46.9423"/>
      <point x="231.124" y="-44.4342"/>
      <point x="226.161" y="-39.8887" type="curve"/>
      <point x="229.489" y="-15.6728"/>
      <point x="232.686" y="8.00707"/>
      <point x="235.759" y="31.2305" type="curve"/>
      <point x="155.607" y="45.6096"/>
      <point x="104.56" y="96.6498"/>
      <point x="104.56" y="122" type="curve" smooth="yes"/>
      <point x="104.56" y="140.802"/>
      <point x="130.746" y="191.087"/>
      <point x="140" y="191.087" type="curve" smooth="yes"/>
      <point x="148.48" y="191.087"/>
      <point x="171.744" y="99.1357"/>
      <point x="241.105" y="72.1259" type="curve"/>
      <point x="251.857" y="155.442"/>
      <point x="261.029" y="233.25"/>
      <point x="269.073" y="309.476" type="curve"/>
      <point x="201.406" y="349.803"/>
      <point x="130.485" y="395.522"/>
      <point x="130.485" y="454.702" type="curve" smooth="yes"/>
      <point x="130.485" y="524.929"/>
      <point x="183.932" y="600.112"/>
      <point x="295.565" y="605.311" type="curve"/>
      <point x="296.967" y="624.055"/>
      <point x="298.338" y="642.997"/>
      <point x="299.685" y="662.189" type="curve" smooth="yes"/>
      <point x="300.857" y="669.444"/>
      <point x="314.583" y="674.557"/>
      <point x="324" y="674.557" type="curve" smooth="yes"/>
      <point x="336.038" y="674.557"/>
      <point x="349.679" y="665.419"/>
      <point x="350.298" y="656.539" type="curve" smooth="yes"/>
      <point x="348.15" y="639.876"/>
      <point x="345.942" y="622.146"/>
    </contour>
    <contour>
      <point x="293.588" y="579.268" type="curve"/>
      <point x="212.865" y="579.09"/>
      <point x="190.819" y="526.604"/>
      <point x="190.819" y="490.696" type="curve" smooth="yes"/>
      <point x="190.819" y="447.313"/>
      <point x="228.053" y="418.119"/>
      <point x="276.964" y="387.448" type="curve"/>
      <point x="283.099" y="450.784"/>
      <point x="288.552" y="513.955"/>
    </contour>
  </outline>
</glyph>
<glyph name="percent" format="1">
  <advance width="884"/>
  <unicode hex="0025"/>
  <outline>
    <contour>
      <point x="115" y="449" type="curve" smooth="yes"/>
      <point x="115" y="345"/>
      <point x="160" y="284"/>
      <point x="212" y="284" type="curve" smooth="yes"/>
      <point x="263" y="284"/>
      <point x="309" y="345"/>
      <point x="309" y="449" type="curve" smooth="yes"/>
      <point x="309" y="553"/>
      <point x="263" y="614"/>
      <point x="212" y="614" type="curve" smooth="yes"/>
      <point x="160" y="614"/>
      <point x="115" y="553"/>
    </contour>
    <contour>
      <point x="52" y="449" type="curve" smooth="yes"/>
      <point x="52" y="573"/>
      <point x="124" y="642"/>
      <point x="212" y="642" type="curve" smooth="yes"/>
      <point x="300" y="642"/>
      <point x="371" y="573"/>
      <point x="371" y="449" type="curve" smooth="yes"/>
      <point x="371" y="325"/>
      <point x="300" y="256"/>
      <point x="212" y="256" type="curve" smooth="yes"/>
      <point x="124" y="256"/>
      <point x="52" y="325"/>
    </contour>
    <contour>
      <point x="578" y="184" type="curve" smooth="yes"/>
      <point x="578" y="80"/>
      <point x="624" y="19"/>
      <point x="675" y="19" type="curve" smooth="yes"/>
      <point x="726" y="19"/>
      <point x="772" y="80"/>
      <point x="772" y="184" type="curve" smooth="yes"/>
      <point x="772" y="288"/>
      <point x="726" y="349"/>
      <point x="675" y="349" type="curve" smooth="yes"/>
      <point x="624" y="349"/>
      <point x="578" y="288"/>
    </contour>
    <contour>
      <point x="515" y="184" type="curve" smooth="yes"/>
      <point x="515" y="308"/>
      <point x="587" y="377"/>
      <point x="675" y="377" type="curve" smooth="yes"/>
      <point x="763" y="377"/>
      <point x="835" y="308"/>
      <point x="835" y="184" type="curve" smooth="yes"/>
      <point x="835" y="60"/>
      <point x="763" y="-9"/>
      <point x="675" y="-9" type="curve" smooth="yes"/>
      <point x="587" y="-9"/>
      <point x="515" y="60"/>
    </contour>
    <contour>
      <point x="652" y="702" type="curve" smooth="yes"/>
      <point x="670" y="690" type="line" smooth="yes"/>
      <point x="673.214" y="688.071"/>
      <point x="675.392" y="685.316"/>
      <point x="675.392" y="682" type="curve" smooth="yes"/>
      <point x="675.392" y="680.158"/>
      <point x="675.071" y="678.143"/>
      <point x="674" y="676" type="curve" smooth="yes"/>
      <point x="240" y="-73" type="line" smooth="yes"/>
      <point x="238.838" y="-74.9373"/>
      <point x="236.624" y="-75.6742"/>
      <point x="234" y="-75.6742" type="curve" smooth="yes"/>
      <point x="229.851" y="-75.6742"/>
      <point x="224.675" y="-73.8376"/>
      <point x="221" y="-72" type="curve" smooth="yes"/>
      <point x="208" y="-64" type="line" smooth="yes"/>
      <point x="204.786" y="-62.0714"/>
      <point x="203.316" y="-59.3161"/>
      <point x="203.316" y="-56" type="curve" smooth="yes"/>
      <point x="203.316" y="-54.1579"/>
      <point x="203.929" y="-52.1427"/>
      <point x="205" y="-50" type="curve" smooth="yes"/>
      <point x="638" y="699" type="line" smooth="yes"/>
      <point x="639.843" y="702.072"/>
      <point x="642.819" y="704.123"/>
      <point x="646" y="704.123" type="curve" smooth="yes"/>
      <point x="647.996" y="704.123"/>
      <point x="650.072" y="703.542"/>
    </contour>
  </outline>
</glyph>
<glyph name="ampersand" format="1">
  <advance width="792"/>
  <unicode hex="0026"/>
  <outline>
    <contour>
      <point x="216.359" y="391.754" type="curve"/>
      <point x="141.721" y="331.8"/>
      <point x="95" y="266.485"/>
      <point x="95" y="186" type="curve" smooth="yes"/>
      <point x="95" y="97.7422"/>
      <point x="154.648" y="37.9297"/>
      <point x="263.498" y="37.9297" type="curve" smooth="yes"/>
      <point x="265.646" y="37.9297"/>
      <point x="267.813" y="37.9531"/>
      <point x="270" y="38" type="curve" smooth="yes"/>
      <point x="354.85" y="39.8173"/>
      <point x="398.006" y="92.4252"/>
      <point x="442.356" y="155.388" type="curve"/>
      <point x="411.137" y="196.841"/>
      <point x="373.547" y="241.096"/>
      <point x="324" y="292" type="curve" smooth="yes"/>
      <point x="296.936" y="319.806"/>
      <point x="255.818" y="354.253"/>
    </contour>
    <contour>
      <point x="486.222" y="217.05" type="curve"/>
      <point x="505.169" y="242.154"/>
      <point x="526.289" y="266.897"/>
      <point x="552" y="289" type="curve" smooth="yes"/>
      <point x="562.174" y="297.746"/>
      <point x="582.452" y="318.767"/>
      <point x="582.452" y="318.767" type="curve" smooth="yes"/>
      <point x="584.448" y="321.725"/>
      <point x="585.328" y="324.457"/>
      <point x="585.328" y="326.915" type="curve" smooth="yes"/>
      <point x="585.328" y="333.696"/>
      <point x="578.628" y="338.394"/>
      <point x="570.17" y="340.016" type="curve" smooth="yes"/>
      <point x="564.518" y="341.1"/>
      <point x="557.151" y="341.526"/>
      <point x="551.374" y="341.604" type="curve"/>
      <point x="551.324" y="356.998" type="line"/>
      <point x="670" y="357" type="line"/>
      <point x="670" y="341.605" type="line"/>
      <point x="663.234" y="341.529"/>
      <point x="660.788" y="341.438"/>
      <point x="655.735" y="340.018" type="curve" smooth="yes"/>
      <point x="650.461" y="338.535"/>
      <point x="644" y="337"/>
      <point x="638.388" y="333.878" type="curve" smooth="yes"/>
      <point x="623.137" y="325.394"/>
      <point x="578" y="287"/>
      <point x="565" y="274" type="curve" smooth="yes"/>
      <point x="540.64" y="249.64"/>
      <point x="520.436" y="223.073"/>
      <point x="502.132" y="196.282" type="curve"/>
      <point x="542.127" y="139.065"/>
      <point x="595.663" y="22"/>
      <point x="656" y="22" type="curve" smooth="yes"/>
      <point x="720" y="22"/>
      <point x="760" y="74"/>
      <point x="760" y="74" type="curve"/>
      <point x="771" y="60" type="line"/>
      <point x="771" y="60"/>
      <point x="721" y="-16"/>
      <point x="654" y="-16" type="curve" smooth="yes"/>
      <point x="554" y="-16"/>
      <point x="525" y="35"/>
      <point x="483" y="98" type="curve" smooth="yes"/>
      <point x="475.644" y="109.034"/>
      <point x="468" y="120.144"/>
      <point x="459.947" y="131.413" type="curve"/>
      <point x="410.243" y="54.5446"/>
      <point x="361.071" y="-10"/>
      <point x="253" y="-10" type="curve" smooth="yes"/>
      <point x="115" y="-10"/>
      <point x="24" y="73"/>
      <point x="24" y="175" type="curve" smooth="yes"/>
      <point x="24" y="271.737"/>
      <point x="136.492" y="358.263"/>
      <point x="201.075" y="406.541" type="curve"/>
      <point x="148.65" y="458.254"/>
      <point x="103" y="514.7"/>
      <point x="103" y="567" type="curve" smooth="yes"/>
      <point x="103" y="643"/>
      <point x="154" y="735"/>
      <point x="255" y="735" type="curve" smooth="yes"/>
      <point x="399" y="735"/>
      <point x="406" y="640"/>
      <point x="406" y="595" type="curve" smooth="yes"/>
      <point x="406" y="537.235"/>
      <point x="338.586" y="481.831"/>
      <point x="274.164" y="434.656" type="curve"/>
      <point x="305.123" y="404.747"/>
      <point x="337.622" y="375.378"/>
      <point x="365" y="348" type="curve" smooth="yes"/>
      <point x="422.929" y="290.071"/>
      <point x="460.775" y="248.445"/>
    </contour>
    <contour>
      <point x="257.603" y="450.883" type="curve"/>
      <point x="345.234" y="525.711"/>
      <point x="359" y="575.221"/>
      <point x="359" y="619" type="curve" smooth="yes"/>
      <point x="359" y="675"/>
      <point x="320" y="709"/>
      <point x="259" y="709" type="curve" smooth="yes"/>
      <point x="187" y="709"/>
      <point x="160" y="656"/>
      <point x="160" y="604" type="curve" smooth="yes"/>
      <point x="160" y="557.346"/>
      <point x="204.572" y="503.685"/>
    </contour>
  </outline>
</glyph>
<glyph name="quotesingle" format="1">
  <advance width="187"/>
  <unicode hex="0027"/>
  <outline>
    <contour>
      <point x="87" y="501" type="curve" smooth="yes"/>
      <point x="101" y="501" type="line" smooth="yes"/>
      <point x="107" y="501"/>
      <point x="111" y="505"/>
      <point x="111" y="511" type="curve" smooth="yes"/>
      <point x="123" y="629" type="line" smooth="yes"/>
      <point x="123" y="631"/>
      <point x="123" y="634"/>
      <point x="123" y="636" type="curve" smooth="yes"/>
      <point x="123" y="654"/>
      <point x="113" y="667"/>
      <point x="94" y="667" type="curve" smooth="yes"/>
      <point x="75" y="667"/>
      <point x="65" y="654"/>
      <point x="65" y="634" type="curve" smooth="yes"/>
      <point x="65" y="633"/>
      <point x="65" y="631"/>
      <point x="65" y="629" type="curve" smooth="yes"/>
      <point x="77" y="511" type="line" smooth="yes"/>
      <point x="77" y="505"/>
      <point x="81" y="501"/>
    </contour>
  </outline>
</glyph>
<glyph name="parenleft" format="1">
  <advance width="282"/>
  <unicode hex="0028"/>
  <outline>
    <contour>
      <point x="238" y="769" type="line"/>
      <point x="212" y="731"/>
      <point x="120" y="667"/>
      <point x="120" y="350" type="curve" smooth="yes"/>
      <point x="120" y="56"/>
      <point x="212" y="-11"/>
      <point x="238" y="-50" type="curve"/>
      <point x="238" y="-90" type="line"/>
      <point x="238" y="-90"/>
      <point x="57" y="88"/>
      <point x="57" y="351" type="curve" smooth="yes"/>
      <point x="57" y="646"/>
      <point x="238" y="798.697"/>
      <point x="238" y="798.697" type="curve"/>
    </contour>
  </outline>
</glyph>
<glyph name="parenright" format="1">
  <advance width="280"/>
  <unicode hex="0029"/>
  <outline>
    <contour>
      <point x="43" y="769" type="curve"/>
      <point x="43" y="798.697" type="line"/>
      <point x="43" y="798.697"/>
      <point x="224" y="646"/>
      <point x="224" y="351" type="curve" smooth="yes"/>
      <point x="224" y="88"/>
      <point x="43" y="-90"/>
      <point x="43" y="-90" type="curve"/>
      <point x="43" y="-50" type="line"/>
      <point x="69" y="-11"/>
      <point x="161" y="56"/>
      <point x="161" y="350" type="curve" smooth="yes"/>
      <point x="161" y="667"/>
      <point x="69" y="731"/>
    </contour>
  </outline>
</glyph>
<glyph name="asterisk" format="1">
  <advance width="346"/>
  <unicode hex="002A"/>
  <outline>
    <contour>
      <point x="170.775" y="641.875" type="curve" smooth="yes"/>
      <point x="174.225" y="641.875" type="line" smooth="yes"/>
      <point x="179.975" y="641.875"/>
      <point x="184.575" y="637.275"/>
      <point x="184.575" y="631.525" type="curve" smooth="yes"/>
      <point x="189.175" y="519.975" type="line"/>
      <point x="289.225" y="570.575" type="line" smooth="yes"/>
      <point x="290.809" y="571.377"/>
      <point x="292.675" y="571.725"/>
      <point x="293.825" y="571.725" type="curve" smooth="yes"/>
      <point x="298.425" y="571.725"/>
      <point x="301.644" y="570.259"/>
      <point x="304.175" y="566.975" type="curve" smooth="yes"/>
      <point x="306.001" y="564.604"/>
      <point x="306.475" y="561.805"/>
      <point x="306.475" y="559.075" type="curve" smooth="yes"/>
      <point x="306.475" y="555.625"/>
      <point x="304.175" y="552.175"/>
      <point x="300.725" y="549.875" type="curve" smooth="yes"/>
      <point x="208.725" y="488.925" type="line"/>
      <point x="300.725" y="427.975" type="line" smooth="yes"/>
      <point x="304.112" y="425.73"/>
      <point x="306.475" y="423.375"/>
      <point x="306.475" y="418.775" type="curve" smooth="yes"/>
      <point x="306.475" y="416.214"/>
      <point x="305.162" y="413.849"/>
      <point x="304.175" y="411.875" type="curve" smooth="yes"/>
      <point x="301.875" y="408.425"/>
      <point x="298.425" y="406.125"/>
      <point x="293.825" y="406.125" type="curve" smooth="yes"/>
      <point x="292.675" y="406.125"/>
      <point x="290.356" y="406.696"/>
      <point x="289.225" y="407.275" type="curve" smooth="yes"/>
      <point x="190.325" y="457.875" type="line"/>
      <point x="185.725" y="347.475" type="line" smooth="yes"/>
      <point x="185.725" y="341.725"/>
      <point x="179.975" y="337.125"/>
      <point x="174.225" y="337.125" type="curve" smooth="yes"/>
      <point x="170.775" y="337.125" type="line" smooth="yes"/>
      <point x="165.025" y="337.125"/>
      <point x="159.275" y="341.725"/>
      <point x="159.275" y="347.475" type="curve" smooth="yes"/>
      <point x="154.675" y="457.875" type="line"/>
      <point x="54.75" y="407.15" type="line" smooth="yes"/>
      <point x="52.5215" y="406.01"/>
      <point x="51.2998" y="406"/>
      <point x="49" y="406" type="curve" smooth="yes"/>
      <point x="45.5498" y="406"/>
      <point x="42.6848" y="409.34"/>
      <point x="40.8252" y="411.875" type="curve" smooth="yes"/>
      <point x="39.5982" y="413.548"/>
      <point x="38.5254" y="416.486"/>
      <point x="38.5254" y="418.775" type="curve" smooth="yes"/>
      <point x="38.5254" y="422.225"/>
      <point x="40.8252" y="426.825"/>
      <point x="43.125" y="427.975" type="curve" smooth="yes"/>
      <point x="136.275" y="488.925" type="line"/>
      <point x="43.125" y="549.875" type="line"/>
      <point x="39.7877" y="551.91"/>
      <point x="38.2778" y="556.012"/>
      <point x="38.2778" y="560" type="curve" smooth="yes"/>
      <point x="38.2778" y="567.023"/>
      <point x="44.3578" y="571.725"/>
      <point x="50.0254" y="571.725" type="curve" smooth="yes"/>
      <point x="52.3252" y="571.725"/>
      <point x="53.4746" y="571.725"/>
      <point x="55.7754" y="570.575" type="curve" smooth="yes"/>
      <point x="155.825" y="519.975" type="line"/>
      <point x="160.425" y="631.525" type="line" smooth="yes"/>
      <point x="160.425" y="636.125"/>
      <point x="165.025" y="641.875"/>
    </contour>
  </outline>
</glyph>
<glyph name="comma" format="1">
  <advance width="240"/>
  <unicode hex="002C"/>
  <outline>
    <contour>
      <point x="86" y="-79" type="curve" smooth="yes"/>
      <point x="92" y="-79"/>
      <point x="102" y="-78"/>
      <point x="111" y="-75" type="curve" smooth="yes"/>
      <point x="148" y="-63"/>
      <point x="178" y="-27"/>
      <point x="178" y="40" type="curve" smooth="yes"/>
      <point x="178" y="41" type="line" smooth="yes"/>
      <point x="178" y="66"/>
      <point x="156" y="91"/>
      <point x="126" y="91" type="curve" smooth="yes"/>
      <point x="97" y="91"/>
      <point x="70" y="66"/>
      <point x="70" y="38" type="curve" smooth="yes"/>
      <point x="70" y="10"/>
      <point x="85" y="7"/>
      <point x="103" y="-11" type="curve" smooth="yes"/>
      <point x="108" y="-16"/>
      <point x="111" y="-21"/>
      <point x="111" y="-27" type="curve" smooth="yes"/>
      <point x="111" y="-33"/>
      <point x="108" y="-39"/>
      <point x="104" y="-45" type="curve" smooth="yes"/>
      <point x="94" y="-59"/>
      <point x="71" y="-67"/>
      <point x="59" y="-67" type="curve"/>
      <point x="65" y="-75" type="line"/>
      <point x="65" y="-75"/>
      <point x="73" y="-79"/>
    </contour>
  </outline>
</glyph>
<glyph name="hyphen" format="1">
  <advance width="403"/>
  <unicode hex="002D"/>
  <outline>
    <contour>
      <point x="77" y="276" type="curve"/>
      <point x="330" y="276" type="line"/>
      <point x="335" y="276"/>
      <point x="336" y="285"/>
      <point x="336" y="295" type="curve" smooth="yes"/>
      <point x="336" y="307"/>
      <point x="334" y="320"/>
      <point x="330" y="320" type="curve"/>
      <point x="77" y="320" type="line"/>
      <point x="71" y="320"/>
      <point x="68" y="311"/>
      <point x="68" y="300" type="curve" smooth="yes"/>
      <point x="68" y="289"/>
      <point x="71" y="278"/>
    </contour>
  </outline>
</glyph>
<glyph name="period" format="1">
  <advance width="224"/>
  <unicode hex="002E"/>
  <outline>
    <contour>
      <point x="112" y="553" type="curve" smooth="yes"/>
      <point x="140" y="553"/>
      <point x="163" y="576"/>
      <point x="163" y="604" type="curve" smooth="yes"/>
      <point x="163" y="632"/>
      <point x="140" y="655"/>
      <point x="112" y="655" type="curve" smooth="yes"/>
      <point x="83" y="655"/>
      <point x="60" y="632"/>
      <point x="60" y="604" type="curve" smooth="yes"/>
      <point x="60" y="576"/>
      <point x="83" y="553"/>
    </contour>
    <contour>
      <point x="111" y="506" type="move" name="_top"/>
    </contour>
  </outline>
</glyph>
<glyph name="slash" format="1">
  <advance width="398"/>
  <unicode hex="002F"/>
  <outline>
    <contour>
      <point x="41" y="-96" type="curve"/>
      <point x="143" y="183"/>
      <point x="216" y="419"/>
      <point x="288" y="676" type="curve"/>
      <point x="306" y="690"/>
      <point x="322" y="696"/>
      <point x="334" y="696" type="curve" smooth="yes"/>
      <point x="347" y="696"/>
      <point x="355" y="689"/>
      <point x="355" y="676" type="curve"/>
      <point x="266" y="425"/>
      <point x="116" y="-58"/>
      <point x="116" y="-58" type="curve"/>
      <point x="110" y="-106"/>
      <point x="78" y="-82"/>
    </contour>
  </outline>
</glyph>
<glyph name="zero" format="1">
  <advance width="480"/>
  <unicode hex="0030"/>
  <outline>
    <contour>
      <point x="240" y="-7" type="curve" smooth="yes"/>
      <point x="358" y="-7"/>
      <point x="449" y="138"/>
      <point x="449" y="317" type="curve" smooth="yes"/>
      <point x="449" y="496"/>
      <point x="358" y="640"/>
      <point x="240" y="640" type="curve" smooth="yes"/>
      <point x="122" y="640"/>
      <point x="31" y="496"/>
      <point x="31" y="317" type="curve" smooth="yes"/>
      <point x="31" y="138"/>
      <point x="122" y="-7"/>
    </contour>
    <contour>
      <point x="240" y="23" type="curve" smooth="yes"/>
      <point x="167" y="23"/>
      <point x="105" y="155"/>
      <point x="105" y="317" type="curve" smooth="yes"/>
      <point x="105" y="479"/>
      <point x="167" y="611"/>
      <point x="240" y="611" type="curve" smooth="yes"/>
      <point x="313" y="611"/>
      <point x="375" y="479"/>
      <point x="375" y="317" type="curve" smooth="yes"/>
      <point x="375" y="155"/>
      <point x="313" y="23"/>
    </contour>
  </outline>
</glyph>
<glyph name="one" format="1">
  <advance width="480"/>
  <unicode hex="0031"/>
  <outline>
    <contour>
      <point x="319" y="16" type="curve"/>
      <point x="319" y="0" type="line"/>
      <point x="173" y="0" type="line"/>
      <point x="173" y="16" type="line"/>
      <point x="192" y="16"/>
      <point x="209" y="19"/>
      <point x="209" y="37" type="curve" smooth="yes"/>
      <point x="209" y="532" type="line" smooth="yes"/>
      <point x="209" y="549"/>
      <point x="207" y="565"/>
      <point x="193" y="565" type="curve" smooth="yes"/>
      <point x="182" y="565"/>
      <point x="168" y="563"/>
      <point x="168" y="563" type="curve"/>
      <point x="168" y="583" type="line" smooth="yes"/>
      <point x="204" y="598"/>
      <point x="239" y="616"/>
      <point x="266" y="642" type="curve" smooth="yes"/>
      <point x="267.547" y="643.489"/>
      <point x="269.722" y="644.135"/>
      <point x="272" y="644.135" type="curve" smooth="yes"/>
      <point x="277.227" y="644.135"/>
      <point x="283" y="640.268"/>
      <point x="283" y="634" type="curve" smooth="yes"/>
      <point x="283" y="37" type="line" smooth="yes"/>
      <point x="283" y="18"/>
      <point x="301" y="16"/>
    </contour>
  </outline>
</glyph>
<glyph name="two" format="1">
  <advance width="481"/>
  <unicode hex="0032"/>
  <outline>
    <contour>
      <point x="124" y="530" type="curve"/>
      <point x="105" y="546.083" type="line"/>
      <point x="105" y="546.083"/>
      <point x="158" y="642"/>
      <point x="264" y="642" type="curve" smooth="yes"/>
      <point x="363" y="642"/>
      <point x="419" y="594.083"/>
      <point x="419" y="514.083" type="curve" smooth="yes"/>
      <point x="419" y="456.083"/>
      <point x="366.779" y="389.39"/>
      <point x="284" y="282" type="curve" smooth="yes"/>
      <point x="210" y="186"/>
      <point x="133" y="86"/>
      <point x="105" y="54" type="curve"/>
      <point x="348" y="54" type="line" smooth="yes"/>
      <point x="398" y="54"/>
      <point x="424" y="73"/>
      <point x="434" y="105" type="curve"/>
      <point x="448" y="103" type="line"/>
      <point x="410" y="0" type="line"/>
      <point x="36" y="0" type="line" smooth="yes"/>
      <point x="36" y="12"/>
      <point x="36" y="34"/>
      <point x="36" y="34" type="curve"/>
      <point x="139" y="157"/>
      <point x="216.317" y="263.979"/>
      <point x="272" y="341" type="curve" smooth="yes"/>
      <point x="309.147" y="392.383"/>
      <point x="352.031" y="450.78"/>
      <point x="352.031" y="496" type="curve" smooth="yes"/>
      <point x="352.031" y="569"/>
      <point x="303.458" y="601"/>
      <point x="242" y="601" type="curve" smooth="yes"/>
      <point x="182" y="601"/>
      <point x="155" y="569"/>
    </contour>
  </outline>
</glyph>
<glyph name="three" format="1">
  <advance width="480"/>
  <unicode hex="0033"/>
  <outline>
    <contour>
      <point x="73" y="522" type="curve"/>
      <point x="58" y="537" type="line"/>
      <point x="58" y="537"/>
      <point x="129" y="640"/>
      <point x="230" y="640" type="curve" smooth="yes"/>
      <point x="322" y="640"/>
      <point x="367" y="601"/>
      <point x="367" y="542" type="curve" smooth="yes"/>
      <point x="367" y="482"/>
      <point x="290" y="425"/>
      <point x="230" y="375" type="curve"/>
      <point x="323" y="375"/>
      <point x="419" y="299"/>
      <point x="419" y="195" type="curve" smooth="yes"/>
      <point x="419" y="71.1514"/>
      <point x="331.217" y="-7"/>
      <point x="190" y="-7" type="curve" smooth="yes"/>
      <point x="129" y="-7"/>
      <point x="49" y="17"/>
      <point x="49" y="37" type="curve" smooth="yes"/>
      <point x="49" y="39"/>
      <point x="49" y="40"/>
      <point x="50" y="42" type="curve" smooth="yes"/>
      <point x="55" y="49"/>
      <point x="62" y="59"/>
      <point x="72" y="59" type="curve" smooth="yes"/>
      <point x="82" y="59"/>
      <point x="93" y="55"/>
      <point x="105" y="46" type="curve" smooth="yes"/>
      <point x="126" y="30"/>
      <point x="159" y="23"/>
      <point x="190" y="23" type="curve" smooth="yes"/>
      <point x="282.609" y="23"/>
      <point x="356" y="76.8701"/>
      <point x="356" y="166" type="curve" smooth="yes"/>
      <point x="356" y="219"/>
      <point x="331" y="268"/>
      <point x="285" y="288" type="curve" smooth="yes"/>
      <point x="258" y="300"/>
      <point x="229" y="304"/>
      <point x="202" y="304" type="curve" smooth="yes"/>
      <point x="165.278" y="304"/>
      <point x="126.726" y="286.891"/>
      <point x="117" y="286.891" type="curve" smooth="yes"/>
      <point x="111.487" y="286.891"/>
      <point x="106.186" y="291.667"/>
      <point x="106.186" y="297" type="curve" smooth="yes"/>
      <point x="106.186" y="299.398"/>
      <point x="107.813" y="301.876"/>
      <point x="111" y="304" type="curve"/>
      <point x="111" y="304"/>
      <point x="289" y="436"/>
      <point x="289" y="516" type="curve" smooth="yes"/>
      <point x="289" y="567"/>
      <point x="258" y="598"/>
      <point x="210" y="598" type="curve" smooth="yes"/>
      <point x="163" y="598"/>
      <point x="106" y="568"/>
    </contour>
  </outline>
</glyph>
<glyph name="four" format="1">
  <advance width="480"/>
  <unicode hex="0034"/>
  <outline>
    <contour>
      <point x="304" y="0" type="curve"/>
      <point x="358" y="0" type="line"/>
      <point x="363" y="0"/>
      <point x="364" y="3"/>
      <point x="364" y="8" type="curve"/>
      <point x="364" y="278" type="line"/>
      <point x="443" y="278" type="line"/>
      <point x="438" y="283"/>
      <point x="435" y="290"/>
      <point x="435" y="302" type="curve" smooth="yes"/>
      <point x="435" y="314"/>
      <point x="438" y="322"/>
      <point x="445" y="329" type="curve"/>
      <point x="421" y="324"/>
      <point x="398" y="321"/>
      <point x="366" y="321" type="curve"/>
      <point x="366" y="628" type="line"/>
      <point x="366" y="638"/>
      <point x="359" y="642"/>
      <point x="351" y="642" type="curve" smooth="yes"/>
      <point x="342" y="642"/>
      <point x="331" y="637"/>
      <point x="326" y="628" type="curve" smooth="yes"/>
      <point x="260" y="510"/>
      <point x="168" y="398"/>
      <point x="66" y="296" type="curve" smooth="yes"/>
      <point x="63" y="293"/>
      <point x="61" y="289"/>
      <point x="61" y="285" type="curve" smooth="yes"/>
      <point x="61" y="281"/>
      <point x="65" y="278"/>
      <point x="69" y="278" type="curve" smooth="yes"/>
      <point x="82" y="278"/>
      <point x="282" y="278"/>
      <point x="298" y="278" type="curve"/>
      <point x="298" y="6" type="line"/>
      <point x="298" y="2"/>
      <point x="299" y="0"/>
    </contour>
    <contour>
      <point x="298" y="319" type="line"/>
      <point x="289" y="319"/>
      <point x="271" y="319"/>
      <point x="249" y="320" type="curve" smooth="yes"/>
      <point x="222" y="321"/>
      <point x="168" y="322"/>
      <point x="134" y="322" type="curve"/>
      <point x="184" y="381"/>
      <point x="248" y="464"/>
      <point x="298" y="539" type="curve"/>
    </contour>
  </outline>
</glyph>
<glyph name="five" format="1">
  <advance width="480"/>
  <unicode hex="0035"/>
  <outline>
    <contour>
      <point x="215" y="-5" type="curve" smooth="yes"/>
      <point x="336" y="-5"/>
      <point x="427" y="98"/>
      <point x="427" y="207" type="curve" smooth="yes"/>
      <point x="427" y="331"/>
      <point x="343" y="403"/>
      <point x="234" y="403" type="curve" smooth="yes"/>
      <point x="190" y="403"/>
      <point x="143" y="391"/>
      <point x="95" y="366" type="curve"/>
      <point x="142" y="556" type="line"/>
      <point x="403" y="556" type="line"/>
      <point x="409" y="571"/>
      <point x="423" y="607"/>
      <point x="423" y="611" type="curve" smooth="yes"/>
      <point x="423" y="615"/>
      <point x="417" y="618"/>
      <point x="411" y="618" type="curve" smooth="yes"/>
      <point x="409" y="618"/>
      <point x="394" y="616"/>
      <point x="379" y="614" type="curve" smooth="yes"/>
      <point x="367" y="612"/>
      <point x="354" y="611"/>
      <point x="349" y="611" type="curve" smooth="yes"/>
      <point x="130" y="611" type="line"/>
      <point x="54" y="292" type="line"/>
      <point x="112" y="321"/>
      <point x="164" y="334"/>
      <point x="208" y="334" type="curve" smooth="yes"/>
      <point x="307" y="334"/>
      <point x="367" y="271"/>
      <point x="367" y="187" type="curve" smooth="yes"/>
      <point x="367" y="116"/>
      <point x="312" y="29"/>
      <point x="208" y="29" type="curve" smooth="yes"/>
      <point x="170" y="29"/>
      <point x="105" y="37"/>
      <point x="73" y="70" type="curve"/>
      <point x="72" y="71"/>
      <point x="70" y="72"/>
      <point x="68" y="72" type="curve" smooth="yes"/>
      <point x="62" y="72"/>
      <point x="56" y="65"/>
      <point x="56" y="58" type="curve" smooth="yes"/>
      <point x="56" y="55"/>
      <point x="57" y="52"/>
      <point x="59" y="50" type="curve"/>
      <point x="108" y="0"/>
      <point x="171" y="-5"/>
    </contour>
  </outline>
</glyph>
<glyph name="six" format="1">
  <advance width="528"/>
  <unicode hex="0036"/>
  <outline>
    <contour>
      <point x="397" y="608" type="curve" smooth="yes"/>
      <point x="362" y="599"/>
      <point x="308.478" y="579.341"/>
      <point x="259" y="544" type="curve" smooth="yes"/>
      <point x="168" y="479"/>
      <point x="124" y="367"/>
      <point x="124" y="255" type="curve" smooth="yes"/>
      <point x="124" y="154"/>
      <point x="167" y="17"/>
      <point x="269" y="17" type="curve" smooth="yes"/>
      <point x="358" y="17"/>
      <point x="415" y="82"/>
      <point x="415" y="192" type="curve" smooth="yes"/>
      <point x="415" y="304"/>
      <point x="351" y="347"/>
      <point x="277" y="347" type="curve" smooth="yes"/>
      <point x="223" y="347"/>
      <point x="193" y="322"/>
      <point x="172" y="298" type="curve" smooth="yes"/>
      <point x="168.101" y="293.801"/>
      <point x="164.68" y="292.798"/>
      <point x="162" y="292.798" type="curve" smooth="yes"/>
      <point x="158.131" y="292.798"/>
      <point x="155.804" y="297.76"/>
      <point x="155.804" y="303" type="curve" smooth="yes"/>
      <point x="155.804" y="306.233"/>
      <point x="156.863" y="309.795"/>
      <point x="159" y="313" type="curve" smooth="yes"/>
      <point x="181" y="345"/>
      <point x="219" y="400"/>
      <point x="308" y="400" type="curve" smooth="yes"/>
      <point x="382" y="400"/>
      <point x="478" y="349"/>
      <point x="478" y="204" type="curve" smooth="yes"/>
      <point x="478" y="93"/>
      <point x="395" y="-8"/>
      <point x="268" y="-8" type="curve" smooth="yes"/>
      <point x="148" y="-8"/>
      <point x="53" y="113"/>
      <point x="53" y="251" type="curve" smooth="yes"/>
      <point x="53" y="409"/>
      <point x="139" y="504"/>
      <point x="207" y="556" type="curve" smooth="yes"/>
      <point x="259" y="596"/>
      <point x="352" y="627"/>
      <point x="401" y="637" type="curve"/>
      <point x="401" y="637"/>
      <point x="406.187" y="628.092"/>
      <point x="406.187" y="620" type="curve" smooth="yes"/>
      <point x="406.187" y="614.809"/>
      <point x="404.034" y="609.954"/>
    </contour>
  </outline>
</glyph>
<glyph name="seven" format="1">
  <advance width="456"/>
  <unicode hex="0037"/>
  <outline>
    <contour>
      <point x="354.085" y="562" type="curve"/>
      <point x="86.085" y="562" type="line" smooth="yes"/>
      <point x="70.085" y="562"/>
      <point x="59.085" y="546"/>
      <point x="59.085" y="546" type="curve" smooth="yes"/>
      <point x="53.085" y="546"/>
      <point x="46.085" y="553"/>
      <point x="46.085" y="553" type="curve" smooth="yes"/>
      <point x="59.085" y="612" type="line" smooth="yes"/>
      <point x="61.085" y="617"/>
      <point x="67.085" y="622"/>
      <point x="73.085" y="622" type="curve" smooth="yes"/>
      <point x="352.085" y="622" type="line"/>
      <point x="414.085" y="622" type="line" smooth="yes"/>
      <point x="420.085" y="622"/>
      <point x="424.085" y="618"/>
      <point x="424.085" y="612" type="curve"/>
      <point x="417.085" y="596" type="line"/>
      <point x="296.085" y="413"/>
      <point x="187.085" y="166"/>
      <point x="162.085" y="0" type="curve"/>
      <point x="100.085" y="0" type="line"/>
      <point x="125.085" y="165"/>
      <point x="250.085" y="413"/>
    </contour>
  </outline>
</glyph>
<glyph name="eight" format="1">
  <advance width="475"/>
  <unicode hex="0038"/>
  <outline>
    <contour>
      <point x="242" y="16" type="curve" smooth="yes"/>
      <point x="315" y="16"/>
      <point x="370" y="85"/>
      <point x="370" y="142" type="curve" smooth="yes"/>
      <point x="370" y="213.412"/>
      <point x="290.502" y="284.135"/>
      <point x="220" y="329" type="curve"/>
      <point x="147" y="266"/>
      <point x="116" y="223"/>
      <point x="116" y="147" type="curve" smooth="yes"/>
      <point x="116" y="68"/>
      <point x="168" y="16"/>
    </contour>
    <contour>
      <point x="251" y="378" type="curve"/>
      <point x="285" y="412"/>
      <point x="348" y="465"/>
      <point x="348" y="516" type="curve" smooth="yes"/>
      <point x="348" y="561"/>
      <point x="306" y="623"/>
      <point x="242" y="623" type="curve" smooth="yes"/>
      <point x="159" y="623"/>
      <point x="142" y="563"/>
      <point x="142" y="521" type="curve" smooth="yes"/>
      <point x="142" y="446"/>
      <point x="196" y="416"/>
    </contour>
    <contour>
      <point x="274" y="367" type="curve"/>
      <point x="276" y="365"/>
      <point x="278.737" y="363.697"/>
      <point x="281" y="362" type="curve" smooth="yes"/>
      <point x="361" y="302"/>
      <point x="429" y="242"/>
      <point x="429" y="143" type="curve" smooth="yes"/>
      <point x="429" y="76"/>
      <point x="350" y="-8"/>
      <point x="241" y="-8" type="curve" smooth="yes"/>
      <point x="151" y="-8"/>
      <point x="49" y="51"/>
      <point x="49" y="146" type="curve" smooth="yes"/>
      <point x="49" y="225"/>
      <point x="114" y="277"/>
      <point x="194" y="341" type="curve"/>
      <point x="135" y="383"/>
      <point x="79" y="422"/>
      <point x="79" y="520" type="curve" smooth="yes"/>
      <point x="79" y="564"/>
      <point x="116" y="643"/>
      <point x="242" y="643" type="curve" smooth="yes"/>
      <point x="322" y="643"/>
      <point x="397" y="588"/>
      <point x="397" y="518" type="curve" smooth="yes"/>
      <point x="397" y="454"/>
      <point x="318" y="406"/>
    </contour>
  </outline>
</glyph>
<glyph name="nine" format="1">
  <advance width="480"/>
  <unicode hex="0039"/>
  <outline>
    <contour>
      <point x="123" y="11" type="curve" smooth="yes"/>
      <point x="156" y="22"/>
      <point x="198" y="47"/>
      <point x="245" y="84" type="curve" smooth="yes"/>
      <point x="335" y="152"/>
      <point x="381" y="248"/>
      <point x="381" y="377" type="curve" smooth="yes"/>
      <point x="381" y="509"/>
      <point x="342" y="616"/>
      <point x="229" y="616" type="curve" smooth="yes"/>
      <point x="154" y="616"/>
      <point x="103" y="569"/>
      <point x="103" y="461" type="curve" smooth="yes"/>
      <point x="103" y="364"/>
      <point x="153" y="297"/>
      <point x="215" y="297" type="curve" smooth="yes"/>
      <point x="266" y="297"/>
      <point x="311" y="323"/>
      <point x="331" y="347" type="curve" smooth="yes"/>
      <point x="334.49" y="350.759"/>
      <point x="337.549" y="352.27"/>
      <point x="340" y="352.27" type="curve" smooth="yes"/>
      <point x="343.727" y="352.27"/>
      <point x="347.36" y="348.689"/>
      <point x="347.36" y="344" type="curve" smooth="yes"/>
      <point x="347.36" y="340.287"/>
      <point x="345.586" y="335.879"/>
      <point x="343" y="332" type="curve" smooth="yes"/>
      <point x="321" y="300"/>
      <point x="284" y="253"/>
      <point x="201" y="253" type="curve" smooth="yes"/>
      <point x="131" y="253"/>
      <point x="42" y="304"/>
      <point x="42" y="449" type="curve" smooth="yes"/>
      <point x="42" y="561"/>
      <point x="133" y="641"/>
      <point x="230" y="641" type="curve" smooth="yes"/>
      <point x="361" y="641"/>
      <point x="442" y="556"/>
      <point x="442" y="381" type="curve" smooth="yes"/>
      <point x="442" y="201"/>
      <point x="353" y="127"/>
      <point x="288" y="74" type="curve" smooth="yes"/>
      <point x="238" y="34"/>
      <point x="164" y="-3"/>
      <point x="118" y="-15" type="curve"/>
      <point x="118" y="-15"/>
      <point x="113.908" y="-7.21777"/>
      <point x="113.908" y="0" type="curve" smooth="yes"/>
      <point x="113.908" y="4.63867"/>
      <point x="116.349" y="9.04395"/>
    </contour>
  </outline>
</glyph>
<glyph name="colon" format="1">
  <advance width="228"/>
  <unicode hex="003A"/>
  <outline>
    <contour>
      <point x="61" y="40" type="curve" smooth="yes"/>
      <point x="61" y="68"/>
      <point x="84" y="91"/>
      <point x="113" y="91" type="curve" smooth="yes"/>
      <point x="141" y="91"/>
      <point x="164" y="68"/>
      <point x="164" y="40" type="curve" smooth="yes"/>
      <point x="164" y="12"/>
      <point x="141" y="-11"/>
      <point x="113" y="-11" type="curve" smooth="yes"/>
      <point x="84" y="-11"/>
      <point x="61" y="12"/>
    </contour>
    <contour>
      <point x="61" y="406" type="curve" smooth="yes"/>
      <point x="61" y="434"/>
      <point x="84" y="457"/>
      <point x="113" y="457" type="curve" smooth="yes"/>
      <point x="141" y="457"/>
      <point x="164" y="434"/>
      <point x="164" y="406" type="curve" smooth="yes"/>
      <point x="164" y="377"/>
      <point x="141" y="355"/>
      <point x="113" y="355" type="curve" smooth="yes"/>
      <point x="84" y="355"/>
      <point x="61" y="377"/>
    </contour>
  </outline>
</glyph>
<glyph name="semicolon" format="1">
  <advance width="238"/>
  <unicode hex="003B"/>
  <outline>
    <contour>
      <point x="68" y="406" type="curve" smooth="yes"/>
      <point x="68" y="434"/>
      <point x="91" y="457"/>
      <point x="120" y="457" type="curve" smooth="yes"/>
      <point x="148" y="457"/>
      <point x="171" y="434"/>
      <point x="171" y="406" type="curve" smooth="yes"/>
      <point x="171" y="377"/>
      <point x="148" y="355"/>
      <point x="120" y="355" type="curve" smooth="yes"/>
      <point x="91" y="355"/>
      <point x="68" y="377"/>
    </contour>
    <contour>
      <point x="68" y="38" type="curve" smooth="yes"/>
      <point x="68" y="66"/>
      <point x="95" y="91"/>
      <point x="124" y="91" type="curve" smooth="yes"/>
      <point x="154" y="91"/>
      <point x="176" y="66"/>
      <point x="176" y="41" type="curve" smooth="yes"/>
      <point x="176" y="40" type="line" smooth="yes"/>
      <point x="176" y="-27"/>
      <point x="147" y="-63"/>
      <point x="109" y="-73" type="curve" smooth="yes"/>
      <point x="98" y="-76"/>
      <point x="87" y="-77"/>
      <point x="80" y="-77" type="curve" smooth="yes"/>
      <point x="69" y="-77"/>
      <point x="63" y="-77"/>
      <point x="63" y="-77" type="curve"/>
      <point x="57" y="-67" type="line"/>
      <point x="69" y="-67"/>
      <point x="92" y="-59"/>
      <point x="102" y="-45" type="curve" smooth="yes"/>
      <point x="106" y="-39"/>
      <point x="109" y="-33"/>
      <point x="109" y="-27" type="curve" smooth="yes"/>
      <point x="109" y="-21"/>
      <point x="106" y="-16"/>
      <point x="101" y="-11" type="curve" smooth="yes"/>
      <point x="83" y="6"/>
      <point x="68" y="10"/>
    </contour>
  </outline>
</glyph>
<glyph name="less" format="1">
  <advance width="468"/>
  <unicode hex="003C"/>
  <outline>
    <contour>
      <point x="140.2" y="324" type="line"/>
      <point x="421" y="162" type="line"/>
      <point x="421" y="94" type="line"/>
      <point x="33" y="314" type="line"/>
      <point x="33" y="330" type="line"/>
      <point x="421" y="550" type="line"/>
      <point x="421" y="486" type="line"/>
    </contour>
  </outline>
</glyph>
<glyph name="equal" format="1">
  <advance width="401"/>
  <unicode hex="003D"/>
  <outline>
    <contour>
      <point x="76" y="326" type="line"/>
      <point x="70" y="328"/>
      <point x="67" y="339"/>
      <point x="67" y="350" type="curve" smooth="yes"/>
      <point x="67" y="361"/>
      <point x="70" y="370"/>
      <point x="76" y="370" type="curve"/>
      <point x="329" y="370" type="line"/>
      <point x="333" y="370"/>
      <point x="335" y="357"/>
      <point x="335" y="345" type="curve" smooth="yes"/>
      <point x="335" y="335"/>
      <point x="334" y="326"/>
      <point x="329" y="326" type="curve"/>
    </contour>
    <contour>
      <point x="76" y="226" type="line"/>
      <point x="70" y="228"/>
      <point x="67" y="239"/>
      <point x="67" y="250" type="curve" smooth="yes"/>
      <point x="67" y="261"/>
      <point x="70" y="270"/>
      <point x="76" y="270" type="curve"/>
      <point x="329" y="270" type="line"/>
      <point x="333" y="270"/>
      <point x="335" y="257"/>
      <point x="335" y="245" type="curve" smooth="yes"/>
      <point x="335" y="235"/>
      <point x="334" y="226"/>
      <point x="329" y="226" type="curve"/>
    </contour>
  </outline>
</glyph>
<glyph name="greater" format="1">
  <advance width="484"/>
  <unicode hex="003E"/>
  <outline>
    <contour>
      <point x="331.8" y="324" type="line"/>
      <point x="51" y="486" type="line"/>
      <point x="51" y="550" type="line"/>
      <point x="439" y="330" type="line"/>
      <point x="439" y="314" type="line"/>
      <point x="51" y="94" type="line"/>
      <point x="51" y="162" type="line"/>
    </contour>
  </outline>
</glyph>
<glyph name="question" format="1">
  <advance width="462"/>
  <unicode hex="003F"/>
  <outline>
    <contour>
      <point x="189" y="200" type="line"/>
      <point x="183.93" y="246.323"/>
      <point x="174.08" y="341"/>
      <point x="174.08" y="341" type="curve" smooth="yes"/>
      <point x="174.08" y="390.574"/>
      <point x="222.614" y="427.193"/>
      <point x="259" y="460" type="curve" smooth="yes"/>
      <point x="320" y="515"/>
      <point x="357" y="532"/>
      <point x="357" y="593" type="curve" smooth="yes"/>
      <point x="357" y="661"/>
      <point x="279.444" y="699"/>
      <point x="221.444" y="699" type="curve" smooth="yes"/>
      <point x="160.444" y="699"/>
      <point x="121.444" y="660"/>
      <point x="116.444" y="638" type="curve" smooth="yes"/>
      <point x="110.644" y="612.478"/>
      <point x="93.4443" y="599"/>
      <point x="76.4443" y="599" type="curve" smooth="yes"/>
      <point x="57.0095" y="599"/>
      <point x="46.801" y="612.844"/>
      <point x="46.801" y="635" type="curve" smooth="yes"/>
      <point x="46.801" y="686.63"/>
      <point x="146.063" y="735.333"/>
      <point x="223.444" y="735.333" type="curve" smooth="yes"/>
      <point x="308.444" y="735.333"/>
      <point x="404.444" y="678"/>
      <point x="404.444" y="569" type="curve" smooth="yes"/>
      <point x="404.444" y="493"/>
      <point x="369.229" y="474.667"/>
      <point x="314" y="432" type="curve" smooth="yes"/>
      <point x="278.159" y="404.312"/>
      <point x="242" y="366"/>
      <point x="241" y="349" type="curve"/>
      <point x="241" y="200" type="line"/>
    </contour>
    <contour>
      <point x="164.444" y="47" type="curve" smooth="yes"/>
      <point x="164.444" y="75"/>
      <point x="187.444" y="98"/>
      <point x="216.444" y="98" type="curve" smooth="yes"/>
      <point x="244.444" y="98"/>
      <point x="267.444" y="75"/>
      <point x="267.444" y="47" type="curve" smooth="yes"/>
      <point x="267.444" y="19"/>
      <point x="244.444" y="-4"/>
      <point x="216.444" y="-4" type="curve" smooth="yes"/>
      <point x="187.444" y="-4"/>
      <point x="164.444" y="19"/>
    </contour>
  </outline>
</glyph>
<glyph name="at" format="1">
  <advance width="766"/>
  <unicode hex="0040"/>
  <outline>
    <contour>
      <point x="396.399" y="-14.4502" type="curve" smooth="yes"/>
      <point x="510.5" y="-14.4502"/>
      <point x="582.6" y="22.6504"/>
      <point x="615.5" y="52.999" type="curve"/>
      <point x="625" y="52.999"/>
      <point x="636.311" y="44.9893"/>
      <point x="636.311" y="37" type="curve" smooth="yes"/>
      <point x="636.311" y="34.8135"/>
      <point x="635.416" y="32.6553"/>
      <point x="633.388" y="30.7119" type="curve" smooth="yes"/>
      <point x="599.399" y="-1.84961"/>
      <point x="535.7" y="-53.9473"/>
      <point x="396.399" y="-53.9473" type="curve" smooth="yes"/>
      <point x="271.023" y="-53.9473"/>
      <point x="76.1514" y="6.57715"/>
      <point x="76.1514" y="221.45" type="curve" smooth="yes"/>
      <point x="76.1514" y="398.098"/>
      <point x="209.058" y="532.947"/>
      <point x="437.1" y="532.947" type="curve" smooth="yes"/>
      <point x="583.3" y="532.947"/>
      <point x="716.848" y="424.857"/>
      <point x="716.848" y="266.25" type="curve" smooth="yes"/>
      <point x="716.848" y="158.057"/>
      <point x="625.5" y="77.1016"/>
      <point x="499.6" y="77.1016" type="curve" smooth="yes"/>
      <point x="466.646" y="77.1016"/>
      <point x="468.5" y="108.75"/>
      <point x="459.399" y="108.75" type="curve" smooth="yes"/>
      <point x="446.081" y="108.75"/>
      <point x="416.566" y="72.8496"/>
      <point x="358.6" y="72.8496" type="curve" smooth="yes"/>
      <point x="282.941" y="72.8496"/>
      <point x="229.3" y="121.35"/>
      <point x="229.3" y="189.95" type="curve" smooth="yes"/>
      <point x="229.3" y="330.55"/>
      <point x="349.8" y="392.599"/>
      <point x="437.301" y="392.599" type="curve" smooth="yes"/>
      <point x="466.195" y="392.599"/>
      <point x="506.918" y="381.75"/>
      <point x="513.899" y="381.75" type="curve" smooth="yes"/>
      <point x="524.11" y="381.75"/>
      <point x="533.338" y="389.724"/>
      <point x="537" y="394" type="curve"/>
      <point x="548.737" y="393.924"/>
      <point x="555.7" y="389.301"/>
      <point x="562" y="383" type="curve"/>
      <point x="554" y="364"/>
      <point x="547.636" y="337.997"/>
      <point x="543.8" y="304.75" type="curve" smooth="yes"/>
      <point x="511.899" y="140.95" type="line"/>
      <point x="513.343" y="120.803"/>
      <point x="536.886" y="115.05"/>
      <point x="564.399" y="115.05" type="curve" smooth="yes"/>
      <point x="616.325" y="115.05"/>
      <point x="660.351" y="189.477"/>
      <point x="660.351" y="263.25" type="curve" smooth="yes"/>
      <point x="660.351" y="400.331"/>
      <point x="558.899" y="481.45"/>
      <point x="410.1" y="481.45" type="curve" smooth="yes"/>
      <point x="263.377" y="481.45"/>
      <point x="144.648" y="387.631"/>
      <point x="144.648" y="221.45" type="curve" smooth="yes"/>
      <point x="144.648" y="43.0889"/>
      <point x="284.309" y="-14.4502"/>
    </contour>
    <contour>
      <point x="295.8" y="208.85" type="curve" smooth="yes"/>
      <point x="295.8" y="169.594"/>
      <point x="331.97" y="112.95"/>
      <point x="396.399" y="112.95" type="curve" smooth="yes"/>
      <point x="455.913" y="112.95"/>
      <point x="464.923" y="141.87"/>
      <point x="468.5" y="167.55" type="curve" smooth="yes"/>
      <point x="501.1" y="308.25" type="line"/>
      <point x="501.1" y="348.85"/>
      <point x="461.575" y="361.45"/>
      <point x="427.5" y="361.45" type="curve" smooth="yes"/>
      <point x="356.003" y="361.45"/>
      <point x="295.8" y="300.599"/>
    </contour>
  </outline>
</glyph>
<glyph name="A" format="1">
  <advance width="777"/>
  <unicode hex="0041"/>
  <outline>
    <contour>
      <point x="50" y="0" type="line"/>
      <point x="198" y="0" type="line"/>
      <point x="198" y="16" type="line"/>
      <point x="163" y="16"/>
      <point x="148" y="23"/>
      <point x="148" y="38" type="curve" smooth="yes"/>
      <point x="148" y="47"/>
      <point x="150" y="58"/>
      <point x="157" y="74" type="curve" smooth="yes"/>
      <point x="251" y="304" type="line" smooth="yes"/>
      <point x="253" y="308"/>
      <point x="255" y="312"/>
      <point x="261" y="312" type="curve" smooth="yes"/>
      <point x="481" y="312" type="line" smooth="yes"/>
      <point x="485" y="312"/>
      <point x="488" y="306"/>
      <point x="489" y="303" type="curve" smooth="yes"/>
      <point x="586" y="67" type="line" smooth="yes"/>
      <point x="589" y="60"/>
      <point x="590" y="52"/>
      <point x="590" y="47" type="curve" smooth="yes"/>
      <point x="590" y="23"/>
      <point x="569" y="16"/>
      <point x="537" y="16" type="curve"/>
      <point x="537" y="0" type="line"/>
      <point x="724" y="0" type="line"/>
      <point x="724" y="16" type="line"/>
      <point x="697" y="16"/>
      <point x="687" y="19"/>
      <point x="680" y="36" type="curve" smooth="yes"/>
      <point x="399" y="730" type="line"/>
      <point x="393" y="724"/>
      <point x="389" y="722"/>
      <point x="385" y="720" type="curve" smooth="yes"/>
      <point x="381" y="718"/>
      <point x="378" y="716"/>
      <point x="372" y="711" type="curve"/>
      <point x="104" y="55" type="line"/>
      <point x="91" y="22"/>
      <point x="82" y="16"/>
      <point x="50" y="16" type="curve"/>
    </contour>
    <contour>
      <point x="276" y="341" type="line" smooth="yes"/>
      <point x="272" y="341"/>
      <point x="269" y="343"/>
      <point x="269" y="346" type="curve" smooth="yes"/>
      <point x="269" y="347"/>
      <point x="270" y="349"/>
      <point x="271" y="351" type="curve" smooth="yes"/>
      <point x="387" y="635" type="line"/>
      <point x="353" y="635" type="line"/>
      <point x="470" y="349" type="line" smooth="yes"/>
      <point x="471" y="347"/>
      <point x="471" y="347"/>
      <point x="471" y="346" type="curve" smooth="yes"/>
      <point x="471" y="343"/>
      <point x="469" y="341"/>
      <point x="464" y="341" type="curve" smooth="yes"/>
    </contour>
    <contour>
      <point x="383" y="729" type="move" name="top"/>
    </contour>
  </outline>
</glyph>
<glyph name="B" format="1">
  <advance width="601"/>
  <unicode hex="0042"/>
  <outline>
    <contour>
      <point x="335" y="-2" type="curve" smooth="yes"/>
      <point x="471" y="-2"/>
      <point x="552" y="67"/>
      <point x="552" y="185" type="curve" smooth="yes"/>
      <point x="552" y="292"/>
      <point x="460" y="379"/>
      <point x="341" y="384" type="curve"/>
      <point x="442" y="404"/>
      <point x="511" y="470"/>
      <point x="511" y="549" type="curve" smooth="yes"/>
      <point x="511" y="657"/>
      <point x="411" y="734"/>
      <point x="272" y="734" type="curve" smooth="yes"/>
      <point x="208" y="734"/>
      <point x="144" y="730"/>
      <point x="80" y="730" type="curve" smooth="yes"/>
      <point x="71" y="730"/>
      <point x="63" y="730"/>
      <point x="54" y="730" type="curve"/>
      <point x="54" y="714" type="line"/>
      <point x="62" y="714"/>
      <point x="71" y="714"/>
      <point x="78" y="712" type="curve" smooth="yes"/>
      <point x="96" y="707"/>
      <point x="106" y="687"/>
      <point x="106" y="668" type="curve"/>
      <point x="106" y="637"/>
      <point x="108" y="516"/>
      <point x="108" y="403" type="curve" smooth="yes"/>
      <point x="108" y="285"/>
      <point x="106" y="97"/>
      <point x="106" y="49" type="curve" smooth="yes"/>
      <point x="106" y="32"/>
      <point x="94" y="20"/>
      <point x="78" y="18" type="curve" smooth="yes"/>
      <point x="70" y="17"/>
      <point x="62" y="16"/>
      <point x="54" y="16" type="curve"/>
      <point x="54" y="0" type="line"/>
      <point x="134" y="0" type="line" smooth="yes"/>
      <point x="204" y="0"/>
      <point x="264" y="-2"/>
    </contour>
    <contour>
      <point x="257" y="24" type="curve" smooth="yes"/>
      <point x="241" y="24"/>
      <point x="225" y="24"/>
      <point x="209" y="25" type="curve" smooth="yes"/>
      <point x="193" y="27"/>
      <point x="187" y="34"/>
      <point x="187" y="50" type="curve" smooth="yes"/>
      <point x="187" y="356" type="line"/>
      <point x="231" y="358"/>
      <point x="251" y="358"/>
      <point x="262" y="358" type="curve" smooth="yes"/>
      <point x="395" y="358"/>
      <point x="468" y="300"/>
      <point x="468" y="195" type="curve" smooth="yes"/>
      <point x="468" y="80"/>
      <point x="399" y="24"/>
    </contour>
    <contour>
      <point x="233" y="394" type="curve" smooth="yes"/>
      <point x="218" y="394"/>
      <point x="200" y="394"/>
      <point x="187" y="395" type="curve"/>
      <point x="187" y="685" type="line" smooth="yes"/>
      <point x="187" y="697"/>
      <point x="193" y="702"/>
      <point x="204" y="702" type="curve" smooth="yes"/>
      <point x="205" y="702"/>
      <point x="244" y="704"/>
      <point x="260" y="704" type="curve" smooth="yes"/>
      <point x="373" y="704"/>
      <point x="436" y="648"/>
      <point x="436" y="548" type="curve" smooth="yes"/>
      <point x="436" y="457"/>
      <point x="353" y="394"/>
    </contour>
  </outline>
</glyph>
<glyph name="C" format="1">
  <advance width="769"/>
  <unicode hex="0043"/>
  <outline>
    <contour>
      <point x="649" y="657.256" type="curve" smooth="yes"/>
      <point x="673.841" y="657.256"/>
      <point x="671.146" y="683.876"/>
      <point x="684" y="683.876" type="curve" smooth="yes"/>
      <point x="690.995" y="683.876"/>
      <point x="695.84" y="680.017"/>
      <point x="696" y="672" type="curve" smooth="yes"/>
      <point x="700" y="471" type="line"/>
      <point x="700" y="471"/>
      <point x="693.266" y="467.253"/>
      <point x="690.889" y="467.253" type="curve" smooth="yes"/>
      <point x="684.347" y="467.253"/>
      <point x="681.114" y="469.003"/>
      <point x="680.375" y="472" type="curve" smooth="yes"/>
      <point x="655.523" y="572.701"/>
      <point x="575.547" y="704.77"/>
      <point x="404" y="704.77" type="curve" smooth="yes"/>
      <point x="214.871" y="704.77"/>
      <point x="144" y="524.62"/>
      <point x="144" y="385" type="curve" smooth="yes"/>
      <point x="144" y="51.7207"/>
      <point x="334" y="32"/>
      <point x="407" y="32" type="curve" smooth="yes"/>
      <point x="589.14" y="32"/>
      <point x="670.366" y="181.262"/>
      <point x="670.366" y="186" type="curve"/>
      <point x="695" y="178" type="line"/>
      <point x="695" y="178"/>
      <point x="628.833" y="-10"/>
      <point x="399.275" y="-10" type="curve" smooth="yes"/>
      <point x="285.844" y="-10"/>
      <point x="55" y="53"/>
      <point x="55" y="352" type="curve" smooth="yes"/>
      <point x="55" y="553.27"/>
      <point x="160.723" y="742.001"/>
      <point x="418" y="742.001" type="curve" smooth="yes"/>
      <point x="553.556" y="742.001"/>
      <point x="616.017" y="657.256"/>
    </contour>
  </outline>
</glyph>
<glyph name="D" format="1">
  <advance width="776"/>
  <unicode hex="0044"/>
  <outline>
    <contour>
      <point x="78.1943" y="712.013" type="curve" smooth="yes"/>
      <point x="70.2373" y="713.623"/>
      <point x="62.1162" y="714.35"/>
      <point x="53.8232" y="714.46" type="curve"/>
      <point x="53.8232" y="730.335" type="line"/>
      <point x="188.628" y="730.335" type="line"/>
      <point x="188.628" y="730" type="line"/>
      <point x="240.753" y="730.341"/>
      <point x="292.853" y="731.009"/>
      <point x="345" y="731.009" type="curve" smooth="yes"/>
      <point x="536.847" y="731.009"/>
      <point x="709" y="606.675"/>
      <point x="709" y="362.786" type="curve" smooth="yes"/>
      <point x="709" y="122.954"/>
      <point x="556.05" y="-2.53027"/>
      <point x="332.508" y="-2.53027" type="curve" smooth="yes"/>
      <point x="326.103" y="-2.53027" type="line" smooth="yes"/>
      <point x="314.225" y="-2.53027"/>
      <point x="290.628" y="-1.72852"/>
      <point x="290.628" y="-1.72852" type="curve"/>
      <point x="290.628" y="-1.72852"/>
      <point x="192.567" y="0"/>
      <point x="175.628" y="0" type="curve" smooth="yes"/>
      <point x="53.8213" y="0" type="line"/>
      <point x="53.8213" y="15.9473" type="line"/>
      <point x="62.1133" y="16.0586"/>
      <point x="70.2354" y="16.7832"/>
      <point x="78.1914" y="18.3955" type="curve" smooth="yes"/>
      <point x="97.2939" y="22.2656"/>
      <point x="106.062" y="35.2354"/>
      <point x="106.062" y="48.5195" type="curve"/>
      <point x="106.072" y="48.5195" type="line"/>
      <point x="107.72" y="166.42"/>
      <point x="108.938" y="284.277"/>
      <point x="108.938" y="402" type="curve" smooth="yes"/>
      <point x="108.938" y="495.395"/>
      <point x="108.11" y="588.706"/>
      <point x="106.079" y="681.889" type="curve"/>
      <point x="106.064" y="681.889" type="line"/>
      <point x="106.064" y="694.819"/>
      <point x="97.2979" y="708.146"/>
    </contour>
    <contour>
      <point x="188.628" y="678.889" type="line" smooth="yes"/>
      <point x="187.628" y="50" type="line"/>
      <point x="188.603" y="34.333"/>
      <point x="191.664" y="30.4513"/>
      <point x="204.628" y="29.4824" type="curve"/>
      <point x="289.628" y="29.6865" type="line" smooth="yes"/>
      <point x="289.628" y="29.6865"/>
      <point x="302.544" y="30.1582"/>
      <point x="309.244" y="30.1582" type="curve" smooth="yes"/>
      <point x="541.952" y="30.1582"/>
      <point x="621.35" y="186.39"/>
      <point x="621.35" y="352.71" type="curve" smooth="yes"/>
      <point x="621.35" y="622.194"/>
      <point x="472.984" y="695.54"/>
      <point x="305.706" y="695.54" type="curve" smooth="yes"/>
      <point x="295.868" y="695.54"/>
      <point x="255.02" y="696.018"/>
      <point x="236" y="696.018" type="curve" smooth="yes"/>
      <point x="225.988" y="696.018"/>
      <point x="200.782" y="695.561"/>
      <point x="200.628" y="695.56" type="curve" smooth="yes"/>
      <point x="192.611" y="695.441"/>
      <point x="188.628" y="690.006"/>
      <point x="188.628" y="684" type="curve" smooth="yes"/>
    </contour>
  </outline>
</glyph>
<glyph name="E" format="1">
  <advance width="566"/>
  <unicode hex="0045"/>
  <outline>
    <contour>
      <point x="384.936" y="372.53" type="curve" smooth="yes"/>
      <point x="355.268" y="375.43"/>
      <point x="325.75" y="379"/>
      <point x="292" y="379" type="curve" smooth="yes"/>
      <point x="259.083" y="379"/>
      <point x="217.373" y="375.911"/>
      <point x="188.469" y="373.353" type="curve"/>
      <point x="191.81" y="54.5195" type="line" smooth="yes"/>
      <point x="191.81" y="41.2354"/>
      <point x="200.326" y="26.709"/>
      <point x="219.68" y="24.3945" type="curve" smooth="yes"/>
      <point x="238.604" y="22.1309"/>
      <point x="248.912" y="20.9922"/>
      <point x="267" y="20.9922" type="curve" smooth="yes"/>
      <point x="329.022" y="20.9922"/>
      <point x="379.017" y="21.7451"/>
      <point x="422" y="32.1973" type="curve" smooth="yes"/>
      <point x="483.117" y="47.0596"/>
      <point x="510.467" y="78.5303"/>
      <point x="523" y="139.014" type="curve"/>
      <point x="539" y="140" type="line"/>
      <point x="522" y="0" type="line"/>
      <point x="244.05" y="0" type="line" smooth="yes"/>
      <point x="51" y="0" type="line"/>
      <point x="51" y="15.9473" type="line"/>
      <point x="61.333" y="16.0586"/>
      <point x="71.5264" y="16.3994"/>
      <point x="81.3711" y="18.3945" type="curve" smooth="yes"/>
      <point x="100.474" y="22.2656"/>
      <point x="109.104" y="35.2363"/>
      <point x="109.241" y="48.5195" type="curve"/>
      <point x="110.905" y="66.5795"/>
      <point x="112.292" y="246.676"/>
      <point x="112.292" y="411" type="curve" smooth="yes"/>
      <point x="112.292" y="538.392"/>
      <point x="111.452" y="656.304"/>
      <point x="109.258" y="681.888" type="curve" smooth="yes"/>
      <point x="109.092" y="694.817"/>
      <point x="100.478" y="708.146"/>
      <point x="81.374" y="712.012" type="curve" smooth="yes"/>
      <point x="73.417" y="713.622"/>
      <point x="65.2949" y="714.349"/>
      <point x="57.0029" y="714.458" type="curve"/>
      <point x="57.0029" y="730.333" type="line"/>
      <point x="252.047" y="730.333" type="line"/>
      <point x="252.047" y="730" type="line"/>
      <point x="487.509" y="730" type="line"/>
      <point x="504.509" y="590" type="line"/>
      <point x="488.509" y="590.986" type="line"/>
      <point x="475.976" y="651.47"/>
      <point x="447.531" y="679.001"/>
      <point x="387.509" y="697.803" type="curve" smooth="yes"/>
      <point x="354.458" y="708.155"/>
      <point x="317.19" y="709"/>
      <point x="269.509" y="709" type="curve" smooth="yes"/>
      <point x="249.509" y="709"/>
      <point x="239.135" y="707.991"/>
      <point x="219.188" y="705.605" type="curve" smooth="yes"/>
      <point x="202.514" y="703.611"/>
      <point x="191.962" y="692.576"/>
      <point x="191.813" y="681.031" type="curve" smooth="yes"/>
      <point x="188.372" y="413.077" type="line"/>
      <point x="217.699" y="410.792"/>
      <point x="260.067" y="408"/>
      <point x="292" y="408" type="curve" smooth="yes"/>
      <point x="329.127" y="408"/>
      <point x="357.702" y="410.864"/>
      <point x="387.988" y="413.659" type="curve" smooth="yes"/>
      <point x="400.186" y="416.343"/>
      <point x="411.179" y="427.029"/>
      <point x="414.799" y="442.152" type="curve" smooth="yes"/>
      <point x="417.234" y="451.186"/>
      <point x="416.413" y="465.422"/>
      <point x="417.246" y="466.521" type="curve" smooth="yes"/>
      <point x="433.121" y="466.521" type="line"/>
      <point x="433.121" y="319.025" type="line"/>
      <point x="417.246" y="319.025" type="line" smooth="yes"/>
      <point x="416.413" y="320.124"/>
      <point x="417.234" y="331.186"/>
      <point x="414.799" y="343.396" type="curve" smooth="yes"/>
      <point x="412.293" y="360.951"/>
      <point x="394.409" y="370.352"/>
    </contour>
  </outline>
</glyph>
<glyph name="F" format="1">
  <advance width="579"/>
  <unicode hex="0046"/>
  <outline>
    <contour>
      <point x="56" y="0" type="line"/>
      <point x="249" y="0" type="line"/>
      <point x="249" y="16" type="line"/>
      <point x="237" y="16"/>
      <point x="227" y="16"/>
      <point x="216" y="20" type="curve" smooth="yes"/>
      <point x="199" y="26"/>
      <point x="191" y="37"/>
      <point x="191" y="49" type="curve" smooth="yes"/>
      <point x="188" y="355" type="line"/>
      <point x="231" y="359"/>
      <point x="274" y="361"/>
      <point x="309" y="361" type="curve" smooth="yes"/>
      <point x="344" y="361"/>
      <point x="372" y="359"/>
      <point x="385" y="355" type="curve" smooth="yes"/>
      <point x="401" y="350"/>
      <point x="414" y="338"/>
      <point x="415" y="325" type="curve" smooth="yes"/>
      <point x="416" y="313"/>
      <point x="416" y="305"/>
      <point x="416" y="301" type="curve"/>
      <point x="432" y="301" type="line"/>
      <point x="432" y="449" type="line"/>
      <point x="416" y="449" type="line"/>
      <point x="416" y="447"/>
      <point x="416" y="433"/>
      <point x="414" y="424" type="curve" smooth="yes"/>
      <point x="411" y="409"/>
      <point x="399" y="397"/>
      <point x="387" y="396" type="curve" smooth="yes"/>
      <point x="347" y="392"/>
      <point x="319" y="390"/>
      <point x="287" y="390" type="curve" smooth="yes"/>
      <point x="259" y="390"/>
      <point x="229" y="392"/>
      <point x="188" y="395" type="curve"/>
      <point x="191" y="676" type="line" smooth="yes"/>
      <point x="191" y="692"/>
      <point x="202" y="704"/>
      <point x="219" y="706" type="curve" smooth="yes"/>
      <point x="239" y="708"/>
      <point x="249" y="709"/>
      <point x="269" y="709" type="curve" smooth="yes"/>
      <point x="345" y="709"/>
      <point x="382" y="706"/>
      <point x="416" y="698" type="curve" smooth="yes"/>
      <point x="476" y="683"/>
      <point x="504" y="654"/>
      <point x="517" y="591" type="curve"/>
      <point x="533" y="590" type="line"/>
      <point x="516" y="730" type="line"/>
      <point x="50" y="730" type="line"/>
      <point x="50" y="714" type="line"/>
      <point x="60" y="714"/>
      <point x="71" y="714"/>
      <point x="80" y="712" type="curve" smooth="yes"/>
      <point x="99" y="708"/>
      <point x="107" y="695"/>
      <point x="108" y="682" type="curve" smooth="yes"/>
      <point x="110" y="656"/>
      <point x="111" y="530"/>
      <point x="111" y="396" type="curve" smooth="yes"/>
      <point x="111" y="237"/>
      <point x="110" y="68"/>
      <point x="108" y="49" type="curve" smooth="yes"/>
      <point x="107" y="37"/>
      <point x="99" y="23"/>
      <point x="80" y="18" type="curve" smooth="yes"/>
      <point x="72" y="16"/>
      <point x="64" y="16"/>
      <point x="56" y="16" type="curve"/>
    </contour>
  </outline>
</glyph>
<glyph name="G" format="1">
  <advance width="795"/>
  <unicode hex="0047"/>
  <outline>
    <contour>
      <point x="725.479" y="283.348" type="curve" smooth="yes"/>
      <point x="706.378" y="279.478"/>
      <point x="698.021" y="266.143"/>
      <point x="697.61" y="253.224" type="curve" smooth="yes"/>
      <point x="694" y="165.738" type="line"/>
      <point x="694" y="140.616"/>
      <point x="686.355" y="134.963"/>
      <point x="671" y="113.08" type="curve" smooth="yes"/>
      <point x="632.685" y="58.4772"/>
      <point x="546.361" y="-10.0074"/>
      <point x="411" y="-10.0074" type="curve" smooth="yes"/>
      <point x="290.502" y="-10.0074"/>
      <point x="55" y="52.0523"/>
      <point x="55" y="352" type="curve" smooth="yes"/>
      <point x="55" y="553.27"/>
      <point x="160.723" y="742.001"/>
      <point x="418" y="742.001" type="curve" smooth="yes"/>
      <point x="553.556" y="742.001"/>
      <point x="616.017" y="657.256"/>
      <point x="649" y="657.256" type="curve" smooth="yes"/>
      <point x="674.482" y="657.256"/>
      <point x="670.606" y="683.903"/>
      <point x="685" y="683.903" type="curve" smooth="yes"/>
      <point x="691.332" y="683.903"/>
      <point x="695.775" y="679.431"/>
      <point x="696" y="673" type="curve" smooth="yes"/>
      <point x="700" y="471" type="line"/>
      <point x="700" y="471"/>
      <point x="693.266" y="467.253"/>
      <point x="690.889" y="467.253" type="curve" smooth="yes"/>
      <point x="684.347" y="467.253"/>
      <point x="681.114" y="469.003"/>
      <point x="680.375" y="472" type="curve" smooth="yes"/>
      <point x="655.523" y="572.701"/>
      <point x="575.547" y="704.77"/>
      <point x="404" y="704.77" type="curve" smooth="yes"/>
      <point x="214.871" y="704.77"/>
      <point x="144" y="524.62"/>
      <point x="144" y="385" type="curve" smooth="yes"/>
      <point x="144" y="51.7207"/>
      <point x="341" y="32"/>
      <point x="414" y="32" type="curve" smooth="yes"/>
      <point x="504.094" y="32"/>
      <point x="627.545" y="95"/>
      <point x="627.545" y="168.284" type="curve"/>
      <point x="625.048" y="253.224" type="line" smooth="yes"/>
      <point x="624.83" y="266.151"/>
      <point x="616.281" y="279.481"/>
      <point x="597.178" y="283.348" type="curve" smooth="yes"/>
      <point x="589.221" y="284.958"/>
      <point x="581.099" y="285.685"/>
      <point x="572.807" y="285.794" type="curve"/>
      <point x="572.807" y="301.669" type="line"/>
      <point x="749.851" y="301.669" type="line"/>
      <point x="749.851" y="285.794" type="line"/>
      <point x="741.558" y="285.685"/>
      <point x="733.437" y="284.96"/>
    </contour>
  </outline>
</glyph>
<glyph name="I" format="1">
  <advance width="291"/>
  <unicode hex="0049"/>
  <outline>
    <contour>
      <point x="54" y="0" type="line"/>
      <point x="241" y="0" type="line"/>
      <point x="241" y="16" type="line"/>
      <point x="233" y="16"/>
      <point x="225" y="17"/>
      <point x="217" y="18" type="curve" smooth="yes"/>
      <point x="198" y="20"/>
      <point x="189" y="36"/>
      <point x="189" y="49" type="curve" smooth="yes"/>
      <point x="187" y="164"/>
      <point x="186" y="279"/>
      <point x="186" y="394" type="curve" smooth="yes"/>
      <point x="186" y="490"/>
      <point x="187" y="587"/>
      <point x="189" y="683" type="curve" smooth="yes"/>
      <point x="189" y="696"/>
      <point x="198" y="707"/>
      <point x="217" y="712" type="curve" smooth="yes"/>
      <point x="225" y="714"/>
      <point x="233" y="714"/>
      <point x="241" y="714" type="curve"/>
      <point x="241" y="730" type="line"/>
      <point x="54" y="730" type="line"/>
      <point x="54" y="714" type="line"/>
      <point x="62" y="714"/>
      <point x="70" y="714"/>
      <point x="78" y="712" type="curve" smooth="yes"/>
      <point x="97" y="707"/>
      <point x="106" y="695"/>
      <point x="106" y="682" type="curve" smooth="yes"/>
      <point x="107" y="586"/>
      <point x="108" y="490"/>
      <point x="108" y="394" type="curve" smooth="yes"/>
      <point x="108" y="279"/>
      <point x="107" y="164"/>
      <point x="106" y="49" type="curve" smooth="yes"/>
      <point x="106" y="36"/>
      <point x="97" y="23"/>
      <point x="78" y="18" type="curve" smooth="yes"/>
      <point x="70" y="16"/>
      <point x="62" y="16"/>
      <point x="54" y="16" type="curve"/>
    </contour>
  </outline>
</glyph>
<glyph name="J" format="1">
  <advance width="305"/>
  <unicode hex="004A"/>
  <outline>
    <contour>
      <point x="90.374" y="712.012" type="curve" smooth="yes"/>
      <point x="80.1318" y="713.622"/>
      <point x="69.6768" y="714.349"/>
      <point x="59.0029" y="714.458" type="curve"/>
      <point x="59.0029" y="730.333" type="line"/>
      <point x="255.047" y="730.333" type="line"/>
      <point x="255.047" y="714.458" type="line"/>
      <point x="246.073" y="714.349"/>
      <point x="237.261" y="713.751"/>
      <point x="228.676" y="712.012" type="curve" smooth="yes"/>
      <point x="210.078" y="708.244"/>
      <point x="201.038" y="695.519"/>
      <point x="200.825" y="682.912" type="curve" smooth="yes"/>
      <point x="199.786" y="621.479"/>
      <point x="199.39" y="526.005"/>
      <point x="199.39" y="427" type="curve" smooth="yes"/>
      <point x="199.39" y="248.441"/>
      <point x="200.529" y="58.3994"/>
      <point x="201.196" y="35.8652" type="curve"/>
      <point x="200.693" y="-100.207"/>
      <point x="108" y="-175"/>
      <point x="-58" y="-180" type="curve"/>
      <point x="-58" y="-154" type="line"/>
      <point x="77" y="-116"/>
      <point x="116.725" y="-75.623"/>
      <point x="117.873" y="79.8652" type="curve" smooth="yes"/>
      <point x="118.079" y="107.812"/>
      <point x="119.105" y="296.088"/>
      <point x="119.105" y="469" type="curve" smooth="yes"/>
      <point x="119.105" y="549.073"/>
      <point x="118.877" y="625.852"/>
      <point x="118.244" y="681.888" type="curve" smooth="yes"/>
      <point x="118.098" y="694.818"/>
      <point x="109.628" y="708.984"/>
    </contour>
  </outline>
</glyph>
<glyph name="K" format="1">
  <advance width="660"/>
  <unicode hex="004B"/>
  <outline>
    <contour>
      <point x="54" y="0" type="line"/>
      <point x="244" y="0" type="line"/>
      <point x="244" y="16" type="line"/>
      <point x="236" y="16"/>
      <point x="228" y="17"/>
      <point x="220" y="18" type="curve" smooth="yes"/>
      <point x="201" y="20"/>
      <point x="192" y="35"/>
      <point x="192" y="49" type="curve" smooth="yes"/>
      <point x="189" y="338" type="line"/>
      <point x="203" y="342"/>
      <point x="218" y="349"/>
      <point x="229" y="363" type="curve"/>
      <point x="434" y="70" type="line"/>
      <point x="433" y="70" type="line"/>
      <point x="443" y="55"/>
      <point x="447" y="44"/>
      <point x="447" y="36" type="curve" smooth="yes"/>
      <point x="447" y="25"/>
      <point x="438" y="20"/>
      <point x="426" y="18" type="curve" smooth="yes"/>
      <point x="419" y="17"/>
      <point x="413" y="16"/>
      <point x="405" y="16" type="curve"/>
      <point x="405" y="0" type="line"/>
      <point x="608" y="0" type="line"/>
      <point x="608" y="16" type="line"/>
      <point x="600" y="16"/>
      <point x="588" y="17"/>
      <point x="579" y="18" type="curve" smooth="yes"/>
      <point x="569" y="19"/>
      <point x="561" y="28"/>
      <point x="552" y="39" type="curve" smooth="yes"/>
      <point x="512" y="88"/>
      <point x="415" y="246"/>
      <point x="292" y="427" type="curve"/>
      <point x="477" y="678" type="line" smooth="yes"/>
      <point x="489" y="694"/>
      <point x="500" y="708"/>
      <point x="515" y="711" type="curve" smooth="yes"/>
      <point x="524" y="713"/>
      <point x="532" y="714"/>
      <point x="540" y="714" type="curve"/>
      <point x="540" y="730" type="line"/>
      <point x="390" y="730" type="line"/>
      <point x="390" y="714" type="line"/>
      <point x="409" y="714"/>
      <point x="434" y="711"/>
      <point x="434" y="696" type="curve" smooth="yes"/>
      <point x="434" y="688"/>
      <point x="429" y="675"/>
      <point x="414" y="656" type="curve" smooth="yes"/>
      <point x="252" y="443" type="line" smooth="yes"/>
      <point x="225" y="407"/>
      <point x="209" y="395"/>
      <point x="188" y="388" type="curve"/>
      <point x="192" y="683" type="line" smooth="yes"/>
      <point x="192" y="696"/>
      <point x="201" y="707"/>
      <point x="220" y="712" type="curve" smooth="yes"/>
      <point x="228" y="714"/>
      <point x="236" y="714"/>
      <point x="244" y="714" type="curve"/>
      <point x="244" y="730" type="line"/>
      <point x="180" y="730"/>
      <point x="66" y="730"/>
      <point x="54" y="730" type="curve"/>
      <point x="54" y="714" type="line"/>
      <point x="62" y="714"/>
      <point x="70" y="714"/>
      <point x="78" y="712" type="curve" smooth="yes"/>
      <point x="97" y="707"/>
      <point x="106" y="695"/>
      <point x="106" y="682" type="curve" smooth="yes"/>
      <point x="106" y="589"/>
      <point x="109" y="496"/>
      <point x="109" y="403" type="curve" smooth="yes"/>
      <point x="109" y="285"/>
      <point x="106" y="167"/>
      <point x="106" y="49" type="curve" smooth="yes"/>
      <point x="106" y="35"/>
      <point x="97" y="23"/>
      <point x="78" y="18" type="curve" smooth="yes"/>
      <point x="70" y="16"/>
      <point x="62" y="16"/>
      <point x="54" y="16" type="curve"/>
    </contour>
  </outline>
</glyph>
<glyph name="L" format="1">
  <advance width="589"/>
  <unicode hex="004C"/>
  <outline>
    <contour>
      <point x="51" y="0" type="line"/>
      <point x="522" y="0" type="line"/>
      <point x="539" y="140" type="line"/>
      <point x="523" y="139" type="line"/>
      <point x="510" y="79"/>
      <point x="483" y="48"/>
      <point x="422" y="32" type="curve" smooth="yes"/>
      <point x="379" y="21"/>
      <point x="331" y="21"/>
      <point x="270" y="21" type="curve"/>
      <point x="250" y="21"/>
      <point x="240" y="22"/>
      <point x="220" y="24" type="curve" smooth="yes"/>
      <point x="200" y="26"/>
      <point x="193" y="39"/>
      <point x="192" y="53" type="curve" smooth="yes"/>
      <point x="189" y="122"/>
      <point x="189" y="248"/>
      <point x="189" y="373" type="curve" smooth="yes"/>
      <point x="189" y="498"/>
      <point x="190" y="621"/>
      <point x="192" y="682" type="curve" smooth="yes"/>
      <point x="192" y="695"/>
      <point x="200" y="706"/>
      <point x="217" y="711" type="curve" smooth="yes"/>
      <point x="228" y="714"/>
      <point x="240" y="714"/>
      <point x="252" y="714" type="curve"/>
      <point x="252" y="730" type="line"/>
      <point x="57" y="730" type="line"/>
      <point x="57" y="714" type="line"/>
      <point x="65" y="714"/>
      <point x="73" y="714"/>
      <point x="81" y="712" type="curve" smooth="yes"/>
      <point x="100" y="707"/>
      <point x="109" y="695"/>
      <point x="109" y="682" type="curve" smooth="yes"/>
      <point x="111" y="622"/>
      <point x="112" y="494"/>
      <point x="112" y="366" type="curve" smooth="yes"/>
      <point x="112" y="238"/>
      <point x="111" y="110"/>
      <point x="109" y="49" type="curve" smooth="yes"/>
      <point x="109" y="35"/>
      <point x="100" y="22"/>
      <point x="81" y="18" type="curve" smooth="yes"/>
      <point x="72" y="16"/>
      <point x="61" y="16"/>
      <point x="51" y="16" type="curve"/>
    </contour>
    <contour>
      <point x="294" y="730" type="move" name="top"/>
    </contour>
  </outline>
</glyph>
<glyph name="M" format="1">
  <advance width="840"/>
  <unicode hex="004D"/>
  <outline>
    <contour>
      <point x="45" y="0" type="line"/>
      <point x="192" y="0" type="line"/>
      <point x="192" y="16" type="line"/>
      <point x="184" y="16"/>
      <point x="176" y="17"/>
      <point x="168" y="18" type="curve" smooth="yes"/>
      <point x="150" y="20"/>
      <point x="140" y="35"/>
      <point x="140" y="48" type="curve" smooth="yes"/>
      <point x="159" y="611" type="line"/>
      <point x="389" y="127" type="line"/>
      <point x="392" y="121"/>
      <point x="397" y="120"/>
      <point x="400" y="120" type="curve" smooth="yes"/>
      <point x="402" y="120"/>
      <point x="407" y="121"/>
      <point x="410" y="127" type="curve" smooth="yes"/>
      <point x="412" y="131"/>
      <point x="413" y="133"/>
      <point x="414" y="135" type="curve" smooth="yes"/>
      <point x="658" y="611" type="line"/>
      <point x="658" y="571"/>
      <point x="658" y="530"/>
      <point x="658" y="488" type="curve" smooth="yes"/>
      <point x="658" y="406"/>
      <point x="658" y="322"/>
      <point x="658" y="241" type="curve" smooth="yes"/>
      <point x="658" y="177"/>
      <point x="656" y="113"/>
      <point x="656" y="49" type="curve" smooth="yes"/>
      <point x="656" y="35"/>
      <point x="648" y="23"/>
      <point x="628" y="18" type="curve" smooth="yes"/>
      <point x="620" y="16"/>
      <point x="612" y="16"/>
      <point x="604" y="16" type="curve"/>
      <point x="604" y="0" type="line"/>
      <point x="797" y="0" type="line"/>
      <point x="797" y="16" type="line"/>
      <point x="788" y="16"/>
      <point x="779" y="17"/>
      <point x="771" y="18" type="curve" smooth="yes"/>
      <point x="752" y="20"/>
      <point x="743" y="35"/>
      <point x="743" y="47" type="curve" smooth="yes"/>
      <point x="743" y="196"/>
      <point x="737" y="346"/>
      <point x="737" y="497" type="curve" smooth="yes"/>
      <point x="737" y="559"/>
      <point x="738" y="621"/>
      <point x="738" y="683" type="curve" smooth="yes"/>
      <point x="738" y="696"/>
      <point x="747" y="710"/>
      <point x="766" y="712" type="curve" smooth="yes"/>
      <point x="774" y="713"/>
      <point x="783" y="714"/>
      <point x="792" y="714" type="curve"/>
      <point x="792" y="730" type="line"/>
      <point x="668" y="730" type="line"/>
      <point x="435" y="263" type="line"/>
      <point x="206" y="730" type="line"/>
      <point x="65" y="730" type="line"/>
      <point x="65" y="714" type="line"/>
      <point x="74" y="714"/>
      <point x="82" y="714"/>
      <point x="90" y="712" type="curve" smooth="yes"/>
      <point x="108" y="708"/>
      <point x="118" y="693"/>
      <point x="118" y="680" type="curve"/>
      <point x="113" y="468"/>
      <point x="113" y="259"/>
      <point x="98" y="52" type="curve" smooth="yes"/>
      <point x="97" y="38"/>
      <point x="89" y="23"/>
      <point x="70" y="18" type="curve" smooth="yes"/>
      <point x="62" y="16"/>
      <point x="54" y="16"/>
      <point x="45" y="16" type="curve"/>
    </contour>
  </outline>
</glyph>
<glyph name="N" format="1">
  <advance width="823"/>
  <unicode hex="004E"/>
  <outline>
    <contour>
      <point x="712" y="-9" type="curve" smooth="yes"/>
      <point x="716" y="-9"/>
      <point x="721" y="-6"/>
      <point x="721" y="0" type="curve" smooth="yes"/>
      <point x="717" y="95"/>
      <point x="717" y="276"/>
      <point x="717" y="424" type="curve" smooth="yes"/>
      <point x="717" y="532"/>
      <point x="718" y="628"/>
      <point x="720" y="684" type="curve" smooth="yes"/>
      <point x="720" y="698"/>
      <point x="730" y="709"/>
      <point x="749" y="712" type="curve" smooth="yes"/>
      <point x="756" y="713"/>
      <point x="765" y="714"/>
      <point x="773" y="714" type="curve"/>
      <point x="773" y="730" type="line"/>
      <point x="625" y="730" type="line"/>
      <point x="625" y="714" type="line"/>
      <point x="634" y="714"/>
      <point x="642" y="714"/>
      <point x="650" y="712" type="curve" smooth="yes"/>
      <point x="672" y="706"/>
      <point x="678" y="696"/>
      <point x="678" y="682" type="curve" smooth="yes"/>
      <point x="678" y="159" type="line"/>
      <point x="168" y="730" type="line"/>
      <point x="54" y="730" type="line"/>
      <point x="54" y="714" type="line"/>
      <point x="62" y="714"/>
      <point x="70" y="714"/>
      <point x="78" y="712" type="curve" smooth="yes"/>
      <point x="97" y="707"/>
      <point x="106" y="692"/>
      <point x="106" y="679" type="curve" smooth="yes"/>
      <point x="106" y="52" type="line" smooth="yes"/>
      <point x="106" y="38"/>
      <point x="97" y="23"/>
      <point x="78" y="18" type="curve" smooth="yes"/>
      <point x="70" y="16"/>
      <point x="62" y="16"/>
      <point x="54" y="16" type="curve"/>
      <point x="54" y="0" type="line"/>
      <point x="201" y="0" type="line"/>
      <point x="201" y="16" type="line"/>
      <point x="193" y="16"/>
      <point x="185" y="17"/>
      <point x="177" y="18" type="curve" smooth="yes"/>
      <point x="158" y="20"/>
      <point x="149" y="35"/>
      <point x="149" y="48" type="curve" smooth="yes"/>
      <point x="149" y="84"/>
      <point x="149" y="119"/>
      <point x="149" y="155" type="curve" smooth="yes"/>
      <point x="149" y="255"/>
      <point x="149" y="355"/>
      <point x="149" y="455" type="curve" smooth="yes"/>
      <point x="149" y="510"/>
      <point x="149" y="564"/>
      <point x="149" y="619" type="curve"/>
      <point x="337" y="410"/>
      <point x="514" y="210"/>
      <point x="698" y="1" type="curve"/>
      <point x="700" y="-1"/>
      <point x="708" y="-9"/>
    </contour>
  </outline>
</glyph>
<glyph name="Q" format="1">
  <advance width="810"/>
  <unicode hex="0051"/>
  <outline>
    <contour>
      <point x="557" y="-147" type="curve" smooth="yes"/>
      <point x="580" y="-147"/>
      <point x="606" y="-146"/>
      <point x="632" y="-143" type="curve"/>
      <point x="626" y="-115" type="line"/>
      <point x="618" y="-116"/>
      <point x="610" y="-116"/>
      <point x="602" y="-116" type="curve" smooth="yes"/>
      <point x="490" y="-116"/>
      <point x="443" y="-73"/>
      <point x="437" y="-15" type="curve"/>
      <point x="587" y="2"/>
      <point x="756" y="134"/>
      <point x="756" y="357" type="curve" smooth="yes"/>
      <point x="756" y="583"/>
      <point x="616" y="733"/>
      <point x="405" y="733" type="curve" smooth="yes"/>
      <point x="198" y="733"/>
      <point x="55" y="582"/>
      <point x="55" y="348" type="curve" smooth="yes"/>
      <point x="55" y="98"/>
      <point x="216" y="12"/>
      <point x="336" y="-11" type="curve"/>
      <point x="344" y="-105"/>
      <point x="420" y="-147"/>
    </contour>
    <contour>
      <point x="412" y="20" type="curve" smooth="yes"/>
      <point x="337" y="20"/>
      <point x="144" y="40"/>
      <point x="144" y="381" type="curve" smooth="yes"/>
      <point x="144" y="461"/>
      <point x="172" y="698"/>
      <point x="395" y="698" type="curve" smooth="yes"/>
      <point x="598" y="698"/>
      <point x="668" y="543"/>
      <point x="668" y="373" type="curve" smooth="yes"/>
      <point x="668" y="90"/>
      <point x="543" y="20"/>
    </contour>
  </outline>
</glyph>
<glyph name="R" format="1">
  <advance width="675"/>
  <unicode hex="0052"/>
  <outline>
    <contour>
      <point x="216.68" y="18.3945" type="curve" smooth="yes"/>
      <point x="224.637" y="16.7852"/>
      <point x="232.758" y="16.0586"/>
      <point x="241.05" y="15.9473" type="curve"/>
      <point x="241.05" y="0" type="line"/>
      <point x="161.491" y="0" type="line"/>
      <point x="133.56" y="0" type="line"/>
      <point x="54" y="0" type="line"/>
      <point x="54" y="15.9473" type="line"/>
      <point x="62.292" y="16.0586"/>
      <point x="70.415" y="16.7822"/>
      <point x="78.3711" y="18.3945" type="curve" smooth="yes"/>
      <point x="97.4736" y="22.2656"/>
      <point x="106.104" y="35.2363"/>
      <point x="106.241" y="48.5195" type="curve" smooth="yes"/>
      <point x="107.838" y="167.412"/>
      <point x="109.146" y="286.277"/>
      <point x="109.146" y="405" type="curve" smooth="yes"/>
      <point x="109.146" y="492.749"/>
      <point x="108.372" y="580.421"/>
      <point x="106.436" y="667.97" type="curve"/>
      <point x="106.244" y="667.888" type="line"/>
      <point x="106.244" y="686.829"/>
      <point x="96.2217" y="706.564"/>
      <point x="78.374" y="712.012" type="curve" smooth="yes"/>
      <point x="70.6094" y="714.382"/>
      <point x="62.2949" y="714.349"/>
      <point x="54.0029" y="714.458" type="curve"/>
      <point x="54.0029" y="730.333" type="line"/>
      <point x="62.6691" y="730.173"/>
      <point x="71.3349" y="730.105"/>
      <point x="80" y="730.105" type="curve" smooth="yes"/>
      <point x="144.08" y="730.105"/>
      <point x="208.122" y="734"/>
      <point x="272" y="734" type="curve" smooth="yes"/>
      <point x="419.027" y="734"/>
      <point x="523.256" y="677.052"/>
      <point x="523.256" y="537.968" type="curve" smooth="yes"/>
      <point x="523.256" y="432.411"/>
      <point x="448.026" y="365.96"/>
      <point x="361" y="346" type="curve"/>
      <point x="444.653" y="220.693"/>
      <point x="525.996" y="95.6406"/>
      <point x="566.859" y="40.1094" type="curve" smooth="yes"/>
      <point x="575.549" y="28.3008"/>
      <point x="583.133" y="21.3906"/>
      <point x="593.743" y="19.0918" type="curve" smooth="yes"/>
      <point x="602.095" y="17.2822"/>
      <point x="614.244" y="16.7539"/>
      <point x="622.564" y="16.6445" type="curve"/>
      <point x="622.565" y="0.696289" type="line"/>
      <point x="550.56" y="0.696289" type="line"/>
      <point x="513.078" y="0.696289" type="line" smooth="yes"/>
      <point x="470.796" y="0.696289"/>
      <point x="446.853" y="54.6963"/>
      <point x="433" y="71" type="curve"/>
      <point x="433.578" y="70.8896" type="line"/>
      <point x="264" y="328" type="line"/>
      <point x="237.648" y="328.054"/>
      <point x="214.088" y="327.841"/>
      <point x="185.911" y="331.144" type="curve"/>
      <point x="188.829" y="47.4336" type="line" smooth="yes"/>
      <point x="188.962" y="34.5312"/>
      <point x="198.097" y="22.1533"/>
    </contour>
    <contour>
      <point x="185.63" y="359.377" type="curve"/>
      <point x="197.109" y="359.174"/>
      <point x="210.352" y="359"/>
      <point x="222" y="359" type="curve" smooth="yes"/>
      <point x="343.494" y="359"/>
      <point x="444.521" y="419.488"/>
      <point x="444.521" y="535.068" type="curve" smooth="yes"/>
      <point x="444.521" y="665.987"/>
      <point x="375.599" y="703.888"/>
      <point x="237" y="703.888" type="curve" smooth="yes"/>
      <point x="190" y="703.888" type="line"/>
      <point x="189.089" y="703.496" type="line"/>
      <point x="188.229" y="601.305"/>
      <point x="185.568" y="499.25"/>
      <point x="185.568" y="397" type="curve" smooth="yes"/>
      <point x="185.568" y="384.462"/>
      <point x="185.569" y="371.921"/>
    </contour>
  </outline>
</glyph>
<glyph name="S" format="1">
  <advance width="555"/>
  <unicode hex="0053"/>
  <outline>
    <contour>
      <point x="281.082" y="36.4434" type="curve" smooth="yes"/>
      <point x="372.803" y="36.4434"/>
      <point x="434.307" y="91.3406"/>
      <point x="434.307" y="170" type="curve" smooth="yes"/>
      <point x="434.307" y="249.892"/>
      <point x="370.207" y="301.315"/>
      <point x="286.385" y="351" type="curve" smooth="yes"/>
      <point x="197.655" y="403.594"/>
      <point x="95.5469" y="483.003"/>
      <point x="95.5469" y="561.794" type="curve" smooth="yes"/>
      <point x="95.5469" y="651.181"/>
      <point x="165.882" y="742.33"/>
      <point x="313" y="742.33" type="curve" smooth="yes"/>
      <point x="400.213" y="742.33"/>
      <point x="487.37" y="710.882"/>
      <point x="487.37" y="693" type="curve" smooth="yes"/>
      <point x="487.37" y="679.047"/>
      <point x="462.309" y="611.898"/>
      <point x="453" y="611.898" type="curve" smooth="yes"/>
      <point x="438.307" y="611.898"/>
      <point x="409.118" y="709.885"/>
      <point x="297" y="709.885" type="curve" smooth="yes"/>
      <point x="197.087" y="709.885"/>
      <point x="169.828" y="641.789"/>
      <point x="169.828" y="589.267" type="curve" smooth="yes"/>
      <point x="169.828" y="514.686"/>
      <point x="240.163" y="472.17"/>
      <point x="321.034" y="422.959" type="curve" smooth="yes"/>
      <point x="422.97" y="360.93"/>
      <point x="502.808" y="299.082"/>
      <point x="502.808" y="212" type="curve" smooth="yes"/>
      <point x="502.808" y="128.645"/>
      <point x="466.694" y="77.5727"/>
      <point x="417.38" y="37.4814" type="curve" smooth="yes"/>
      <point x="380.982" y="7.89062"/>
      <point x="325.778" y="-9.56348"/>
      <point x="278.848" y="-9.56348" type="curve" smooth="yes"/>
      <point x="135.493" y="-9.56348"/>
      <point x="50.0016" y="75.8233"/>
      <point x="50.0016" y="116" type="curve" smooth="yes"/>
      <point x="50.0016" y="136.869"/>
      <point x="88.0581" y="192.003"/>
      <point x="105" y="192.003" type="curve" smooth="yes"/>
      <point x="108.384" y="192.003"/>
      <point x="110.632" y="191.917"/>
      <point x="111.085" y="187.56" type="curve" smooth="yes"/>
      <point x="117.009" y="135.913"/>
      <point x="162.245" y="36.4434"/>
    </contour>
  </outline>
</glyph>
<glyph name="T" format="1">
  <advance width="681"/>
  <unicode hex="0054"/>
  <unicode hex="03A4"/>
  <outline>
    <contour>
      <point x="248" y="0" type="line"/>
      <point x="448" y="0" type="line"/>
      <point x="448" y="16" type="line"/>
      <point x="440" y="16"/>
      <point x="432" y="17"/>
      <point x="424" y="18" type="curve" smooth="yes"/>
      <point x="405" y="20"/>
      <point x="396" y="37"/>
      <point x="396" y="49" type="curve" smooth="yes"/>
      <point x="393" y="140"/>
      <point x="393" y="235"/>
      <point x="393" y="328" type="curve" smooth="yes"/>
      <point x="393" y="439"/>
      <point x="393" y="590"/>
      <point x="396" y="678" type="curve" smooth="yes"/>
      <point x="396" y="691"/>
      <point x="404" y="707"/>
      <point x="424" y="708" type="curve" smooth="yes"/>
      <point x="442" y="709"/>
      <point x="460" y="709"/>
      <point x="477" y="709" type="curve" smooth="yes"/>
      <point x="536" y="709"/>
      <point x="564" y="709"/>
      <point x="588" y="703" type="curve" smooth="yes"/>
      <point x="605" y="699"/>
      <point x="625" y="684"/>
      <point x="629" y="650" type="curve" smooth="yes"/>
      <point x="633" y="612" type="line"/>
      <point x="650" y="612" type="line"/>
      <point x="654" y="733" type="line" smooth="yes"/>
      <point x="654" y="737"/>
      <point x="649" y="738"/>
      <point x="642" y="738" type="curve" smooth="yes"/>
      <point x="638" y="738"/>
      <point x="632" y="735"/>
      <point x="628" y="735" type="curve" smooth="yes"/>
      <point x="538" y="735"/>
      <point x="461" y="732"/>
      <point x="354" y="730" type="curve" smooth="yes"/>
      <point x="241" y="728"/>
      <point x="132" y="733"/>
      <point x="95" y="733" type="curve" smooth="yes"/>
      <point x="88" y="733"/>
      <point x="77" y="736"/>
      <point x="71" y="736" type="curve" smooth="yes"/>
      <point x="68" y="736"/>
      <point x="67" y="735"/>
      <point x="66" y="733" type="curve"/>
      <point x="48" y="614" type="line"/>
      <point x="68" y="614" type="line"/>
      <point x="77" y="663"/>
      <point x="99" y="694"/>
      <point x="142" y="701" type="curve" smooth="yes"/>
      <point x="171" y="706"/>
      <point x="221" y="709"/>
      <point x="255" y="709" type="curve" smooth="yes"/>
      <point x="269" y="709"/>
      <point x="280" y="709"/>
      <point x="286" y="708" type="curve" smooth="yes"/>
      <point x="297" y="706"/>
      <point x="307" y="694"/>
      <point x="308" y="679" type="curve" smooth="yes"/>
      <point x="312" y="590"/>
      <point x="312" y="439"/>
      <point x="312" y="328" type="curve" smooth="yes"/>
      <point x="312" y="236"/>
      <point x="312" y="140"/>
      <point x="308" y="49" type="curve" smooth="yes"/>
      <point x="307" y="36"/>
      <point x="300" y="26"/>
      <point x="283" y="20" type="curve" smooth="yes"/>
      <point x="272" y="16"/>
      <point x="260" y="16"/>
      <point x="248" y="16" type="curve"/>
    </contour>
  </outline>
</glyph>
<glyph name="U" format="1">
  <advance width="764"/>
  <unicode hex="0055"/>
  <outline>
    <contour>
      <point x="178.717" y="680.045" type="move"/>
    </contour>
    <contour>
      <point x="69.2393" y="711.537" type="curve" smooth="yes"/>
      <point x="61.9189" y="713.073"/>
      <point x="54.4805" y="713.874"/>
      <point x="46.8682" y="713.984" type="curve"/>
      <point x="46.8682" y="729.859" type="line"/>
      <point x="230.92" y="730" type="line"/>
      <point x="230.92" y="714.125" type="line"/>
      <point x="222.627" y="714.016"/>
      <point x="214.713" y="713.504"/>
      <point x="206.552" y="711.678" type="curve" smooth="yes"/>
      <point x="188.148" y="707.559"/>
      <point x="179" y="697.335"/>
      <point x="178.717" y="680.045" type="curve" smooth="yes"/>
      <point x="178.697" y="678.846"/>
      <point x="178.688" y="671.761"/>
      <point x="178.688" y="660.335" type="curve" smooth="yes"/>
      <point x="178.688" y="583.466"/>
      <point x="179.065" y="318.097"/>
      <point x="179.065" y="318.097" type="curve"/>
      <point x="179.065" y="90.4072"/>
      <point x="243.821" y="30.002"/>
      <point x="394.724" y="30.002" type="curve"/>
      <point x="538.688" y="30.002"/>
      <point x="635.919" y="102.146"/>
      <point x="635.919" y="313.804" type="curve"/>
      <point x="635.919" y="344.778"/>
      <point x="635.604" y="654.384"/>
      <point x="635.604" y="685.009" type="curve"/>
      <point x="635.604" y="700.237"/>
      <point x="626.863" y="708.117"/>
      <point x="607.615" y="712.013" type="curve" smooth="yes"/>
      <point x="599.658" y="713.623"/>
      <point x="591.537" y="714.225"/>
      <point x="583.244" y="714.335" type="curve"/>
      <point x="583.244" y="730.335" type="line"/>
      <point x="733.739" y="730.335" type="line"/>
      <point x="733.739" y="714.335" type="line"/>
      <point x="725.445" y="714.225"/>
      <point x="717.328" y="713.625"/>
      <point x="709.371" y="712.013" type="curve" smooth="yes"/>
      <point x="691.272" y="708.346"/>
      <point x="681.269" y="700.099"/>
      <point x="681.219" y="684.214" type="curve" smooth="yes"/>
      <point x="681.195" y="676.746"/>
      <point x="681.186" y="661.335"/>
      <point x="681.186" y="661.335" type="curve"/>
      <point x="681.186" y="661.335"/>
      <point x="681.932" y="521.914"/>
      <point x="681.932" y="458.335" type="curve" smooth="yes"/>
      <point x="681.932" y="375.374"/>
      <point x="681.593" y="312.747"/>
      <point x="680.853" y="278.076" type="curve" smooth="yes"/>
      <point x="676.007" y="51.0254"/>
      <point x="525.313" y="-9.66504"/>
      <point x="392.015" y="-9.66504" type="curve" smooth="yes"/>
      <point x="256.527" y="-9.66504"/>
      <point x="94.6191" y="52.2969"/>
      <point x="93.7393" y="291.097" type="curve"/>
      <point x="95.6006" y="679.883" type="line" smooth="yes"/>
      <point x="95.6006" y="695.964"/>
      <point x="85.2744" y="708.171"/>
    </contour>
  </outline>
</glyph>
<glyph name="V" format="1">
  <advance width="758"/>
  <unicode hex="0056"/>
  <outline>
    <contour>
      <point x="212" y="715" type="curve" smooth="yes"/>
      <point x="198" y="712"/>
      <point x="184.343" y="705.854"/>
      <point x="184.343" y="686.516" type="curve" smooth="yes"/>
      <point x="184.343" y="681.172"/>
      <point x="186" y="675"/>
      <point x="188" y="667" type="curve" smooth="yes"/>
      <point x="403" y="140" type="line"/>
      <point x="617" y="660" type="line"/>
      <point x="623" y="674"/>
      <point x="625.591" y="683.477"/>
      <point x="625.591" y="691.165" type="curve" smooth="yes"/>
      <point x="625.591" y="708.921"/>
      <point x="612.208" y="714.113"/>
      <point x="599" y="716" type="curve" smooth="yes"/>
      <point x="592" y="717"/>
      <point x="584" y="717"/>
      <point x="576" y="717" type="curve"/>
      <point x="576" y="733" type="line"/>
      <point x="607" y="733"/>
      <point x="637" y="733"/>
      <point x="668" y="733" type="curve" smooth="yes"/>
      <point x="724" y="733" type="line"/>
      <point x="724" y="717" type="line"/>
      <point x="716" y="717"/>
      <point x="707" y="717"/>
      <point x="699" y="715" type="curve" smooth="yes"/>
      <point x="684" y="711"/>
      <point x="679" y="694"/>
      <point x="670" y="678" type="curve"/>
      <point x="401" y="21" type="line" smooth="yes"/>
      <point x="396" y="9"/>
      <point x="393" y="2"/>
      <point x="393" y="2" type="curve" smooth="yes"/>
      <point x="390" y="-4"/>
      <point x="390" y="-8"/>
      <point x="385" y="-8" type="curve" smooth="yes"/>
      <point x="380" y="-8"/>
      <point x="379" y="-6"/>
      <point x="376" y="2" type="curve" smooth="yes"/>
      <point x="371" y="15"/>
      <point x="177" y="491"/>
      <point x="107" y="665" type="curve"/>
      <point x="104" y="671"/>
      <point x="102" y="677"/>
      <point x="100" y="682" type="curve" smooth="yes"/>
      <point x="100" y="683"/>
      <point x="100" y="683"/>
      <point x="100" y="684" type="curve" smooth="yes"/>
      <point x="93" y="702"/>
      <point x="86" y="712"/>
      <point x="74" y="715" type="curve" smooth="yes"/>
      <point x="66" y="717"/>
      <point x="58" y="717"/>
      <point x="50" y="717" type="curve"/>
      <point x="50" y="733" type="line"/>
      <point x="236" y="733" type="line"/>
      <point x="236" y="717" type="line"/>
      <point x="228" y="717"/>
      <point x="220" y="717"/>
    </contour>
  </outline>
</glyph>
<glyph name="W" format="1">
  <advance width="1043"/>
  <unicode hex="0057"/>
  <outline>
    <contour>
      <point x="384" y="-8" type="curve" smooth="yes"/>
      <point x="388" y="-8"/>
      <point x="389" y="-6"/>
      <point x="393" y="3" type="curve" smooth="yes"/>
      <point x="396" y="9"/>
      <point x="469" y="180"/>
      <point x="541" y="352" type="curve"/>
      <point x="614" y="179"/>
      <point x="686" y="10"/>
      <point x="689" y="2" type="curve" smooth="yes"/>
      <point x="692" y="-6"/>
      <point x="694" y="-8"/>
      <point x="697" y="-8" type="curve" smooth="yes"/>
      <point x="701" y="-8"/>
      <point x="703" y="-6"/>
      <point x="707" y="3" type="curve" smooth="yes"/>
      <point x="713" y="16"/>
      <point x="835" y="318"/>
      <point x="981" y="679" type="curve"/>
      <point x="988" y="695"/>
      <point x="996" y="711"/>
      <point x="1011" y="715" type="curve" smooth="yes"/>
      <point x="1019" y="717"/>
      <point x="1027" y="718"/>
      <point x="1035" y="718" type="curve"/>
      <point x="1035" y="734" type="line"/>
      <point x="887" y="734" type="line"/>
      <point x="887" y="718" type="line"/>
      <point x="895" y="718"/>
      <point x="903" y="718"/>
      <point x="911" y="716" type="curve" smooth="yes"/>
      <point x="924" y="713"/>
      <point x="937" y="710"/>
      <point x="937" y="692" type="curve" smooth="yes"/>
      <point x="937" y="684"/>
      <point x="934" y="674"/>
      <point x="928" y="660" type="curve"/>
      <point x="929" y="660" type="line"/>
      <point x="713" y="136" type="line"/>
      <point x="582" y="448" type="line"/>
      <point x="681" y="682" type="line" smooth="yes"/>
      <point x="688" y="698"/>
      <point x="695" y="712"/>
      <point x="709" y="715" type="curve" smooth="yes"/>
      <point x="717" y="717"/>
      <point x="724" y="718"/>
      <point x="732" y="718" type="curve"/>
      <point x="732" y="734" type="line"/>
      <point x="588" y="734" type="line"/>
      <point x="588" y="718" type="line"/>
      <point x="596" y="718"/>
      <point x="602" y="717"/>
      <point x="610" y="715" type="curve" smooth="yes"/>
      <point x="623" y="712"/>
      <point x="634" y="706"/>
      <point x="634" y="690" type="curve" smooth="yes"/>
      <point x="634" y="682"/>
      <point x="632" y="673"/>
      <point x="627" y="660" type="curve"/>
      <point x="552" y="484" type="line"/>
      <point x="476" y="664" type="line" smooth="yes"/>
      <point x="472" y="674"/>
      <point x="471" y="682"/>
      <point x="471" y="688" type="curve" smooth="yes"/>
      <point x="471" y="705"/>
      <point x="482" y="710"/>
      <point x="496" y="715" type="curve" smooth="yes"/>
      <point x="504" y="718"/>
      <point x="511" y="718"/>
      <point x="519" y="718" type="curve"/>
      <point x="519" y="734" type="line"/>
      <point x="353" y="734" type="line"/>
      <point x="353" y="718" type="line"/>
      <point x="361" y="718"/>
      <point x="368" y="717"/>
      <point x="376" y="715" type="curve" smooth="yes"/>
      <point x="386" y="713"/>
      <point x="391" y="706"/>
      <point x="397" y="695" type="curve" smooth="yes"/>
      <point x="426" y="643"/>
      <point x="468" y="526"/>
      <point x="518" y="406" type="curve"/>
      <point x="403" y="137" type="line"/>
      <point x="188" y="666" type="line" smooth="yes"/>
      <point x="185" y="674"/>
      <point x="184" y="681"/>
      <point x="184" y="687" type="curve" smooth="yes"/>
      <point x="184" y="706"/>
      <point x="198" y="712"/>
      <point x="212" y="715" type="curve" smooth="yes"/>
      <point x="220" y="717"/>
      <point x="228" y="718"/>
      <point x="236" y="718" type="curve"/>
      <point x="236" y="734" type="line"/>
      <point x="50" y="734" type="line"/>
      <point x="50" y="718" type="line"/>
      <point x="58" y="718"/>
      <point x="66" y="717"/>
      <point x="74" y="715" type="curve" smooth="yes"/>
      <point x="89" y="712"/>
      <point x="95" y="703"/>
      <point x="101" y="684" type="curve" smooth="yes"/>
      <point x="102" y="681"/>
      <point x="105" y="672"/>
      <point x="107" y="666" type="curve" smooth="yes"/>
      <point x="166" y="488"/>
      <point x="371" y="15"/>
      <point x="376" y="2" type="curve" smooth="yes"/>
      <point x="379" y="-6"/>
      <point x="381" y="-8"/>
    </contour>
  </outline>
</glyph>
<glyph name="X" format="1">
  <advance width="761"/>
  <unicode hex="0058"/>
  <unicode hex="03A7"/>
  <outline>
    <contour>
      <point x="69.749" y="713.906" type="curve"/>
      <point x="69.7471" y="730" type="line"/>
      <point x="271.245" y="730" type="line"/>
      <point x="271.245" y="713.906" type="line"/>
      <point x="262.98" y="713.796"/>
      <point x="255.033" y="713.072"/>
      <point x="247.468" y="711.46" type="curve" smooth="yes"/>
      <point x="236.026" y="709.022"/>
      <point x="224.518" y="704.584"/>
      <point x="224.518" y="692" type="curve" smooth="yes"/>
      <point x="224.518" y="684.604"/>
      <point x="227.982" y="674.393"/>
      <point x="237.577" y="660.12" type="curve" smooth="yes"/>
      <point x="390.014" y="433.369" type="line"/>
      <point x="553.069" y="656.144" type="line" smooth="yes"/>
      <point x="567.906" y="676.414"/>
      <point x="572.555" y="688.968"/>
      <point x="572.555" y="697" type="curve" smooth="yes"/>
      <point x="572.555" y="707.374"/>
      <point x="562.114" y="710.207"/>
      <point x="551.987" y="712.384" type="curve" smooth="yes"/>
      <point x="544.505" y="713.992"/>
      <point x="537.306" y="713.72"/>
      <point x="529.046" y="713.83" type="curve"/>
      <point x="529.046" y="730" type="line"/>
      <point x="677.244" y="730" type="line"/>
      <point x="677.244" y="713.829" type="line"/>
      <point x="668.918" y="713.719"/>
      <point x="660.603" y="713.278"/>
      <point x="652.152" y="711.383" type="curve" smooth="yes"/>
      <point x="637.06" y="707.998"/>
      <point x="625.403" y="694.212"/>
      <point x="613.549" y="677.887" type="curve" smooth="yes"/>
      <point x="412.121" y="400.486" type="line"/>
      <point x="425.318" y="380.854" type="line" smooth="yes"/>
      <point x="517.082" y="242.128"/>
      <point x="607.531" y="99.9854"/>
      <point x="652.104" y="39.4131" type="curve" smooth="yes"/>
      <point x="660.793" y="27.6045"/>
      <point x="668.377" y="20.6943"/>
      <point x="678.987" y="18.3955" type="curve" smooth="yes"/>
      <point x="687.339" y="16.5859"/>
      <point x="699.488" y="16.0576"/>
      <point x="707.809" y="15.9482" type="curve"/>
      <point x="707.81" y="0" type="line"/>
      <point x="628.804" y="0" type="line"/>
      <point x="596.322" y="0" type="line"/>
      <point x="506.313" y="0" type="line"/>
      <point x="506.313" y="15.9482" type="line"/>
      <point x="514.579" y="16.0576"/>
      <point x="520.665" y="16.7842"/>
      <point x="528.231" y="18.3955" type="curve" smooth="yes"/>
      <point x="539.688" y="20.8358"/>
      <point x="548.745" y="25.2374"/>
      <point x="548.745" y="38" type="curve" smooth="yes"/>
      <point x="548.745" y="45.473"/>
      <point x="544.442" y="55.8127"/>
      <point x="535.244" y="70.3037" type="curve" smooth="yes"/>
      <point x="362.012" y="331.63" type="line"/>
      <point x="175.049" y="73.5928" type="line"/>
      <point x="175.175" y="73.6338" type="line"/>
      <point x="160.874" y="54.3809"/>
      <point x="155.523" y="42.0797"/>
      <point x="155.523" y="34" type="curve" smooth="yes"/>
      <point x="155.523" y="22.6859"/>
      <point x="165.775" y="19.6499"/>
      <point x="176.256" y="17.3955" type="curve" smooth="yes"/>
      <point x="183.738" y="15.7861"/>
      <point x="190.937" y="16.0576"/>
      <point x="199.197" y="15.9482" type="curve"/>
      <point x="199.197" y="0" type="line"/>
      <point x="136.076" y="0" type="line"/>
      <point x="101.801" y="0" type="line"/>
      <point x="51" y="0" type="line"/>
      <point x="51" y="15.9482" type="line"/>
      <point x="59.3262" y="16.0576"/>
      <point x="67.6406" y="16.501"/>
      <point x="76.0928" y="18.3955" type="curve" smooth="yes"/>
      <point x="91.1787" y="21.7764"/>
      <point x="102.898" y="35.5127"/>
      <point x="114.683" y="51.875" type="curve" smooth="yes"/>
      <point x="340.05" y="364.808" type="line"/>
      <point x="252.012" y="498.057"/>
      <point x="164.337" y="632.356"/>
      <point x="121.597" y="690.438" type="curve" smooth="yes"/>
      <point x="112.907" y="702.247"/>
      <point x="105.323" y="709.164"/>
      <point x="94.7119" y="711.46" type="curve" smooth="yes"/>
      <point x="86.3584" y="713.268"/>
      <point x="78.0713" y="713.796"/>
    </contour>
  </outline>
</glyph>
<glyph name="Y" format="1">
  <advance width="684"/>
  <unicode hex="0059"/>
  <outline>
    <contour>
      <point x="305.522" y="48.5195" type="line"/>
      <point x="306.669" y="118.065"/>
      <point x="308.296" y="187.735"/>
      <point x="308.296" y="257" type="curve" smooth="yes"/>
      <point x="308.296" y="300.044"/>
      <point x="307.551" y="342.932"/>
      <point x="305.622" y="385.535" type="curve"/>
      <point x="222.294" y="511.778"/>
      <point x="141.374" y="635.367"/>
      <point x="100.85" y="690.438" type="curve" smooth="yes"/>
      <point x="92.1602" y="702.247"/>
      <point x="84.5762" y="709.164"/>
      <point x="73.9648" y="711.46" type="curve" smooth="yes"/>
      <point x="65.6113" y="713.268"/>
      <point x="57.3242" y="713.796"/>
      <point x="49.002" y="713.906" type="curve"/>
      <point x="49" y="729.854" type="line"/>
      <point x="128.006" y="729.854" type="line"/>
      <point x="160.488" y="729.854" type="line"/>
      <point x="250.498" y="729.854" type="line"/>
      <point x="250.498" y="713.906" type="line"/>
      <point x="242.233" y="713.796"/>
      <point x="234.286" y="713.072"/>
      <point x="226.721" y="711.46" type="curve" smooth="yes"/>
      <point x="215.139" y="708.992"/>
      <point x="203.821" y="704.497"/>
      <point x="203.821" y="691.558" type="curve" smooth="yes"/>
      <point x="203.821" y="684.201"/>
      <point x="207.48" y="674.115"/>
      <point x="216.83" y="660.12" type="curve" smooth="yes"/>
      <point x="368.772" y="432.693" type="line"/>
      <point x="532.322" y="656.144" type="line" smooth="yes"/>
      <point x="546.562" y="675.599"/>
      <point x="551.836" y="687.945"/>
      <point x="551.836" y="696.009" type="curve" smooth="yes"/>
      <point x="551.836" y="707.197"/>
      <point x="541.682" y="710.139"/>
      <point x="531.24" y="712.384" type="curve" smooth="yes"/>
      <point x="523.758" y="713.992"/>
      <point x="516.559" y="713.72"/>
      <point x="508.299" y="713.83" type="curve"/>
      <point x="508.299" y="729.777" type="line"/>
      <point x="566.723" y="729.777" type="line"/>
      <point x="600.999" y="729.777" type="line"/>
      <point x="656.497" y="729.777" type="line"/>
      <point x="656.497" y="713.829" type="line"/>
      <point x="631.49" y="713.498"/>
      <point x="612" y="704"/>
      <point x="603" y="691" type="curve"/>
      <point x="387.835" y="395.967" type="line"/>
      <point x="385.725" y="349.577"/>
      <point x="384.925" y="302.874"/>
      <point x="384.925" y="256" type="curve" smooth="yes"/>
      <point x="384.925" y="187.063"/>
      <point x="386.43" y="117.754"/>
      <point x="387.66" y="48.5195" type="curve"/>
      <point x="387.866" y="48.5195" type="line"/>
      <point x="387.866" y="35.2354"/>
      <point x="396.632" y="22.2588"/>
      <point x="415.736" y="18.3945" type="curve" smooth="yes"/>
      <point x="423.693" y="16.7852"/>
      <point x="431.814" y="16.0586"/>
      <point x="440.106" y="15.9473" type="curve"/>
      <point x="440.106" y="0" type="line"/>
      <point x="253.057" y="0" type="line"/>
      <point x="253.057" y="15.9473" type="line"/>
      <point x="261.349" y="16.0586"/>
      <point x="269.472" y="16.7822"/>
      <point x="277.428" y="18.3945" type="curve" smooth="yes"/>
      <point x="296.53" y="22.2656"/>
      <point x="305.298" y="35.2354"/>
      <point x="305.298" y="48.5195" type="curve"/>
    </contour>
  </outline>
</glyph>
<glyph name="Z" format="1">
  <advance width="652"/>
  <unicode hex="005A"/>
  <outline>
    <contour>
      <point x="80" y="0" type="curve" smooth="yes"/>
      <point x="568" y="0" type="line"/>
      <point x="594" y="154" type="line"/>
      <point x="575" y="153" type="line"/>
      <point x="562" y="85"/>
      <point x="534" y="41"/>
      <point x="468" y="32" type="curve" smooth="yes"/>
      <point x="417" y="25"/>
      <point x="332" y="25"/>
      <point x="288" y="25" type="curve" smooth="yes"/>
      <point x="244" y="25"/>
      <point x="201" y="28"/>
      <point x="165" y="33" type="curve"/>
      <point x="590" y="682" type="line"/>
      <point x="595" y="690"/>
      <point x="597" y="699"/>
      <point x="597" y="707" type="curve" smooth="yes"/>
      <point x="597" y="720"/>
      <point x="595" y="727"/>
      <point x="593" y="730" type="curve"/>
      <point x="156" y="730" type="line" smooth="yes"/>
      <point x="152" y="730"/>
      <point x="146" y="731"/>
      <point x="140" y="733" type="curve" smooth="yes"/>
      <point x="135" y="734"/>
      <point x="129" y="735"/>
      <point x="125" y="735" type="curve" smooth="yes"/>
      <point x="120" y="735"/>
      <point x="117" y="734"/>
      <point x="116" y="730" type="curve"/>
      <point x="85" y="590" type="line"/>
      <point x="101" y="591" type="line"/>
      <point x="115" y="652"/>
      <point x="145" y="685"/>
      <point x="213" y="698" type="curve" smooth="yes"/>
      <point x="254" y="706"/>
      <point x="300" y="708"/>
      <point x="359" y="708" type="curve"/>
      <point x="401" y="708"/>
      <point x="466" y="706"/>
      <point x="503" y="704" type="curve"/>
      <point x="60" y="36" type="line"/>
      <point x="57" y="31"/>
      <point x="54" y="24"/>
      <point x="54" y="18" type="curve" smooth="yes"/>
      <point x="54" y="4"/>
      <point x="72" y="0"/>
    </contour>
  </outline>
</glyph>
<glyph name="bracketleft" format="1">
  <advance width="311"/>
  <unicode hex="005B"/>
  <outline>
    <contour>
      <point x="128" y="753" type="line"/>
      <point x="128" y="-47" type="line"/>
      <point x="258" y="-47" type="line" smooth="yes"/>
      <point x="263.87" y="-47"/>
      <point x="266.629" y="-55.5273"/>
      <point x="266.629" y="-66.2842" type="curve" smooth="yes"/>
      <point x="266.629" y="-77.5176"/>
      <point x="263.619" y="-87"/>
      <point x="258" y="-87" type="curve" smooth="yes"/>
      <point x="93" y="-87" type="line"/>
      <point x="80" y="-87"/>
      <point x="74" y="-81"/>
      <point x="74" y="-67" type="curve" smooth="yes"/>
      <point x="74" y="773" type="line" smooth="yes"/>
      <point x="74" y="787"/>
      <point x="81" y="793"/>
      <point x="97" y="793" type="curve"/>
      <point x="258" y="793" type="line" smooth="yes"/>
      <point x="263.87" y="793"/>
      <point x="266.629" y="784.473"/>
      <point x="266.629" y="773.716" type="curve" smooth="yes"/>
      <point x="266.629" y="762.482"/>
      <point x="263.619" y="753"/>
      <point x="258" y="753" type="curve" smooth="yes"/>
    </contour>
  </outline>
</glyph>
<glyph name="backslash" format="1">
  <advance width="398"/>
  <unicode hex="005C"/>
  <outline>
    <contour>
      <point x="356.168" y="-96" type="curve"/>
      <point x="347.367" y="-100.563"/>
      <point x="337.079" y="-103.052"/>
      <point x="327" y="-103.052" type="curve" smooth="yes"/>
      <point x="306.158" y="-103.052"/>
      <point x="286.212" y="-90.3541"/>
      <point x="282.168" y="-58" type="curve"/>
      <point x="282.168" y="-58"/>
      <point x="132" y="425"/>
      <point x="43" y="676" type="curve"/>
      <point x="43" y="689.32"/>
      <point x="51.1804" y="696.256"/>
      <point x="64" y="696.256" type="curve" smooth="yes"/>
      <point x="76.2035" y="696.256"/>
      <point x="92.6111" y="689.655"/>
      <point x="110.168" y="676" type="curve"/>
      <point x="182.168" y="419"/>
      <point x="255.168" y="183"/>
    </contour>
  </outline>
</glyph>
<glyph name="bracketright" format="1">
  <advance width="311"/>
  <unicode hex="005D"/>
  <outline>
    <contour>
      <point x="181" y="753" type="line"/>
      <point x="51" y="753" type="line" smooth="yes"/>
      <point x="45.3809" y="753"/>
      <point x="42.3711" y="762.482"/>
      <point x="42.3711" y="773.716" type="curve" smooth="yes"/>
      <point x="42.3711" y="784.473"/>
      <point x="45.1299" y="793"/>
      <point x="51" y="793" type="curve" smooth="yes"/>
      <point x="212" y="793" type="line"/>
      <point x="228" y="793"/>
      <point x="235" y="787"/>
      <point x="235" y="773" type="curve" smooth="yes"/>
      <point x="235" y="-67" type="line" smooth="yes"/>
      <point x="235" y="-81"/>
      <point x="229" y="-87"/>
      <point x="216" y="-87" type="curve"/>
      <point x="51" y="-87" type="line" smooth="yes"/>
      <point x="45.3809" y="-87"/>
      <point x="42.3711" y="-77.5176"/>
      <point x="42.3711" y="-66.2842" type="curve" smooth="yes"/>
      <point x="42.3711" y="-55.5273"/>
      <point x="45.1299" y="-47"/>
      <point x="51" y="-47" type="curve" smooth="yes"/>
      <point x="181" y="-47" type="line"/>
    </contour>
  </outline>
</glyph>
<glyph name="asciicircum" format="1">
  <advance width="507"/>
  <unicode hex="005E"/>
  <outline>
    <contour>
      <point x="431.776" y="578.776" type="line"/>
      <point x="427.965" y="567.827"/>
      <point x="420.915" y="561.734"/>
      <point x="411.776" y="558.776" type="curve"/>
      <point x="255" y="670" type="line"/>
      <point x="98.2236" y="558.776" type="line"/>
      <point x="87.6348" y="562.161"/>
      <point x="80.915" y="569.126"/>
      <point x="78.2236" y="578.776" type="curve"/>
      <point x="255" y="755.554" type="line"/>
    </contour>
  </outline>
</glyph>
<glyph name="underscore" format="1">
  <advance width="429"/>
  <unicode hex="005F"/>
  <outline>
    <contour>
      <point x="69.75" y="-3" type="line"/>
      <point x="63.25" y="-3"/>
      <point x="60" y="7"/>
      <point x="60" y="17" type="curve" smooth="yes"/>
      <point x="60" y="27"/>
      <point x="63.25" y="37"/>
      <point x="69.75" y="37" type="curve"/>
      <point x="357.75" y="37" type="line"/>
      <point x="363.55" y="37"/>
      <point x="366.74" y="27.6558"/>
      <point x="366.74" y="18" type="curve" smooth="yes"/>
      <point x="366.74" y="7.67803"/>
      <point x="363.95" y="-3"/>
      <point x="357.75" y="-3" type="curve"/>
    </contour>
  </outline>
</glyph>
<glyph name="grave" format="1">
  <advance width="251"/>
  <unicode hex="0060"/>
  <outline>
    <contour>
      <point x="217.718" y="534" type="line"/>
      <point x="165.297" y="569.26"/>
      <point x="48.9902" y="653.121"/>
      <point x="34.1387" y="667.973" type="curve" smooth="yes"/>
      <point x="25.2694" y="676.842"/>
      <point x="21.0681" y="688.445"/>
      <point x="21.0681" y="700" type="curve" smooth="yes"/>
      <point x="21.0681" y="723.187"/>
      <point x="41.8074" y="743.9"/>
      <point x="65" y="743.9" type="curve" smooth="yes"/>
      <point x="76.5443" y="743.9"/>
      <point x="88.134" y="739.69"/>
      <point x="96.9951" y="730.83" type="curve" smooth="yes"/>
      <point x="111.848" y="715.979"/>
      <point x="195.001" y="598.963"/>
      <point x="230.968" y="547.25" type="curve"/>
    </contour>
  </outline>
</glyph>
<glyph name="a" format="1">
  <advance width="525"/>
  <unicode hex="0061"/>
  <outline>
    <contour>
      <point x="468.322" y="49.208" type="curve"/>
      <point x="474.71" y="19.7441" type="line"/>
      <point x="444.513" y="6.22656"/>
      <point x="417.563" y="-6.6084"/>
      <point x="391.349" y="-6.6084" type="curve" smooth="yes"/>
      <point x="367.798" y="-6.6084"/>
      <point x="365.233" y="17.8184"/>
      <point x="365.188" y="28" type="curve" smooth="yes"/>
      <point x="365.339" y="36" type="line"/>
      <point x="365.339" y="38.0315" type="line"/>
      <point x="313.305" y="4.96187"/>
      <point x="259.272" y="-10"/>
      <point x="198.622" y="-10" type="curve" smooth="yes"/>
      <point x="121.534" y="-10"/>
      <point x="50.8691" y="19.9688"/>
      <point x="50.8691" y="107" type="curve" smooth="yes"/>
      <point x="50.8691" y="202.675"/>
      <point x="249.52" y="272.233"/>
      <point x="375.248" y="312.121" type="curve"/>
      <point x="374.79" y="333.619"/>
      <point x="374.61" y="379.869"/>
      <point x="370.134" y="396.446" type="curve" smooth="yes"/>
      <point x="354.109" y="455.785"/>
      <point x="313.417" y="484.978"/>
      <point x="250" y="484.978" type="curve" smooth="yes"/>
      <point x="173.725" y="484.978"/>
      <point x="185.853" y="399.976"/>
      <point x="114" y="399.976" type="curve" smooth="yes"/>
      <point x="94.8965" y="399.976"/>
      <point x="76.7119" y="409.899"/>
      <point x="76.7119" y="425" type="curve" smooth="yes"/>
      <point x="76.7119" y="428.02"/>
      <point x="78.5264" y="431.207"/>
      <point x="81.4365" y="434.507" type="curve" smooth="yes"/>
      <point x="136.492" y="496.938"/>
      <point x="199.729" y="511.8"/>
      <point x="253" y="511.8" type="curve" smooth="yes"/>
      <point x="390.524" y="511.8"/>
      <point x="432.971" y="418.595"/>
      <point x="432.971" y="366.698" type="curve" smooth="yes"/>
      <point x="432.971" y="304.246"/>
      <point x="432.971" y="106.938"/>
      <point x="432.971" y="41.0166" type="curve"/>
      <point x="444.089" y="43.0205"/>
      <point x="456.55" y="45.7305"/>
    </contour>
    <contour>
      <point x="365.339" y="71.0724" type="curve"/>
      <point x="365.339" y="279.281" type="line"/>
      <point x="257.27" y="245.46"/>
      <point x="131.339" y="196.774"/>
      <point x="131.339" y="117" type="curve" smooth="yes"/>
      <point x="131.339" y="54.7861"/>
      <point x="180.331" y="27.042"/>
      <point x="241" y="27.042" type="curve" smooth="yes"/>
      <point x="292.64" y="27.042"/>
      <point x="333.404" y="43.2083"/>
    </contour>
  </outline>
</glyph>
<glyph name="b" format="1">
  <advance width="561"/>
  <unicode hex="0062"/>
  <outline>
    <contour>
      <point x="157.012" y="473.583" type="line"/>
      <point x="191.042" y="498.542"/>
      <point x="226.848" y="512.002"/>
      <point x="277.282" y="512.002" type="curve" smooth="yes"/>
      <point x="398.305" y="512.002"/>
      <point x="507.173" y="451.552"/>
      <point x="507.173" y="253" type="curve" smooth="yes"/>
      <point x="507.173" y="72.8106"/>
      <point x="426.594" y="-10.1565"/>
      <point x="276" y="-10.1565" type="curve" smooth="yes"/>
      <point x="237.024" y="-10.1565"/>
      <point x="191.431" y="-2.14409"/>
      <point x="151.113" y="23.5024" type="curve"/>
      <point x="151.113" y="21.8555" type="line"/>
      <point x="131.584" y="2.93457"/>
      <point x="114.119" y="-3.78906"/>
      <point x="55" y="-3.78906" type="curve"/>
      <point x="55" y="11.7725" type="line"/>
      <point x="60.7715" y="11.8486"/>
      <point x="66.4209" y="12.3584"/>
      <point x="71.96" y="13.4785" type="curve" smooth="yes"/>
      <point x="84.8459" y="16.0852"/>
      <point x="89.755" y="24.6229"/>
      <point x="91.2266" y="33.5894" type="curve" smooth="yes"/>
      <point x="91.2266" y="670.993" type="line" smooth="yes"/>
      <point x="91.2266" y="689.356"/>
      <point x="84.8086" y="701.447"/>
      <point x="71.8799" y="706.038" type="curve" smooth="yes"/>
      <point x="66.5557" y="707.929"/>
      <point x="61.5742" y="709.34"/>
      <point x="57.4092" y="709.34" type="curve"/>
      <point x="57.4092" y="722.924" type="line"/>
      <point x="148.112" y="747.122" type="line" smooth="yes"/>
      <point x="149.191" y="747.41"/>
      <point x="150.149" y="747.506"/>
      <point x="151" y="747.506" type="curve" smooth="yes"/>
      <point x="155.568" y="747.506"/>
      <point x="157.004" y="742.249"/>
      <point x="157.049" y="730.27" type="curve" smooth="yes"/>
    </contour>
    <contour>
      <point x="156.962" y="120.945" type="line"/>
      <point x="176.534" y="63.069"/>
      <point x="211.987" y="11.9277"/>
      <point x="289.612" y="11.9277" type="curve" smooth="yes"/>
      <point x="374.774" y="11.9277"/>
      <point x="431.152" y="95.0166"/>
      <point x="431.152" y="217.758" type="curve" smooth="yes"/>
      <point x="431.152" y="375.178"/>
      <point x="389.41" y="482.08"/>
      <point x="261" y="482.08" type="curve" smooth="yes"/>
      <point x="231.288" y="482.08"/>
      <point x="195.274" y="470.278"/>
      <point x="157.008" y="448.469" type="curve"/>
    </contour>
  </outline>
</glyph>
<glyph name="c" format="1">
  <advance width="508"/>
  <unicode hex="0063"/>
  <outline>
    <contour>
      <point x="459.021" y="86.9834" type="curve"/>
      <point x="473.658" y="66.3623" type="line"/>
      <point x="416.168" y="9.1709"/>
      <point x="363.809" y="-10"/>
      <point x="283.127" y="-10" type="curve" smooth="yes"/>
      <point x="156.265" y="-10"/>
      <point x="46.002" y="83.4736"/>
      <point x="46.002" y="262" type="curve" smooth="yes"/>
      <point x="46.002" y="433.282"/>
      <point x="135.345" y="511.857"/>
      <point x="279" y="511.857" type="curve" smooth="yes"/>
      <point x="333.604" y="511.857"/>
      <point x="401.839" y="495.438"/>
      <point x="457.751" y="432.026" type="curve" smooth="yes"/>
      <point x="460.839" y="428.523"/>
      <point x="462.523" y="425.163"/>
      <point x="462.523" y="422" type="curve" smooth="yes"/>
      <point x="462.523" y="406.979"/>
      <point x="435.77" y="396.485"/>
      <point x="417" y="396.485" type="curve" smooth="yes"/>
      <point x="349.831" y="396.485"/>
      <point x="359.191" y="490.075"/>
      <point x="270.38" y="490.075" type="curve" smooth="yes"/>
      <point x="182.341" y="490.075"/>
      <point x="124.057" y="406.987"/>
      <point x="124.057" y="284.245" type="curve" smooth="yes"/>
      <point x="124.057" y="160.994"/>
      <point x="181.586" y="32.127"/>
      <point x="314" y="32.127" type="curve" smooth="yes"/>
      <point x="356.926" y="32.127"/>
      <point x="407.662" y="48.0244"/>
    </contour>
  </outline>
</glyph>
<glyph name="d" format="1">
  <advance width="545"/>
  <unicode hex="0064"/>
  <outline>
    <contour>
      <point x="488.954" y="43.416" type="curve"/>
      <point x="495.182" y="18.9521" type="line"/>
      <point x="465.741" y="5.43555"/>
      <point x="442.867" y="-7.39941"/>
      <point x="417.31" y="-7.39941" type="curve" smooth="yes"/>
      <point x="397.002" y="-7.39941"/>
      <point x="390.645" y="12.1709"/>
      <point x="389.621" y="26" type="curve" smooth="yes"/>
      <point x="389.514" y="27.4482"/>
      <point x="389.465" y="28.834"/>
      <point x="389.465" y="30.127" type="curve"/>
      <point x="389.408" y="30.085"/>
      <point x="389.352" y="30.042"/>
      <point x="389.295" y="30" type="curve" smooth="yes"/>
      <point x="387.869" y="28.9316"/>
      <point x="386.438" y="27.8828"/>
      <point x="385" y="26.8535" type="curve" smooth="yes"/>
      <point x="352.298" y="3.43164"/>
      <point x="316.303" y="-10"/>
      <point x="266.892" y="-10" type="curve" smooth="yes"/>
      <point x="145.667" y="-10"/>
      <point x="37.001" y="50.6514"/>
      <point x="37.001" y="250" type="curve" smooth="yes"/>
      <point x="37.001" y="425.967"/>
      <point x="115.738" y="512.166"/>
      <point x="264" y="512.166" type="curve" smooth="yes"/>
      <point x="308.449" y="512.166"/>
      <point x="348.241" y="502.571"/>
      <point x="389.465" y="469.122" type="curve"/>
      <point x="389.465" y="671.149" type="line" smooth="yes"/>
      <point x="389.465" y="689.513"/>
      <point x="383.044" y="701.603"/>
      <point x="370.116" y="706.194" type="curve" smooth="yes"/>
      <point x="364.793" y="708.085"/>
      <point x="359.809" y="709.496"/>
      <point x="355.644" y="709.496" type="curve"/>
      <point x="355.644" y="723.08" type="line"/>
      <point x="430" y="742.917" type="line" smooth="yes"/>
      <point x="446.349" y="747.278" type="line" smooth="yes"/>
      <point x="447.328" y="747.54"/>
      <point x="448.209" y="747.668"/>
      <point x="449" y="747.668" type="curve" smooth="yes"/>
      <point x="450.622" y="747.668"/>
      <point x="451.849" y="747.136"/>
      <point x="452.767" y="746" type="curve" smooth="yes"/>
      <point x="454.679" y="743.636"/>
      <point x="455.254" y="738.656"/>
      <point x="455.285" y="730.426" type="curve" smooth="yes"/>
      <point x="455.189" y="61.7139" type="line" smooth="yes"/>
      <point x="455.373" y="59.1523"/>
      <point x="455.468" y="56.3789"/>
      <point x="455.468" y="53.3809" type="curve" smooth="yes"/>
      <point x="455.468" y="46.5654"/>
      <point x="455.468" y="40.4678"/>
      <point x="455.468" y="35.2256" type="curve"/>
      <point x="466.302" y="37.2295"/>
      <point x="477.475" y="39.9395"/>
    </contour>
    <contour>
      <point x="389.465" y="377.951" type="line"/>
      <point x="376.48" y="441.09"/>
      <point x="334.249" y="491.64"/>
      <point x="265" y="491.64" type="curve" smooth="yes"/>
      <point x="163.586" y="491.64"/>
      <point x="113.023" y="406.852"/>
      <point x="113.023" y="284.243" type="curve" smooth="yes"/>
      <point x="113.023" y="126.243"/>
      <point x="154.889" y="19.8711"/>
      <point x="284" y="19.8711" type="curve" smooth="yes"/>
      <point x="316.172" y="19.8711"/>
      <point x="353.229" y="31.7686"/>
      <point x="389.465" y="58.6357" type="curve"/>
      <point x="389.465" y="362" type="line" smooth="yes"/>
    </contour>
  </outline>
</glyph>
<glyph name="e" format="1">
  <advance width="515"/>
  <unicode hex="0065"/>
  <outline>
    <contour>
      <point x="133.212" y="316.585" type="line"/>
      <point x="128.754" y="298.486"/>
      <point x="124.668" y="276.4"/>
      <point x="124.668" y="249.992" type="curve" smooth="yes"/>
      <point x="124.668" y="135.665"/>
      <point x="182.768" y="30.4512"/>
      <point x="314" y="30.4512" type="curve" smooth="yes"/>
      <point x="357.125" y="30.4512"/>
      <point x="408.197" y="46.1436"/>
      <point x="459.901" y="85.3623" type="curve"/>
      <point x="474.554" y="64.7188" type="line"/>
      <point x="422.293" y="12.7295"/>
      <point x="372.265" y="-10.7041"/>
      <point x="297" y="-10.7041" type="curve" smooth="yes"/>
      <point x="166.859" y="-10.7041"/>
      <point x="46.9697" y="62.9639"/>
      <point x="46.9697" y="249" type="curve" smooth="yes"/>
      <point x="46.9697" y="434.188"/>
      <point x="148.317" y="510.682"/>
      <point x="289.562" y="510.682" type="curve" smooth="yes"/>
      <point x="406.441" y="510.682"/>
      <point x="471.478" y="426.267"/>
      <point x="471.478" y="330" type="curve" smooth="yes"/>
      <point x="471.478" y="325.185"/>
      <point x="471.328" y="320.34"/>
      <point x="471.009" y="315.475" type="curve" smooth="yes"/>
      <point x="471.003" y="315.383"/>
      <point x="470.878" y="315.387"/>
      <point x="470.643" y="315.476" type="curve" smooth="yes"/>
    </contour>
    <contour>
      <point x="130.101" y="352.983" type="curve"/>
      <point x="166.027" y="348.812"/>
      <point x="205.109" y="344.541"/>
      <point x="267.486" y="344.541" type="curve" smooth="yes"/>
      <point x="300.808" y="344.541"/>
      <point x="372.171" y="345.87"/>
      <point x="399.037" y="348.471" type="curve"/>
      <point x="397.033" y="438.183"/>
      <point x="343.512" y="488.908"/>
      <point x="271.047" y="488.908" type="curve" smooth="yes"/>
      <point x="192.892" y="488.908"/>
      <point x="147.289" y="426.05"/>
    </contour>
  </outline>
</glyph>
<glyph name="f" format="1">
  <advance width="482"/>
  <unicode hex="0066"/>
  <outline>
    <contour>
      <point x="445.612" y="708.891" type="curve" smooth="yes"/>
      <point x="448.366" y="705.767"/>
      <point x="449.636" y="702.786"/>
      <point x="449.636" y="700" type="curve" smooth="yes"/>
      <point x="449.636" y="687.601"/>
      <point x="426.677" y="679.074"/>
      <point x="411" y="679.074" type="curve" smooth="yes"/>
      <point x="355.291" y="679.074"/>
      <point x="367.347" y="745.104"/>
      <point x="293.104" y="745.104" type="curve" smooth="yes"/>
      <point x="219.235" y="745.104"/>
      <point x="162.427" y="675.39"/>
      <point x="162.427" y="572.407" type="curve" smooth="yes"/>
      <point x="162.945" y="504.654" type="line"/>
      <point x="162.945" y="504.654"/>
      <point x="274.713" y="504.654"/>
      <point x="286.527" y="504.654" type="curve" smooth="yes"/>
      <point x="307.858" y="504.654"/>
      <point x="314.118" y="499.992"/>
      <point x="314.118" y="492" type="curve" smooth="yes"/>
      <point x="314.118" y="488.798"/>
      <point x="313.383" y="485.062"/>
      <point x="312.235" y="480.877" type="curve" smooth="yes"/>
      <point x="307.918" y="465.125" type="line"/>
      <point x="302.21" y="465.125"/>
      <point x="212.783" y="469.078"/>
      <point x="170.847" y="469.078" type="curve"/>
      <point x="170.793" y="37.0503" type="line" smooth="yes"/>
      <point x="172.329" y="28.2051"/>
      <point x="177.274" y="19.8417"/>
      <point x="190.004" y="17.2646" type="curve" smooth="yes"/>
      <point x="195.542" y="16.1436"/>
      <point x="201.192" y="15.6377"/>
      <point x="206.964" y="15.5615" type="curve"/>
      <point x="206.964" y="0" type="line"/>
      <point x="68.8408" y="0" type="line"/>
      <point x="68.8408" y="15.5615" type="line"/>
      <point x="74.6113" y="15.6377"/>
      <point x="80.2627" y="16.1436"/>
      <point x="85.7998" y="17.2646" type="curve" smooth="yes"/>
      <point x="98.6881" y="19.8737"/>
      <point x="103.598" y="28.4141"/>
      <point x="105.067" y="37.3806" type="curve" smooth="yes"/>
      <point x="105.067" y="469.078" type="line"/>
      <point x="75.5166" y="469.078"/>
      <point x="49" y="465.125"/>
      <point x="49" y="465.125" type="curve"/>
      <point x="56.9062" y="500.703" type="line"/>
      <point x="105.067" y="500.703" type="line"/>
      <point x="105.067" y="500.703"/>
      <point x="105.053" y="535.255"/>
      <point x="105.053" y="553" type="curve" smooth="yes"/>
      <point x="105.053" y="560.968"/>
      <point x="105.193" y="570.223"/>
      <point x="105.659" y="577.381" type="curve" smooth="yes"/>
      <point x="114.635" y="715.166"/>
      <point x="190.386" y="766.188"/>
      <point x="314" y="766.188" type="curve" smooth="yes"/>
      <point x="354.36" y="766.188"/>
      <point x="405.329" y="754.585"/>
    </contour>
  </outline>
</glyph>
<glyph name="g" format="1">
  <advance width="496"/>
  <unicode hex="0067"/>
  <outline>
    <contour>
      <point x="420.449" y="-100.783" type="curve" smooth="yes"/>
      <point x="420.449" y="-21.9404"/>
      <point x="334.188" y="-15.9365"/>
      <point x="249.151" y="-8" type="curve" smooth="yes"/>
      <point x="247.151" y="-8"/>
      <point x="234.151" y="-7"/>
      <point x="234.151" y="-7" type="curve" smooth="yes"/>
      <point x="146" y="-38"/>
      <point x="86.9424" y="-54.7783"/>
      <point x="86.9424" y="-122.131" type="curve" smooth="yes"/>
      <point x="86.9424" y="-183.516"/>
      <point x="151.02" y="-210.951"/>
      <point x="223" y="-210.951" type="curve" smooth="yes"/>
      <point x="315.236" y="-210.951"/>
      <point x="420.449" y="-169.195"/>
    </contour>
    <contour>
      <point x="240.597" y="152.907" type="curve" smooth="yes"/>
      <point x="324.751" y="152.907"/>
      <point x="341.362" y="221.823"/>
      <point x="341.362" y="305" type="curve" smooth="yes"/>
      <point x="341.362" y="428.282"/>
      <point x="308.663" y="481.089"/>
      <point x="215.496" y="481.089" type="curve" smooth="yes"/>
      <point x="143.504" y="481.089"/>
      <point x="119.041" y="411.907"/>
      <point x="119.041" y="345.277" type="curve" smooth="yes"/>
      <point x="119.041" y="226.805"/>
      <point x="153.662" y="152.907"/>
    </contour>
    <contour>
      <point x="470.154" y="-71.9111" type="curve" smooth="yes"/>
      <point x="470.154" y="-178.359"/>
      <point x="340.17" y="-235.607"/>
      <point x="222.685" y="-235.607" type="curve" smooth="yes"/>
      <point x="121.216" y="-235.607"/>
      <point x="20.126" y="-215.226"/>
      <point x="20.126" y="-134.368" type="curve" smooth="yes"/>
      <point x="20.126" y="-52.2773"/>
      <point x="141.141" y="-23.4844"/>
      <point x="212.151" y="-3" type="curve"/>
      <point x="174.151" y="-1"/>
      <point x="141.777" y="3.4082"/>
      <point x="119.151" y="8" type="curve" smooth="yes"/>
      <point x="89.2607" y="14.0654"/>
      <point x="59.7812" y="26.2295"/>
      <point x="59.7812" y="45.3359" type="curve" smooth="yes"/>
      <point x="59.7812" y="84.9561"/>
      <point x="176.734" y="110.433"/>
      <point x="210.151" y="122" type="curve"/>
      <point x="134.003" y="126.819"/>
      <point x="45.7754" y="176.237"/>
      <point x="45.7754" y="323.987" type="curve" smooth="yes"/>
      <point x="45.7754" y="441.377"/>
      <point x="109.943" y="496.077"/>
      <point x="190.151" y="508" type="curve" smooth="yes"/>
      <point x="202.297" y="509.806"/>
      <point x="215.232" y="510.067"/>
      <point x="227.697" y="510.067" type="curve" smooth="yes"/>
      <point x="267.003" y="510.067"/>
      <point x="307.682" y="499.83"/>
      <point x="340.151" y="475" type="curve"/>
      <point x="371.151" y="495"/>
      <point x="398.151" y="507"/>
      <point x="437.151" y="507" type="curve" smooth="yes"/>
      <point x="445.367" y="507"/>
      <point x="452" y="498.25"/>
      <point x="452" y="487.691" type="curve" smooth="yes"/>
      <point x="452" y="475.117"/>
      <point x="444.474" y="465.602"/>
      <point x="437.151" y="458" type="curve" smooth="yes"/>
      <point x="427.462" y="447.94"/>
      <point x="412.812" y="442.282"/>
      <point x="394" y="442.282" type="curve" smooth="yes"/>
      <point x="386.667" y="442.282"/>
      <point x="378.701" y="443.173"/>
      <point x="370.151" y="445" type="curve"/>
      <point x="394.605" y="412.081"/>
      <point x="409.329" y="365.007"/>
      <point x="409.329" y="300.451" type="curve" smooth="yes"/>
      <point x="409.329" y="119.164"/>
      <point x="268.36" y="134.025"/>
      <point x="163.151" y="80" type="curve" smooth="yes"/>
      <point x="158.094" y="77.0498"/>
      <point x="155.131" y="73.0342"/>
      <point x="155.131" y="69" type="curve" smooth="yes"/>
      <point x="155.131" y="63.4629"/>
      <point x="159.316" y="57.8926"/>
      <point x="169.151" y="55" type="curve" smooth="yes"/>
      <point x="175.151" y="53"/>
      <point x="195.596" y="52.5557"/>
      <point x="205.411" y="52.5557" type="curve" smooth="yes"/>
      <point x="302.151" y="46" type="line" smooth="yes"/>
      <point x="403.82" y="35.3047"/>
      <point x="470.154" y="11.3291"/>
    </contour>
  </outline>
</glyph>
<glyph name="h" format="1">
  <advance width="516"/>
  <unicode hex="0068"/>
  <outline>
    <contour>
      <point x="176.383" y="17.2637" type="curve" smooth="yes"/>
      <point x="181.92" y="16.1426"/>
      <point x="187.571" y="15.6367"/>
      <point x="193.342" y="15.5605" type="curve"/>
      <point x="193.342" y="0" type="line"/>
      <point x="55" y="0" type="line"/>
      <point x="55" y="15.5605" type="line"/>
      <point x="60.7715" y="15.6367"/>
      <point x="66.4219" y="16.1426"/>
      <point x="71.96" y="17.2637" type="curve" smooth="yes"/>
      <point x="85.1281" y="19.9304"/>
      <point x="89.9662" y="28.7879"/>
      <point x="91.3184" y="37.9644" type="curve" smooth="yes"/>
      <point x="91.3184" y="669.213" type="line" smooth="yes"/>
      <point x="91.3184" y="687.576"/>
      <point x="84.8975" y="699.665"/>
      <point x="71.9697" y="704.258" type="curve" smooth="yes"/>
      <point x="66.6475" y="706.148"/>
      <point x="61.6631" y="707.56"/>
      <point x="57.498" y="707.56" type="curve"/>
      <point x="57.498" y="721.144" type="line"/>
      <point x="148.202" y="745.342" type="line" smooth="yes"/>
      <point x="149.243" y="745.62"/>
      <point x="150.172" y="745.729"/>
      <point x="151" y="745.729" type="curve" smooth="yes"/>
      <point x="155.639" y="745.729"/>
      <point x="157.093" y="740.547"/>
      <point x="157.139" y="728.489" type="curve" smooth="yes"/>
      <point x="157.101" y="467.537" type="line"/>
      <point x="198.665" y="495.738"/>
      <point x="236.013" y="509.935"/>
      <point x="295.275" y="509.935" type="curve" smooth="yes"/>
      <point x="375.065" y="509.935"/>
      <point x="458.926" y="459.675"/>
      <point x="458.926" y="351.306" type="curve" smooth="yes"/>
      <point x="458.859" y="36.883" type="line" smooth="yes"/>
      <point x="460.428" y="28.1004"/>
      <point x="465.393" y="19.8255"/>
      <point x="478.042" y="17.2637" type="curve" smooth="yes"/>
      <point x="483.578" y="16.1426"/>
      <point x="489.229" y="15.6367"/>
      <point x="495.001" y="15.5605" type="curve"/>
      <point x="495.001" y="0" type="line"/>
      <point x="356.862" y="0" type="line"/>
      <point x="356.862" y="15.5605" type="line"/>
      <point x="362.634" y="15.6367"/>
      <point x="368.285" y="16.1426"/>
      <point x="373.822" y="17.2637" type="curve" smooth="yes"/>
      <point x="386.836" y="19.8992"/>
      <point x="391.715" y="28.5813"/>
      <point x="393.131" y="37.6421" type="curve" smooth="yes"/>
      <point x="393.131" y="351.364" type="line" smooth="yes"/>
      <point x="393.131" y="422.642"/>
      <point x="342.983" y="479.364"/>
      <point x="277.102" y="479.364" type="curve" smooth="yes"/>
      <point x="242.843" y="479.364"/>
      <point x="204.226" y="469.027"/>
      <point x="157.097" y="437.802" type="curve"/>
      <point x="157.04" y="37.8674" type="line" smooth="yes"/>
      <point x="158.411" y="28.7255"/>
      <point x="163.261" y="19.92"/>
    </contour>
  </outline>
</glyph>
<glyph name="i" format="1">
  <advance width="251"/>
  <unicode hex="0069"/>
  <outline>
    <contour>
      <point x="70.75" y="670.02" type="curve" smooth="yes"/>
      <point x="70.75" y="695.672"/>
      <point x="91.5449" y="716.467"/>
      <point x="117.197" y="716.467" type="curve" smooth="yes"/>
      <point x="142.849" y="716.467"/>
      <point x="163.644" y="695.672"/>
      <point x="163.644" y="670.02" type="curve" smooth="yes"/>
      <point x="163.644" y="644.368"/>
      <point x="142.849" y="623.573"/>
      <point x="117.197" y="623.573" type="curve" smooth="yes"/>
      <point x="91.5449" y="623.573"/>
      <point x="70.75" y="644.368"/>
    </contour>
    <contour>
      <point x="179.141" y="17.2637" type="curve" smooth="yes"/>
      <point x="184.679" y="16.1426"/>
      <point x="190.331" y="15.6367"/>
      <point x="196.101" y="15.5605" type="curve"/>
      <point x="196.101" y="0" type="line"/>
      <point x="56" y="0" type="line"/>
      <point x="56" y="15.5605" type="line"/>
      <point x="61.7715" y="15.6367"/>
      <point x="67.4229" y="16.1416"/>
      <point x="72.9619" y="17.2637" type="curve" smooth="yes"/>
      <point x="85.8526" y="19.8744"/>
      <point x="90.7594" y="28.4186"/>
      <point x="92.2285" y="37.3867" type="curve" smooth="yes"/>
      <point x="92.2285" y="440.716" type="line" smooth="yes"/>
      <point x="92.2285" y="459.08"/>
      <point x="85.1299" y="465.375"/>
      <point x="72.8809" y="467.855" type="curve" smooth="yes"/>
      <point x="67.3438" y="468.977"/>
      <point x="62.5742" y="469.181"/>
      <point x="58.4092" y="469.181" type="curve"/>
      <point x="58.4092" y="482.765" type="line"/>
      <point x="151.09" y="508.938" type="line" smooth="yes"/>
      <point x="152.177" y="509.246"/>
      <point x="153.144" y="509.352"/>
      <point x="154" y="509.352" type="curve" smooth="yes"/>
      <point x="158.521" y="509.352"/>
      <point x="159.981" y="504.032"/>
      <point x="160.027" y="492.086" type="curve" smooth="yes"/>
      <point x="159.933" y="37.0335" type="line" smooth="yes"/>
      <point x="161.472" y="28.195"/>
      <point x="166.418" y="19.8391"/>
    </contour>
  </outline>
</glyph>
<glyph name="j" format="1">
  <advance width="248"/>
  <unicode hex="006A"/>
  <outline>
    <contour>
      <point x="81.1074" y="667.388" type="curve" smooth="yes"/>
      <point x="81.1074" y="693.039"/>
      <point x="101.902" y="713.834"/>
      <point x="127.554" y="713.834" type="curve" smooth="yes"/>
      <point x="153.205" y="713.834"/>
      <point x="174" y="693.039"/>
      <point x="174" y="667.388" type="curve" smooth="yes"/>
      <point x="174" y="641.736"/>
      <point x="153.205" y="620.942"/>
      <point x="127.554" y="620.942" type="curve" smooth="yes"/>
      <point x="101.902" y="620.942"/>
      <point x="81.1074" y="641.736"/>
    </contour>
    <contour>
      <point x="170.383" y="492.454" type="curve" smooth="yes"/>
      <point x="170.283" y="90.4648" type="line" smooth="yes"/>
      <point x="170.237" y="75.6439"/>
      <point x="170.161" y="60.8178"/>
      <point x="170.161" y="46" type="curve" smooth="yes"/>
      <point x="170.161" y="-6.91664"/>
      <point x="157.426" y="-41.5453"/>
      <point x="115.621" y="-83.7832" type="curve" smooth="yes"/>
      <point x="88.5384" y="-111.146"/>
      <point x="28.1672" y="-153.523"/>
      <point x="-49" y="-153.523" type="curve" smooth="yes"/>
      <point x="-70.7076" y="-153.523"/>
      <point x="-93.7444" y="-150.073"/>
      <point x="-117.743" y="-142" type="curve" smooth="yes"/>
      <point x="-125.987" y="-139.227"/>
      <point x="-128.956" y="-134.079"/>
      <point x="-128.956" y="-128" type="curve" smooth="yes"/>
      <point x="-128.956" y="-105.135"/>
      <point x="-96.335" y="-83.2391"/>
      <point x="-70" y="-83.2391" type="curve" smooth="yes"/>
      <point x="-38.5627" y="-83.2391"/>
      <point x="-14.7457" y="-107.615"/>
      <point x="16" y="-107.615" type="curve" smooth="yes"/>
      <point x="25.1858" y="-107.615"/>
      <point x="34.9901" y="-105.511"/>
      <point x="45.8008" y="-99.9277" type="curve" smooth="yes"/>
      <point x="100.623" y="-71.6143"/>
      <point x="102.586" y="-39.8525"/>
      <point x="102.586" y="28.46" type="curve" smooth="yes"/>
      <point x="102.586" y="441.084" type="line" smooth="yes"/>
      <point x="102.586" y="459.448"/>
      <point x="95.4854" y="465.744"/>
      <point x="83.2373" y="468.224" type="curve" smooth="yes"/>
      <point x="77.7002" y="469.345"/>
      <point x="72.9297" y="469.549"/>
      <point x="68.7646" y="469.549" type="curve"/>
      <point x="68.7646" y="483.133" type="line"/>
      <point x="161.446" y="509.307" type="line" smooth="yes"/>
      <point x="162.386" y="509.572"/>
      <point x="163.234" y="509.725"/>
      <point x="164" y="509.725" type="curve" smooth="yes"/>
      <point x="168.802" y="509.725"/>
      <point x="170.337" y="504.709"/>
    </contour>
  </outline>
</glyph>
<glyph name="k" format="1">
  <advance width="533"/>
  <unicode hex="006B"/>
  <outline>
    <contour>
      <point x="495" y="17" type="curve" smooth="yes"/>
      <point x="500" y="16"/>
      <point x="502" y="16"/>
      <point x="506" y="16" type="curve"/>
      <point x="506" y="0" type="line"/>
      <point x="366" y="0" type="line"/>
      <point x="366" y="16" type="line"/>
      <point x="372" y="16"/>
      <point x="374" y="16"/>
      <point x="379" y="17" type="curve" smooth="yes"/>
      <point x="387.266" y="19.2544"/>
      <point x="390.249" y="22.6382"/>
      <point x="390.249" y="28" type="curve" smooth="yes"/>
      <point x="390.249" y="56.2377"/>
      <point x="340.313" y="115.161"/>
      <point x="278" y="195" type="curve" smooth="yes"/>
      <point x="214" y="277"/>
      <point x="206" y="297"/>
      <point x="173" y="297" type="curve" smooth="yes"/>
      <point x="167" y="297"/>
      <point x="162" y="296"/>
      <point x="157" y="292" type="curve"/>
      <point x="157" y="37" type="line" smooth="yes"/>
      <point x="159" y="28"/>
      <point x="164" y="20"/>
      <point x="176" y="17" type="curve" smooth="yes"/>
      <point x="182" y="16"/>
      <point x="187" y="16"/>
      <point x="193" y="16" type="curve"/>
      <point x="193" y="0" type="line"/>
      <point x="55" y="0" type="line"/>
      <point x="55" y="16" type="line"/>
      <point x="61" y="16"/>
      <point x="66" y="16"/>
      <point x="72" y="17" type="curve" smooth="yes"/>
      <point x="85" y="20"/>
      <point x="90" y="29"/>
      <point x="91" y="38" type="curve"/>
      <point x="91" y="669" type="line" smooth="yes"/>
      <point x="91" y="688"/>
      <point x="85" y="702"/>
      <point x="72" y="706" type="curve" smooth="yes"/>
      <point x="67" y="708"/>
      <point x="62" y="708"/>
      <point x="57" y="708" type="curve"/>
      <point x="57" y="721" type="line"/>
      <point x="137" y="742" type="line" smooth="yes"/>
      <point x="140.422" y="743.053"/>
      <point x="143.428" y="743.612"/>
      <point x="146" y="743.612" type="curve" smooth="yes"/>
      <point x="153.2" y="743.612"/>
      <point x="157" y="739.052"/>
      <point x="157" y="728" type="curve" smooth="yes"/>
      <point x="157" y="350" type="line"/>
      <point x="158" y="329"/>
      <point x="169" y="326"/>
      <point x="178" y="326" type="curve" smooth="yes"/>
      <point x="191.675" y="326"/>
      <point x="208.574" y="342.051"/>
      <point x="280" y="400" type="curve" smooth="yes"/>
      <point x="333" y="443"/>
      <point x="360" y="470.667"/>
      <point x="360" y="482.667" type="curve" smooth="yes"/>
      <point x="360" y="486.667"/>
      <point x="357" y="488.667"/>
      <point x="353" y="489.667" type="curve" smooth="yes"/>
      <point x="347" y="490.667"/>
      <point x="342" y="490.667"/>
      <point x="336" y="490.667" type="curve"/>
      <point x="336" y="506.667" type="line"/>
      <point x="475" y="506.667" type="line"/>
      <point x="475" y="490.667" type="line"/>
      <point x="456" y="490.667"/>
      <point x="440" y="487.667"/>
      <point x="428" y="481.667" type="curve" smooth="yes"/>
      <point x="386" y="460.667"/>
      <point x="349" y="413"/>
      <point x="251" y="338" type="curve"/>
      <point x="251" y="324"/>
      <point x="279" y="294"/>
      <point x="348" y="203" type="curve" smooth="yes"/>
      <point x="420" y="109"/>
      <point x="447" y="66"/>
      <point x="462" y="46" type="curve" smooth="yes"/>
      <point x="477" y="26"/>
      <point x="484" y="21"/>
    </contour>
  </outline>
</glyph>
<glyph name="l" format="1">
  <advance width="241"/>
  <unicode hex="006C"/>
  <outline>
    <contour>
      <point x="173.164" y="17.2646" type="curve" smooth="yes"/>
      <point x="178.701" y="16.1436"/>
      <point x="184.353" y="15.6377"/>
      <point x="190.123" y="15.5615" type="curve"/>
      <point x="190.123" y="0" type="line"/>
      <point x="52" y="0" type="line"/>
      <point x="52" y="15.5615" type="line"/>
      <point x="57.7715" y="15.6377"/>
      <point x="63.4219" y="16.1436"/>
      <point x="68.96" y="17.2646" type="curve" smooth="yes"/>
      <point x="81.8459" y="19.8733"/>
      <point x="86.755" y="28.411"/>
      <point x="88.2266" y="37.3757" type="curve" smooth="yes"/>
      <point x="88.2266" y="692.57" type="line" smooth="yes"/>
      <point x="88.2266" y="710.934"/>
      <point x="81.8086" y="723.026"/>
      <point x="68.8799" y="727.615" type="curve" smooth="yes"/>
      <point x="63.5557" y="729.505"/>
      <point x="58.5742" y="730.916"/>
      <point x="54.4092" y="730.916" type="curve"/>
      <point x="54.4092" y="744.5" type="line"/>
      <point x="145.112" y="768.697" type="line" smooth="yes"/>
      <point x="146.191" y="768.985"/>
      <point x="147.15" y="769.081"/>
      <point x="148" y="769.081" type="curve" smooth="yes"/>
      <point x="152.568" y="769.081"/>
      <point x="154.004" y="763.824"/>
      <point x="154.049" y="751.845" type="curve" smooth="yes"/>
      <point x="153.954" y="37.0436" type="line" smooth="yes"/>
      <point x="155.492" y="28.2009"/>
      <point x="160.437" y="19.841"/>
    </contour>
  </outline>
</glyph>
<glyph name="m" format="1">
  <advance width="857"/>
  <unicode hex="006D"/>
  <outline>
    <contour>
      <point x="182.117" y="17.2637" type="curve" smooth="yes"/>
      <point x="187.654" y="16.1426"/>
      <point x="193.306" y="15.6367"/>
      <point x="199.077" y="15.5605" type="curve"/>
      <point x="199.077" y="0" type="line"/>
      <point x="57" y="0" type="line"/>
      <point x="57" y="15.5605" type="line"/>
      <point x="62.7715" y="15.6367"/>
      <point x="68.4219" y="16.1416"/>
      <point x="73.96" y="17.2637" type="curve" smooth="yes"/>
      <point x="86.8478" y="19.8738"/>
      <point x="91.7571" y="28.4148"/>
      <point x="93.2275" y="37.3808" type="curve" smooth="yes"/>
      <point x="93.2275" y="437.545" type="line" smooth="yes"/>
      <point x="93.2275" y="455.909"/>
      <point x="86.8105" y="468.003"/>
      <point x="73.8809" y="472.591" type="curve" smooth="yes"/>
      <point x="68.5557" y="474.48"/>
      <point x="63.5752" y="475.892"/>
      <point x="59.4092" y="475.892" type="curve"/>
      <point x="59.4092" y="489.476" type="line"/>
      <point x="154.065" y="513.674" type="line" smooth="yes"/>
      <point x="155.33" y="513.997"/>
      <point x="156.429" y="514"/>
      <point x="157.381" y="514" type="curve" smooth="yes"/>
      <point x="161.629" y="514"/>
      <point x="162.958" y="508.428"/>
      <point x="163.002" y="496.821" type="curve" smooth="yes"/>
      <point x="163.002" y="484.826"/>
      <point x="162.995" y="472.83"/>
      <point x="162.995" y="460.834" type="curve"/>
      <point x="204.367" y="492.795"/>
      <point x="241.655" y="510.255"/>
      <point x="300.689" y="510.255" type="curve" smooth="yes"/>
      <point x="359.696" y="510.255"/>
      <point x="416.994" y="486.886"/>
      <point x="448.657" y="424.796" type="curve"/>
      <point x="489.01" y="491.349"/>
      <point x="537.223" y="508.255"/>
      <point x="601.555" y="508.255" type="curve" smooth="yes"/>
      <point x="681.346" y="508.255"/>
      <point x="765.208" y="456.995"/>
      <point x="765.208" y="348.626" type="curve" smooth="yes"/>
      <point x="765.14" y="37.0305" type="line" smooth="yes"/>
      <point x="766.679" y="28.1932"/>
      <point x="771.629" y="19.8398"/>
      <point x="784.35" y="17.2637" type="curve" smooth="yes"/>
      <point x="789.885" y="16.1426"/>
      <point x="795.537" y="15.6367"/>
      <point x="801.309" y="15.5605" type="curve"/>
      <point x="801.309" y="0" type="line"/>
      <point x="663.186" y="0" type="line"/>
      <point x="663.186" y="15.5605" type="line"/>
      <point x="668.955" y="15.6367"/>
      <point x="674.607" y="16.1426"/>
      <point x="680.145" y="17.2637" type="curve" smooth="yes"/>
      <point x="693.037" y="19.8743"/>
      <point x="697.945" y="28.4179"/>
      <point x="699.413" y="37.3857" type="curve" smooth="yes"/>
      <point x="699.413" y="344.685" type="line" smooth="yes"/>
      <point x="699.413" y="425.962"/>
      <point x="658.015" y="480.936"/>
      <point x="587.134" y="480.936" type="curve" smooth="yes"/>
      <point x="549.303" y="480.936"/>
      <point x="504.24" y="467.396"/>
      <point x="462.332" y="400.316" type="curve" smooth="yes"/>
      <point x="463.546" y="395.73"/>
      <point x="464.34" y="390.385"/>
      <point x="464.34" y="384.25" type="curve" smooth="yes"/>
      <point x="464.271" y="37.0451" type="line" smooth="yes"/>
      <point x="465.807" y="28.2024"/>
      <point x="470.756" y="19.8412"/>
      <point x="483.483" y="17.2637" type="curve" smooth="yes"/>
      <point x="489.019" y="16.1426"/>
      <point x="494.67" y="15.6367"/>
      <point x="500.441" y="15.5605" type="curve"/>
      <point x="500.441" y="0" type="line"/>
      <point x="362.32" y="0" type="line"/>
      <point x="362.32" y="15.5605" type="line"/>
      <point x="368.089" y="15.6367"/>
      <point x="373.741" y="16.1426"/>
      <point x="379.279" y="17.2637" type="curve" smooth="yes"/>
      <point x="392.165" y="19.8732"/>
      <point x="397.074" y="28.4107"/>
      <point x="398.545" y="37.3743" type="curve" smooth="yes"/>
      <point x="398.545" y="351.685" type="line" smooth="yes"/>
      <point x="398.545" y="422.962"/>
      <point x="346.148" y="481.936"/>
      <point x="280.266" y="481.936" type="curve" smooth="yes"/>
      <point x="239.237" y="481.936"/>
      <point x="202.272" y="467.819"/>
      <point x="162.99" y="438.793" type="curve"/>
      <point x="162.91" y="37.0238" type="line" smooth="yes"/>
      <point x="164.451" y="28.1889"/>
      <point x="169.4" y="19.8382"/>
    </contour>
  </outline>
</glyph>
<glyph name="n" format="1">
  <advance width="556"/>
  <unicode hex="006E"/>
  <outline>
    <contour>
      <point x="182.117" y="17.2627" type="curve" smooth="yes"/>
      <point x="187.654" y="16.1406"/>
      <point x="193.307" y="15.6357"/>
      <point x="199.077" y="15.5586" type="curve"/>
      <point x="199.077" y="0" type="line"/>
      <point x="57" y="0" type="line"/>
      <point x="57" y="15.5586" type="line"/>
      <point x="62.7715" y="15.6357"/>
      <point x="68.4219" y="16.1406"/>
      <point x="73.96" y="17.2627" type="curve" smooth="yes"/>
      <point x="86.8506" y="19.8744"/>
      <point x="91.7593" y="28.4177"/>
      <point x="93.2285" y="37.3867" type="curve" smooth="yes"/>
      <point x="93.2285" y="437.169" type="line" smooth="yes"/>
      <point x="93.2285" y="455.532"/>
      <point x="86.8115" y="467.627"/>
      <point x="73.8809" y="472.215" type="curve" smooth="yes"/>
      <point x="68.5557" y="474.104"/>
      <point x="63.5752" y="475.516"/>
      <point x="59.4092" y="475.516" type="curve"/>
      <point x="59.4092" y="489.1" type="line"/>
      <point x="154.064" y="513.299" type="line" smooth="yes"/>
      <point x="154.758" y="513.476"/>
      <point x="156.402" y="514"/>
      <point x="157" y="514" type="curve" smooth="yes"/>
      <point x="161.357" y="514"/>
      <point x="163.002" y="512"/>
      <point x="163.002" y="496.446" type="curve" smooth="yes"/>
      <point x="163.002" y="486.34"/>
      <point x="162.996" y="476.233"/>
      <point x="162.996" y="466.126" type="curve"/>
      <point x="204.432" y="495.536"/>
      <point x="241.74" y="510.336"/>
      <point x="300.85" y="510.336" type="curve" smooth="yes"/>
      <point x="380.639" y="510.336"/>
      <point x="464.499" y="460.077"/>
      <point x="464.499" y="351.708" type="curve" smooth="yes"/>
      <point x="464.431" y="36.1885" type="line" smooth="yes"/>
      <point x="466.134" y="27.667"/>
      <point x="471.165" y="19.7596"/>
      <point x="483.483" y="17.2627" type="curve" smooth="yes"/>
      <point x="489.019" y="16.1406"/>
      <point x="494.67" y="15.6357"/>
      <point x="500.441" y="15.5586" type="curve"/>
      <point x="500.441" y="0" type="line"/>
      <point x="362.32" y="0" type="line"/>
      <point x="362.32" y="15.5586" type="line"/>
      <point x="368.089" y="15.6357"/>
      <point x="373.741" y="16.1406"/>
      <point x="379.279" y="17.2627" type="curve" smooth="yes"/>
      <point x="392.574" y="19.9561"/>
      <point x="397.378" y="28.958"/>
      <point x="398.675" y="38.2295" type="curve"/>
      <point x="398.704" y="38.2295" type="line"/>
      <point x="398.704" y="351.766" type="line" smooth="yes"/>
      <point x="398.704" y="423.043"/>
      <point x="346.308" y="482.017"/>
      <point x="280.425" y="482.017" type="curve" smooth="yes"/>
      <point x="246.724" y="482.017"/>
      <point x="204.37" y="469.854"/>
      <point x="162.991" y="443.526" type="curve"/>
      <point x="162.91" y="37.0234" type="line" smooth="yes"/>
      <point x="164.45" y="28.1875"/>
      <point x="169.4" y="19.84"/>
    </contour>
  </outline>
</glyph>
<glyph name="o" format="1">
  <advance width="534"/>
  <unicode hex="006F"/>
  <outline>
    <contour>
      <point x="273" y="-10.2734" type="curve" smooth="yes"/>
      <point x="148.661" y="-10.2734"/>
      <point x="40.9424" y="53.9531"/>
      <point x="40.9424" y="249" type="curve" smooth="yes"/>
      <point x="40.9424" y="433.657"/>
      <point x="130.89" y="510.544"/>
      <point x="252" y="510.544" type="curve" smooth="yes"/>
      <point x="362.759" y="510.544"/>
      <point x="487.081" y="441.836"/>
      <point x="487.081" y="254" type="curve" smooth="yes"/>
      <point x="487.081" y="80.9248"/>
      <point x="401.555" y="-10.2734"/>
    </contour>
    <contour>
      <point x="117.237" y="275.018" type="curve" smooth="yes"/>
      <point x="117.237" y="167.214"/>
      <point x="146.925" y="20.1914"/>
      <point x="279.292" y="20.1914" type="curve" smooth="yes"/>
      <point x="372.266" y="20.1914"/>
      <point x="410.789" y="125.749"/>
      <point x="410.789" y="215.252" type="curve" smooth="yes"/>
      <point x="410.789" y="323.056"/>
      <point x="394.099" y="481.079"/>
      <point x="248.734" y="481.079" type="curve" smooth="yes"/>
      <point x="155.815" y="481.079"/>
      <point x="117.237" y="383.447"/>
    </contour>
  </outline>
</glyph>
<glyph name="p" format="1">
  <advance width="544"/>
  <unicode hex="0070"/>
  <outline>
    <contour>
      <point x="50" y="-232" type="line"/>
      <point x="188" y="-232" type="line"/>
      <point x="188" y="-216" type="line"/>
      <point x="182" y="-216"/>
      <point x="177" y="-216"/>
      <point x="171" y="-215" type="curve" smooth="yes"/>
      <point x="158" y="-213"/>
      <point x="152" y="-204"/>
      <point x="152" y="-195" type="curve" smooth="yes"/>
      <point x="152" y="23" type="line"/>
      <point x="194" y="-4"/>
      <point x="238" y="-13"/>
      <point x="275" y="-13" type="curve" smooth="yes"/>
      <point x="423" y="-13"/>
      <point x="502" y="73"/>
      <point x="502" y="251" type="curve" smooth="yes"/>
      <point x="502" y="449"/>
      <point x="393" y="509"/>
      <point x="272" y="509" type="curve" smooth="yes"/>
      <point x="222" y="509"/>
      <point x="186" y="496"/>
      <point x="152" y="471" type="curve"/>
      <point x="152" y="479"/>
      <point x="152" y="488"/>
      <point x="152" y="496" type="curve" smooth="yes"/>
      <point x="152" y="508"/>
      <point x="151" y="513"/>
      <point x="146" y="513" type="curve" smooth="yes"/>
      <point x="145" y="513"/>
      <point x="144" y="513"/>
      <point x="143" y="513" type="curve" smooth="yes"/>
      <point x="52" y="489" type="line"/>
      <point x="52" y="475" type="line"/>
      <point x="57" y="475"/>
      <point x="62" y="474"/>
      <point x="67" y="472" type="curve" smooth="yes"/>
      <point x="80" y="467"/>
      <point x="86" y="455"/>
      <point x="86" y="437" type="curve" smooth="yes"/>
      <point x="86" y="-195" type="line" smooth="yes"/>
      <point x="86" y="-204"/>
      <point x="80" y="-213"/>
      <point x="67" y="-215" type="curve" smooth="yes"/>
      <point x="61" y="-216"/>
      <point x="56" y="-216"/>
      <point x="50" y="-216" type="curve"/>
    </contour>
    <contour>
      <point x="285" y="9" type="curve" smooth="yes"/>
      <point x="207" y="9"/>
      <point x="172" y="60"/>
      <point x="152" y="118" type="curve"/>
      <point x="152" y="446" type="line"/>
      <point x="191" y="468"/>
      <point x="227" y="479"/>
      <point x="257" y="479" type="curve" smooth="yes"/>
      <point x="384" y="479"/>
      <point x="426" y="372"/>
      <point x="426" y="215" type="curve" smooth="yes"/>
      <point x="426" y="92"/>
      <point x="370" y="9"/>
    </contour>
  </outline>
</glyph>
<glyph name="q" format="1">
  <advance width="564"/>
  <unicode hex="0071"/>
  <outline>
    <contour>
      <point x="422" y="21" type="curve"/>
      <point x="424" y="51" type="line"/>
      <point x="387" y="31"/>
      <point x="353" y="24"/>
      <point x="323" y="24" type="curve" smooth="yes"/>
      <point x="185" y="24"/>
      <point x="134" y="149"/>
      <point x="134" y="275" type="curve" smooth="yes"/>
      <point x="134" y="401"/>
      <point x="192" y="487"/>
      <point x="281" y="487" type="curve" smooth="yes"/>
      <point x="340" y="487"/>
      <point x="381" y="459"/>
      <point x="414" y="426" type="curve" smooth="yes"/>
      <point x="416" y="424"/>
      <point x="416" y="422"/>
      <point x="416" y="419" type="curve"/>
      <point x="424" y="468" type="line"/>
      <point x="379" y="499"/>
      <point x="330" y="509"/>
      <point x="289" y="509" type="curve" smooth="yes"/>
      <point x="272" y="509"/>
      <point x="257" y="507"/>
      <point x="244" y="505" type="curve" smooth="yes"/>
      <point x="132" y="488"/>
      <point x="55" y="419"/>
      <point x="55" y="255" type="curve" smooth="yes"/>
      <point x="55" y="81"/>
      <point x="163" y="-13"/>
      <point x="292" y="-13" type="curve" smooth="yes"/>
      <point x="342" y="-13"/>
      <point x="385" y="2"/>
    </contour>
    <contour>
      <point x="416" y="419" type="line"/>
      <point x="416" y="-195" type="line" smooth="yes"/>
      <point x="416" y="-204"/>
      <point x="410" y="-213"/>
      <point x="397" y="-215" type="curve" smooth="yes"/>
      <point x="391" y="-216"/>
      <point x="386" y="-216"/>
      <point x="380" y="-216" type="curve"/>
      <point x="380" y="-232" type="line"/>
      <point x="518" y="-232" type="line"/>
      <point x="518" y="-216" type="line"/>
      <point x="512" y="-216"/>
      <point x="507" y="-216"/>
      <point x="501" y="-215" type="curve" smooth="yes"/>
      <point x="488" y="-213"/>
      <point x="482" y="-204"/>
      <point x="482" y="-195" type="curve" smooth="yes"/>
      <point x="482" y="492" type="line" smooth="yes"/>
      <point x="482" y="504"/>
      <point x="480" y="510"/>
      <point x="476" y="510" type="curve" smooth="yes"/>
      <point x="475" y="510"/>
      <point x="474" y="510"/>
      <point x="473" y="509" type="curve" smooth="yes"/>
      <point x="397" y="470" type="line"/>
    </contour>
  </outline>
</glyph>
<glyph name="r" format="1">
  <advance width="377"/>
  <unicode hex="0072"/>
  <outline>
    <contour>
      <point x="364.946" y="479" type="curve" smooth="yes"/>
      <point x="364.946" y="452.788"/>
      <point x="339.317" y="436.22"/>
      <point x="312" y="436.22" type="curve" smooth="yes"/>
      <point x="282.185" y="436.22"/>
      <point x="267.335" y="449.597"/>
      <point x="242" y="449.597" type="curve" smooth="yes"/>
      <point x="201.717" y="449.597"/>
      <point x="168.114" y="407.245"/>
      <point x="160.004" y="384.583" type="curve"/>
      <point x="159.933" y="37.035" type="line" smooth="yes"/>
      <point x="161.471" y="28.1963"/>
      <point x="166.418" y="19.8402"/>
      <point x="179.141" y="17.2646" type="curve" smooth="yes"/>
      <point x="184.679" y="16.1436"/>
      <point x="190.331" y="15.6377"/>
      <point x="196.101" y="15.5615" type="curve"/>
      <point x="196.101" y="0" type="line"/>
      <point x="56" y="0" type="line"/>
      <point x="56" y="15.5615" type="line"/>
      <point x="61.7715" y="15.6377"/>
      <point x="67.4229" y="16.1436"/>
      <point x="72.9619" y="17.2646" type="curve" smooth="yes"/>
      <point x="85.8526" y="19.8744"/>
      <point x="90.7594" y="28.4195"/>
      <point x="92.2285" y="37.3877" type="curve" smooth="yes"/>
      <point x="92.2285" y="444.717" type="line" smooth="yes"/>
      <point x="92.2285" y="463.08"/>
      <point x="85.1299" y="469.376"/>
      <point x="72.8809" y="471.856" type="curve" smooth="yes"/>
      <point x="67.3438" y="472.978"/>
      <point x="62.5742" y="473.182"/>
      <point x="58.4092" y="473.182" type="curve"/>
      <point x="58.4092" y="486.766" type="line"/>
      <point x="151.09" y="512.939" type="line" smooth="yes"/>
      <point x="152.176" y="513.246"/>
      <point x="153.142" y="513.353"/>
      <point x="154" y="513.353" type="curve" smooth="yes"/>
      <point x="158.536" y="513.353"/>
      <point x="160.027" y="508.036"/>
      <point x="160.027" y="496.087" type="curve" smooth="yes"/>
      <point x="160.015" y="438.113" type="line"/>
      <point x="189.689" y="466.15"/>
      <point x="235.413" y="503.073"/>
      <point x="299" y="503.073" type="curve" smooth="yes"/>
      <point x="312.374" y="503.073"/>
      <point x="364.946" y="499.552"/>
    </contour>
  </outline>
</glyph>
<glyph name="s" format="1">
  <advance width="421"/>
  <unicode hex="0073"/>
  <outline>
    <contour>
      <point x="206.697" y="17.4434" type="curve" smooth="yes"/>
      <point x="262.738" y="17.4434"/>
      <point x="312.924" y="52.8213"/>
      <point x="312.924" y="108" type="curve" smooth="yes"/>
      <point x="312.924" y="161.191"/>
      <point x="250.326" y="200.4"/>
      <point x="205" y="232" type="curve" smooth="yes"/>
      <point x="162.984" y="261.292"/>
      <point x="78.6777" y="309.746"/>
      <point x="78.6777" y="375" type="curve" smooth="yes"/>
      <point x="78.6777" y="442.909"/>
      <point x="137.421" y="510.729"/>
      <point x="230" y="510.729" type="curve" smooth="yes"/>
      <point x="288.583" y="510.729"/>
      <point x="348.122" y="485.443"/>
      <point x="348.122" y="472" type="curve" smooth="yes"/>
      <point x="348.122" y="460.604"/>
      <point x="331.562" y="417.337"/>
      <point x="326" y="417.337" type="curve" smooth="yes"/>
      <point x="318.535" y="417.337"/>
      <point x="302.041" y="488.515"/>
      <point x="233" y="488.515" type="curve" smooth="yes"/>
      <point x="172.271" y="488.515"/>
      <point x="141.161" y="443.345"/>
      <point x="141.161" y="406.037" type="curve" smooth="yes"/>
      <point x="141.161" y="351.933"/>
      <point x="223.828" y="306.705"/>
      <point x="260.693" y="280.641" type="curve" smooth="yes"/>
      <point x="314.38" y="242.684"/>
      <point x="372.715" y="202.504"/>
      <point x="372.715" y="141" type="curve" smooth="yes"/>
      <point x="372.715" y="58.0293"/>
      <point x="299.732" y="-10"/>
      <point x="210.434" y="-10" type="curve" smooth="yes"/>
      <point x="98.7607" y="-10"/>
      <point x="45.0039" y="48.6523"/>
      <point x="45.0039" y="76" type="curve" smooth="yes"/>
      <point x="45.0039" y="89.4951"/>
      <point x="78.6855" y="123.543"/>
      <point x="89" y="123.543" type="curve" smooth="yes"/>
      <point x="90.6416" y="123.543"/>
      <point x="91.6914" y="122.498"/>
      <point x="91.9189" y="120.419" type="curve" smooth="yes"/>
      <point x="95.7793" y="85.2256"/>
      <point x="118.831" y="17.4434"/>
    </contour>
  </outline>
</glyph>
<glyph name="u" format="1">
  <advance width="562"/>
  <unicode hex="0075"/>
  <outline>
    <contour>
      <point x="502.104" y="44.9287" type="curve"/>
      <point x="508.49" y="18.4648" type="line"/>
      <point x="478.293" y="4.94824"/>
      <point x="448.344" y="-7.88672"/>
      <point x="422.129" y="-7.88672" type="curve" smooth="yes"/>
      <point x="397.167" y="-7.88672"/>
      <point x="396.114" y="18.7539"/>
      <point x="396.114" y="29" type="curve" smooth="yes"/>
      <point x="396.114" y="32.6469"/>
      <point x="396.115" y="36.1434"/>
      <point x="396.115" y="39.7768" type="curve"/>
      <point x="350.107" y="6.674"/>
      <point x="311.621" y="-10"/>
      <point x="247.396" y="-10" type="curve" smooth="yes"/>
      <point x="167.607" y="-10"/>
      <point x="83.7461" y="30.2598"/>
      <point x="83.7461" y="138.629" type="curve" smooth="yes"/>
      <point x="83.8203" y="444.189" type="line" smooth="yes"/>
      <point x="83.8203" y="462.553"/>
      <point x="76.7207" y="468.849"/>
      <point x="64.4717" y="471.329" type="curve" smooth="yes"/>
      <point x="58.9346" y="472.45"/>
      <point x="54.165" y="472.654"/>
      <point x="50" y="472.654" type="curve"/>
      <point x="50" y="486.238" type="line"/>
      <point x="142.705" y="508.412" type="line" smooth="yes"/>
      <point x="143.54" y="508.612"/>
      <point x="144.303" y="508.746"/>
      <point x="145" y="508.746" type="curve" smooth="yes"/>
      <point x="150.103" y="508.746"/>
      <point x="151.643" y="504.061"/>
      <point x="151.643" y="491.56" type="curve" smooth="yes"/>
      <point x="151.541" y="152.571" type="line" smooth="yes"/>
      <point x="151.541" y="81.2939"/>
      <point x="203.937" y="22.3203"/>
      <point x="269.82" y="22.3203" type="curve" smooth="yes"/>
      <point x="306.546" y="22.3203"/>
      <point x="353.813" y="33.1335"/>
      <point x="396.109" y="65.027" type="curve"/>
      <point x="396.015" y="448.189" type="line" smooth="yes"/>
      <point x="396.01" y="466.553"/>
      <point x="388.916" y="472.85"/>
      <point x="376.667" y="475.329" type="curve" smooth="yes"/>
      <point x="371.129" y="476.45"/>
      <point x="366.359" y="476.654"/>
      <point x="362.195" y="476.654" type="curve"/>
      <point x="362.195" y="490.238" type="line"/>
      <point x="457.876" y="509.412" type="line" smooth="yes"/>
      <point x="458.644" y="509.563"/>
      <point x="459.35" y="509.666"/>
      <point x="460" y="509.666" type="curve" smooth="yes"/>
      <point x="465.314" y="509.666"/>
      <point x="466.813" y="505.221"/>
      <point x="466.813" y="492.56" type="curve" smooth="yes"/>
      <point x="466.813" y="492.56"/>
      <point x="466.752" y="55.7734"/>
      <point x="466.752" y="36.7383" type="curve"/>
      <point x="477.87" y="38.7422"/>
      <point x="490.331" y="41.4521"/>
    </contour>
  </outline>
</glyph>
<glyph name="v" format="1">
  <advance width="533"/>
  <unicode hex="0076"/>
  <outline>
    <contour>
      <point x="494.851" y="506.628" type="line"/>
      <point x="494.851" y="491.231" type="line" smooth="yes"/>
      <point x="494.851" y="491.231"/>
      <point x="482.193" y="491.063"/>
      <point x="477.685" y="489.644" type="curve" smooth="yes"/>
      <point x="472.976" y="488.16"/>
      <point x="468.729" y="483.477"/>
      <point x="467.685" y="480.504" type="curve" smooth="yes"/>
      <point x="467.308" y="479.432"/>
      <point x="434.07" y="401.566"/>
      <point x="395.239" y="305.812" type="curve" smooth="yes"/>
      <point x="340.983" y="172.021"/>
      <point x="274.504" y="8.85449"/>
      <point x="269.96" y="0" type="curve" smooth="yes"/>
      <point x="267.15" y="-5.47363"/>
      <point x="261.84" y="-9"/>
      <point x="256" y="-9" type="curve" smooth="yes"/>
      <point x="250.874" y="-9"/>
      <point x="245.713" y="-6.32422"/>
      <point x="243" y="0" type="curve" smooth="yes"/>
      <point x="238.213" y="11.1602"/>
      <point x="232.576" y="25.5244"/>
      <point x="228.998" y="35.5684" type="curve" smooth="yes"/>
      <point x="228.998" y="35.5684"/>
      <point x="186.068" y="167.193"/>
      <point x="142.457" y="286.948" type="curve" smooth="yes"/>
      <point x="106.164" y="386.606"/>
      <point x="70.8837" y="478.055"/>
      <point x="70.6562" y="478.568" type="curve" smooth="yes"/>
      <point x="68.3027" y="483.884"/>
      <point x="68" y="488"/>
      <point x="61" y="490" type="curve" smooth="yes"/>
      <point x="55.8141" y="491.482"/>
      <point x="46" y="491.062"/>
      <point x="46" y="491.37" type="curve" smooth="yes"/>
      <point x="46" y="506.855" type="line"/>
      <point x="178.244" y="506.855" type="line"/>
      <point x="178.244" y="491.674" type="line"/>
      <point x="172.455" y="491.597"/>
      <point x="165.683" y="491.49"/>
      <point x="159.884" y="490.369" type="curve" smooth="yes"/>
      <point x="151.745" y="488.796"/>
      <point x="148.585" y="484.697"/>
      <point x="148.585" y="479" type="curve" smooth="yes"/>
      <point x="148.585" y="474.948"/>
      <point x="149.73" y="470.089"/>
      <point x="151.564" y="464.754" type="curve" smooth="yes"/>
      <point x="151.564" y="464.754"/>
      <point x="175.613" y="391.911"/>
      <point x="204.459" y="310.852" type="curve" smooth="yes"/>
      <point x="232.288" y="232.649"/>
      <point x="265.62" y="137.486"/>
      <point x="273.456" y="116.504" type="curve"/>
      <point x="282.367" y="138.009"/>
      <point x="325.42" y="239.572"/>
      <point x="357.698" y="320.764" type="curve" smooth="yes"/>
      <point x="388.367" y="397.906"/>
      <point x="412.53" y="468.396"/>
      <point x="412.53" y="468.396" type="curve" smooth="yes"/>
      <point x="413.26" y="470.359"/>
      <point x="413.495" y="472.233"/>
      <point x="413.495" y="474" type="curve" smooth="yes"/>
      <point x="413.495" y="482.029"/>
      <point x="405.261" y="487.835"/>
      <point x="395.123" y="489.646" type="curve" smooth="yes"/>
      <point x="389.054" y="490.729"/>
      <point x="386.037" y="491.156"/>
      <point x="380.229" y="491.233" type="curve"/>
      <point x="380.229" y="506.628" type="line"/>
    </contour>
  </outline>
</glyph>
<glyph name="w" format="1">
  <advance width="834"/>
  <unicode hex="0077"/>
  <outline>
    <contour>
      <point x="672.379" y="506.667" type="line"/>
      <point x="785" y="506.667" type="line"/>
      <point x="785" y="491.273" type="line" smooth="yes"/>
      <point x="785" y="491.273"/>
      <point x="776.342" y="491.105"/>
      <point x="771.834" y="489.686" type="curve" smooth="yes"/>
      <point x="767.125" y="488.202"/>
      <point x="764.879" y="486.519"/>
      <point x="763.834" y="483.546" type="curve" smooth="yes"/>
      <point x="763.457" y="482.474"/>
      <point x="727.165" y="399.818"/>
      <point x="688.72" y="304.309" type="curve" smooth="yes"/>
      <point x="634.67" y="170.034"/>
      <point x="572.652" y="7.05344"/>
      <point x="568.441" y="-1.50391" type="curve" smooth="yes"/>
      <point x="566.362" y="-5.7298"/>
      <point x="561.63" y="-7.36971"/>
      <point x="557" y="-7.36971" type="curve" smooth="yes"/>
      <point x="552.069" y="-7.36971"/>
      <point x="547.252" y="-4.95546"/>
      <point x="545.878" y="-1.21582" type="curve" smooth="yes"/>
      <point x="541.689" y="10.1817"/>
      <point x="536.057" y="24.0205"/>
      <point x="532.479" y="34.0645" type="curve" smooth="yes"/>
      <point x="532.479" y="34.0645"/>
      <point x="486.556" y="165.691"/>
      <point x="442.938" y="285.444" type="curve" smooth="yes"/>
      <point x="434.953" y="307.368"/>
      <point x="427.018" y="328.893"/>
      <point x="419.493" y="349.14" type="curve"/>
      <point x="413.572" y="334.753"/>
      <point x="407.443" y="319.722"/>
      <point x="401.239" y="304.309" type="curve" smooth="yes"/>
      <point x="347.189" y="170.034"/>
      <point x="281.328" y="7.4188"/>
      <point x="277.96" y="-1.50391" type="curve" smooth="yes"/>
      <point x="276.332" y="-5.81682"/>
      <point x="270.209" y="-8"/>
      <point x="265" y="-8" type="curve" smooth="yes"/>
      <point x="259.67" y="-8"/>
      <point x="255.251" y="-5.38893"/>
      <point x="253.397" y="-1.21582" type="curve" smooth="yes"/>
      <point x="248.469" y="9.88212"/>
      <point x="244.576" y="24.0205"/>
      <point x="240.998" y="34.0645" type="curve" smooth="yes"/>
      <point x="240.998" y="34.0645"/>
      <point x="193.069" y="165.69"/>
      <point x="149.457" y="285.444" type="curve" smooth="yes"/>
      <point x="113.164" y="385.103"/>
      <point x="76.8838" y="477.866"/>
      <point x="76.6562" y="478.38" type="curve" smooth="yes"/>
      <point x="74.3027" y="483.695"/>
      <point x="74.1338" y="487.585"/>
      <point x="66" y="489.315" type="curve" smooth="yes"/>
      <point x="60.7246" y="490.438"/>
      <point x="52" y="490.007"/>
      <point x="52" y="490.315" type="curve" smooth="yes"/>
      <point x="52" y="506.667" type="line"/>
      <point x="187.244" y="506.667" type="line"/>
      <point x="187.244" y="491.485" type="line"/>
      <point x="181.455" y="491.407"/>
      <point x="174.614" y="491.407"/>
      <point x="168.981" y="489.632" type="curve" smooth="yes"/>
      <point x="161.167" y="487.168"/>
      <point x="157.883" y="483.385"/>
      <point x="157.883" y="477.315" type="curve" smooth="yes"/>
      <point x="157.883" y="474.396"/>
      <point x="158.654" y="470.949"/>
      <point x="160.051" y="466.866" type="curve" smooth="yes"/>
      <point x="160.051" y="466.866"/>
      <point x="185.612" y="390.406"/>
      <point x="214.458" y="309.347" type="curve" smooth="yes"/>
      <point x="242.287" y="231.145"/>
      <point x="273.619" y="148.981"/>
      <point x="281.455" y="127.999" type="curve"/>
      <point x="289.366" y="149.504"/>
      <point x="331.418" y="238.067"/>
      <point x="363.697" y="319.259" type="curve" smooth="yes"/>
      <point x="376.528" y="351.532"/>
      <point x="388.22" y="382.642"/>
      <point x="397.48" y="407.912" type="curve"/>
      <point x="381.902" y="449.189"/>
      <point x="370.78" y="478.098"/>
      <point x="370.655" y="478.38" type="curve" smooth="yes"/>
      <point x="368.303" y="483.695"/>
      <point x="367.652" y="488.585"/>
      <point x="359.518" y="490.315" type="curve" smooth="yes"/>
      <point x="354.243" y="491.438"/>
      <point x="346" y="490.873"/>
      <point x="346" y="491.182" type="curve" smooth="yes"/>
      <point x="346" y="506.667" type="line"/>
      <point x="478.243" y="506.667" type="line"/>
      <point x="478.243" y="491.485" type="line"/>
      <point x="472.454" y="491.408"/>
      <point x="465.683" y="491.302"/>
      <point x="459.884" y="490.181" type="curve" smooth="yes"/>
      <point x="451.511" y="488.562"/>
      <point x="448.575" y="484.271"/>
      <point x="448.575" y="478.315" type="curve" smooth="yes"/>
      <point x="448.575" y="474.365"/>
      <point x="449.804" y="469.684"/>
      <point x="451.563" y="464.565" type="curve" smooth="yes"/>
      <point x="451.563" y="464.565"/>
      <point x="476.096" y="390.408"/>
      <point x="504.941" y="309.348" type="curve" smooth="yes"/>
      <point x="532.77" y="231.146"/>
      <point x="564.102" y="148.982"/>
      <point x="571.938" y="128" type="curve"/>
      <point x="579.849" y="149.505"/>
      <point x="618.901" y="238.068"/>
      <point x="651.18" y="319.26" type="curve" smooth="yes"/>
      <point x="681.849" y="396.402"/>
      <point x="705.443" y="465"/>
      <point x="705.443" y="465" type="curve" smooth="yes"/>
      <point x="706.251" y="467.174"/>
      <point x="706.511" y="469.383"/>
      <point x="706.511" y="471.546" type="curve" smooth="yes"/>
      <point x="706.511" y="480.213"/>
      <point x="699.25" y="488.118"/>
      <point x="689.352" y="489.887" type="curve" smooth="yes"/>
      <point x="683.283" y="490.971"/>
      <point x="678.187" y="491.198"/>
      <point x="672.379" y="491.275" type="curve"/>
    </contour>
  </outline>
</glyph>
<glyph name="x" format="1">
  <advance width="572"/>
  <unicode hex="0078"/>
  <outline>
    <contour>
      <point x="500.86" y="17.2236" type="curve" smooth="yes"/>
      <point x="506.475" y="16.1025"/>
      <point x="510.11" y="15.6211"/>
      <point x="515.885" y="15.5439" type="curve"/>
      <point x="515.885" y="0" type="line"/>
      <point x="368.764" y="-0.0419922" type="line"/>
      <point x="368.71" y="15.5186" type="line"/>
      <point x="374.475" y="15.5957"/>
      <point x="377.877" y="15.6279"/>
      <point x="383.314" y="16.8623" type="curve" smooth="yes"/>
      <point x="393.595" y="19.1964"/>
      <point x="399.923" y="24.8559"/>
      <point x="399.923" y="32" type="curve" smooth="yes"/>
      <point x="399.923" y="33.9634"/>
      <point x="398.971" y="36.039"/>
      <point x="397.533" y="38.1885" type="curve" smooth="yes"/>
      <point x="397.533" y="38.1885"/>
      <point x="324.997" y="143.495"/>
      <point x="273.327" y="223.426" type="curve"/>
      <point x="200.502" y="126.67"/>
      <point x="140.116" y="38.1904"/>
      <point x="140.116" y="38.1904" type="curve"/>
      <point x="138.022" y="35.2917"/>
      <point x="136.868" y="32.5278"/>
      <point x="136.868" y="30" type="curve" smooth="yes"/>
      <point x="136.868" y="23.8712"/>
      <point x="141.955" y="19.1308"/>
      <point x="151.554" y="17.2246" type="curve" smooth="yes"/>
      <point x="157.199" y="16.1035"/>
      <point x="163.418" y="15.5977"/>
      <point x="169.197" y="15.5205" type="curve"/>
      <point x="169.194" y="-0.0400391" type="line"/>
      <point x="52.0186" y="-0.0400391" type="line"/>
      <point x="52" y="15.5322" type="line"/>
      <point x="57.7637" y="15.6094"/>
      <point x="60.8701" y="16.1025"/>
      <point x="66.2979" y="17.2236" type="curve" smooth="yes"/>
      <point x="72.7041" y="18.5469"/>
      <point x="76.7607" y="21.4111"/>
      <point x="79.877" y="25.1328" type="curve" smooth="yes"/>
      <point x="82.7037" y="28.5079"/>
      <point x="183.308" y="166.24"/>
      <point x="253.194" y="254.623" type="curve"/>
      <point x="201.243" y="334.264"/>
      <point x="104.912" y="474.814"/>
      <point x="104.138" y="475.854" type="curve" smooth="yes"/>
      <point x="100.179" y="481.169"/>
      <point x="93.8066" y="487.746"/>
      <point x="85.1494" y="489.477" type="curve" smooth="yes"/>
      <point x="79.5352" y="490.599"/>
      <point x="75.8506" y="491.104"/>
      <point x="70.0742" y="491.182" type="curve"/>
      <point x="70" y="506.667" type="line"/>
      <point x="209.319" y="506.667" type="line"/>
      <point x="209.319" y="491.182" type="line"/>
      <point x="203.552" y="491.105"/>
      <point x="198.527" y="491.066"/>
      <point x="193.067" y="489.945" type="curve" smooth="yes"/>
      <point x="185.846" y="488.462"/>
      <point x="182.601" y="485.688"/>
      <point x="182.601" y="481.526" type="curve" smooth="yes"/>
      <point x="182.601" y="478.132"/>
      <point x="184.542" y="473.815"/>
      <point x="188.088" y="468.526" type="curve" smooth="yes"/>
      <point x="188.088" y="468.526"/>
      <point x="248.348" y="380.451"/>
      <point x="295.587" y="309.063" type="curve"/>
      <point x="357.934" y="391.07"/>
      <point x="410.452" y="468.434"/>
      <point x="410.452" y="468.434" type="curve" smooth="yes"/>
      <point x="412.615" y="471.382"/>
      <point x="413.533" y="474.131"/>
      <point x="413.533" y="476.616" type="curve" smooth="yes"/>
      <point x="413.533" y="489.26"/>
      <point x="393.414" y="491.083"/>
      <point x="379.374" y="491.271" type="curve"/>
      <point x="379.324" y="506.665" type="line"/>
      <point x="498" y="506.667" type="line"/>
      <point x="498" y="491.272" type="line"/>
      <point x="487.035" y="491.149"/>
      <point x="477.867" y="489.339"/>
      <point x="473.388" y="483.545" type="curve" smooth="yes"/>
      <point x="449" y="452"/>
      <point x="373.712" y="358.953"/>
      <point x="315.486" y="278.787" type="curve" smooth="yes"/>
      <point x="315.486" y="278.787"/>
      <point x="318.663" y="273.907"/>
      <point x="320.202" y="271.534" type="curve" smooth="yes"/>
      <point x="376.491" y="184.734"/>
      <point x="446.076" y="68.8516"/>
      <point x="485.795" y="25.4795" type="curve" smooth="yes"/>
      <point x="489.362" y="21.584"/>
      <point x="493.848" y="18.624"/>
    </contour>
  </outline>
</glyph>
<glyph name="y" format="1">
  <advance width="546"/>
  <unicode hex="0079"/>
  <outline>
    <contour>
      <point x="258.152" y="-54.0156" type="curve" smooth="yes"/>
      <point x="236.11" y="-92.655"/>
      <point x="159.786" y="-227.118"/>
      <point x="102" y="-227.118" type="curve" smooth="yes"/>
      <point x="92.7646" y="-227.118"/>
      <point x="88.4314" y="-218.364"/>
      <point x="88.4314" y="-208" type="curve" smooth="yes"/>
      <point x="88.4314" y="-200.441"/>
      <point x="89.6402" y="-192.314"/>
      <point x="92" y="-186" type="curve" smooth="yes"/>
      <point x="111.504" y="-133.817"/>
      <point x="150" y="-153"/>
      <point x="195.127" y="-98.6826" type="curve" smooth="yes"/>
      <point x="211.901" y="-78.4926"/>
      <point x="238" y="-18"/>
      <point x="244.208" y="1.20605" type="curve"/>
      <point x="241.822" y="6.70508"/>
      <point x="239.325" y="20.1113"/>
      <point x="237.998" y="23.7959" type="curve" smooth="yes"/>
      <point x="237.998" y="23.7959"/>
      <point x="191.069" y="155.421"/>
      <point x="147.457" y="275.176" type="curve" smooth="yes"/>
      <point x="111.164" y="374.834"/>
      <point x="71.6571" y="477.389"/>
      <point x="71.4121" y="477.895" type="curve" smooth="yes"/>
      <point x="67" y="487"/>
      <point x="64" y="491.696"/>
      <point x="46.7559" y="491.696" type="curve"/>
      <point x="46.7559" y="507.182" type="line"/>
      <point x="181" y="507.182" type="line"/>
      <point x="181" y="492" type="line"/>
      <point x="167.908" y="491.826"/>
      <point x="151.84" y="492.658"/>
      <point x="151.84" y="477.099" type="curve" smooth="yes"/>
      <point x="151.84" y="473.327"/>
      <point x="152.613" y="468.923"/>
      <point x="154.32" y="464.08" type="curve" smooth="yes"/>
      <point x="154.32" y="464.08"/>
      <point x="182.613" y="380.139"/>
      <point x="211.459" y="299.079" type="curve" smooth="yes"/>
      <point x="239.288" y="220.877"/>
      <point x="272.62" y="129.714"/>
      <point x="280.456" y="108.731" type="curve"/>
      <point x="288.367" y="130.236"/>
      <point x="329.42" y="227.8"/>
      <point x="361.698" y="308.991" type="curve" smooth="yes"/>
      <point x="392.367" y="386.134"/>
      <point x="418.334" y="458.196"/>
      <point x="418.334" y="458.196" type="curve" smooth="yes"/>
      <point x="420.235" y="463.205"/>
      <point x="421.117" y="467.502"/>
      <point x="421.117" y="471.178" type="curve" smooth="yes"/>
      <point x="421.117" y="486.965"/>
      <point x="404.867" y="491.32"/>
      <point x="383.377" y="491.605" type="curve"/>
      <point x="383.377" y="507" type="line"/>
      <point x="500" y="507" type="line"/>
      <point x="500" y="491.605" type="line"/>
      <point x="488.1" y="490.86"/>
      <point x="472.343" y="486.483"/>
      <point x="469.904" y="479.547" type="curve" smooth="yes"/>
      <point x="469.527" y="478.475"/>
      <point x="437.688" y="389.551"/>
      <point x="399.24" y="294.042" type="curve" smooth="yes"/>
      <point x="366.178" y="211.91"/>
      <point x="326.96" y="119.979"/>
      <point x="304.601" y="57.4502" type="curve" smooth="yes"/>
      <point x="290.138" y="17.004"/>
      <point x="269" y="-35"/>
    </contour>
  </outline>
</glyph>
